<svg width="65" height="12" viewBox="0 0 65 12" fill="none" xmlns="http://www.w3.org/2000/svg">
<path fill-rule="evenodd" clip-rule="evenodd" d="M58.6961 9.29148L55.3681 11L56.0038 7.3813L53.3077 4.81878L57.0283 4.29227L58.6924 1L60.3564 4.29227L64.077 4.81878L61.3809 7.3813L62.0166 11L58.6961 9.29148Z" stroke="#00936C" stroke-width="1.5" stroke-linecap="round" stroke-linejoin="round"/>
<path fill-rule="evenodd" clip-rule="evenodd" d="M58.6961 9.29148L55.3681 11L56.0038 7.3813L53.3077 4.81878L57.0283 4.29227L58.6924 1L60.3564 4.29227L64.077 4.81878L61.3809 7.3813L62.0166 11L58.6961 9.29148Z" stroke="white" stroke-opacity="0.2" stroke-width="1.5" stroke-linecap="round" stroke-linejoin="round"/>
<path fill-rule="evenodd" clip-rule="evenodd" d="M46.3884 9.29148L43.0603 11L43.6961 7.3813L41 4.81878L44.7206 4.29227L46.3846 1L48.0486 4.29227L51.7692 4.81878L49.0731 7.3813L49.7089 11L46.3884 9.29148Z" stroke="#00936C" stroke-width="1.5" stroke-linecap="round" stroke-linejoin="round"/>
<path fill-rule="evenodd" clip-rule="evenodd" d="M46.3884 9.29148L43.0603 11L43.6961 7.3813L41 4.81878L44.7206 4.29227L46.3846 1L48.0486 4.29227L51.7692 4.81878L49.0731 7.3813L49.7089 11L46.3884 9.29148Z" stroke="white" stroke-opacity="0.2" stroke-width="1.5" stroke-linecap="round" stroke-linejoin="round"/>
<path fill-rule="evenodd" clip-rule="evenodd" d="M33.3884 9.29148L30.0603 11L30.6961 7.3813L28 4.81878L31.7206 4.29227L33.3846 1L35.0486 4.29227L38.7692 4.81878L36.0731 7.3813L36.7089 11L33.3884 9.29148Z" stroke="#00936C" stroke-width="1.5" stroke-linecap="round" stroke-linejoin="round"/>
<path fill-rule="evenodd" clip-rule="evenodd" d="M33.3884 9.29148L30.0603 11L30.6961 7.3813L28 4.81878L31.7206 4.29227L33.3846 1L35.0486 4.29227L38.7692 4.81878L36.0731 7.3813L36.7089 11L33.3884 9.29148Z" stroke="white" stroke-opacity="0.2" stroke-width="1.5" stroke-linecap="round" stroke-linejoin="round"/>
<path fill-rule="evenodd" clip-rule="evenodd" d="M33.3884 9.29148L30.0603 11L30.6961 7.3813L28 4.81878L31.7206 4.29227L33.3846 1L35.0486 4.29227L38.7692 4.81878L36.0731 7.3813L36.7089 11L33.3884 9.29148Z" stroke="#00936C" stroke-width="1.5" stroke-linecap="round" stroke-linejoin="round"/>
<path fill-rule="evenodd" clip-rule="evenodd" d="M33.3884 9.29148L30.0603 11L30.6961 7.3813L28 4.81878L31.7206 4.29227L33.3846 1L35.0486 4.29227L38.7692 4.81878L36.0731 7.3813L36.7089 11L33.3884 9.29148Z" stroke="white" stroke-opacity="0.2" stroke-width="1.5" stroke-linecap="round" stroke-linejoin="round"/>
<path fill-rule="evenodd" clip-rule="evenodd" d="M20.3884 9.29148L17.0603 11L17.6961 7.3813L15 4.81878L18.7206 4.29227L20.3846 1L22.0486 4.29227L25.7692 4.81878L23.0731 7.3813L23.7089 11L20.3884 9.29148Z" stroke="#00936C" stroke-width="1.5" stroke-linecap="round" stroke-linejoin="round"/>
<path fill-rule="evenodd" clip-rule="evenodd" d="M20.3884 9.29148L17.0603 11L17.6961 7.3813L15 4.81878L18.7206 4.29227L20.3846 1L22.0486 4.29227L25.7692 4.81878L23.0731 7.3813L23.7089 11L20.3884 9.29148Z" stroke="white" stroke-opacity="0.2" stroke-width="1.5" stroke-linecap="round" stroke-linejoin="round"/>
<path fill-rule="evenodd" clip-rule="evenodd" d="M6.38839 9.29148L3.06035 11L3.69608 7.3813L1 4.81878L4.72059 4.29227L6.38462 1L8.04864 4.29227L11.7692 4.81878L9.07315 7.3813L9.70889 11L6.38839 9.29148Z" stroke="#00936C" stroke-width="1.5" stroke-linecap="round" stroke-linejoin="round"/>
<path fill-rule="evenodd" clip-rule="evenodd" d="M6.38839 9.29148L3.06035 11L3.69608 7.3813L1 4.81878L4.72059 4.29227L6.38462 1L8.04864 4.29227L11.7692 4.81878L9.07315 7.3813L9.70889 11L6.38839 9.29148Z" stroke="white" stroke-opacity="0.2" stroke-width="1.5" stroke-linecap="round" stroke-linejoin="round"/>
</svg>
