<svg width="53" height="85" viewBox="0 0 53 85" fill="none" xmlns="http://www.w3.org/2000/svg">
<g opacity="0.1">
<path d="M52.73 53.79C52.73 62.24 49.21 69.39 42.17 75.24C35.13 81.09 26.87 84.02 17.38 84.02C12.34 84.02 7.5 82.93 2.86 80.75C2.15 73.85 1.19 68.02 0 63.25L0.359999 62.42L3.34 61.53L4.05 61.83C7.98 71.87 14.26 76.89 22.91 76.89C27.39 76.89 30.99 75.43 33.71 72.52C36.44 69.58 37.8 65.59 37.8 60.51C37.8 55.47 36.31 51.58 33.34 48.85C30.52 46.23 26.73 44.92 21.97 44.92C19.79 44.92 17.43 45.28 14.89 45.99L14.18 45.22C15.05 42.4 15.81 39.39 16.44 36.18H21.32C24.85 36.18 27.9 34.92 30.48 32.4C33.06 29.88 34.35 26.88 34.35 23.38C34.35 20.09 33.21 17.41 30.93 15.35C28.65 13.29 25.8 12.26 22.39 12.26C16.99 12.26 13.32 13.65 11.38 16.43C10.47 17.74 9.59 19.62 8.76 22.08L8.11 24.04L7.28 24.58L4.24 24.34L3.64 23.56L5.72 13.86C6.31 11.12 6.75 8.44 7.03 5.83C12.19 1.94 18.67 0 26.49 0C33.12 0 38.39 1.63 42.32 4.88C46.05 8.05 47.91 12.2 47.91 17.32C47.91 24.7 43.51 30.69 34.7 35.29C39.14 35.29 43.17 36.8 46.78 39.81C50.75 43.09 52.73 47.76 52.73 53.79Z" fill="#00936C"/>
</g>
</svg>
