<svg width="57" height="84" viewBox="0 0 57 84" fill="none" xmlns="http://www.w3.org/2000/svg">
<g opacity="0.1">
<path d="M56.06 82.54L55.4 83.25C49.65 82.93 43.24 82.77 36.18 82.77C32.17 82.77 25.57 82.93 16.36 83.25L15.76 82.6V78.91L16.42 78.26L22.79 77.78C25.96 77.54 27.85 77.11 28.44 76.47C29.23 75.6 29.69 73.46 29.81 70.04L30.05 62.24H22.19L10.29 62.36C8.15 62.36 4.99 62.42 0.83 62.54L0 57.6C1.63 52.56 5.95 43.54 12.97 30.52C20.19 17.15 25.8 7.97 29.81 2.97L44.75 0L45.82 1.01C45.11 8.67 44.75 21.14 44.75 38.44V52.42H46.65C48.51 52.42 51.29 52.32 54.98 52.12L55.69 52.77C55.57 56.66 55.57 59.59 55.69 61.58L54.98 62.29C54.34 62.25 53.33 62.23 51.94 62.23H44.74C44.74 70.96 45.18 75.74 46.05 76.57C46.76 77.24 48.29 77.68 50.63 77.88C52.42 78.04 54.02 78.22 55.45 78.42L56.05 78.96V82.54H56.06ZM30.77 11.01C25.49 19.46 21.59 26.06 19.05 30.83C17.3 34.08 13.87 41.28 8.76 52.43H30.12L30.77 11.01Z" fill="#00936C"/>
</g>
</svg>
