<svg width="65" height="12" viewBox="0 0 65 12" fill="none" xmlns="http://www.w3.org/2000/svg">
<path fill-rule="evenodd" clip-rule="evenodd" d="M45.6192 9.29148L42.2911 11L42.9269 7.3813L40.2308 4.81878L43.9514 4.29227L45.6154 1L47.2794 4.29227L51 4.81878L48.3039 7.3813L48.9397 11L45.6192 9.29148Z" fill="#00936C"/>
<path fill-rule="evenodd" clip-rule="evenodd" d="M45.6192 9.29148L42.2911 11L42.9269 7.3813L40.2308 4.81878L43.9514 4.29227L45.6154 1L47.2794 4.29227L51 4.81878L48.3039 7.3813L48.9397 11L45.6192 9.29148Z" stroke="#00936C" stroke-width="1.5" stroke-linecap="round" stroke-linejoin="round"/>
<path fill-rule="evenodd" clip-rule="evenodd" d="M45.6192 9.29148L42.2911 11L42.9269 7.3813L40.2308 4.81878L43.9514 4.29227L45.6154 1L47.2794 4.29227L51 4.81878L48.3039 7.3813L48.9397 11L45.6192 9.29148Z" stroke="white" stroke-opacity="0.2" stroke-width="1.5" stroke-linecap="round" stroke-linejoin="round"/>
<path fill-rule="evenodd" clip-rule="evenodd" d="M58.3884 9.29148L55.0603 11L55.6961 7.3813L53 4.81878L56.7206 4.29227L58.3846 1L60.0486 4.29227L63.7692 4.81878L61.0731 7.3813L61.7089 11L58.3884 9.29148Z" fill="#00936C"/>
<path fill-rule="evenodd" clip-rule="evenodd" d="M58.3884 9.29148L55.0603 11L55.6961 7.3813L53 4.81878L56.7206 4.29227L58.3846 1L60.0486 4.29227L63.7692 4.81878L61.0731 7.3813L61.7089 11L58.3884 9.29148Z" stroke="#00936C" stroke-width="1.5" stroke-linecap="round" stroke-linejoin="round"/>
<path fill-rule="evenodd" clip-rule="evenodd" d="M58.3884 9.29148L55.0603 11L55.6961 7.3813L53 4.81878L56.7206 4.29227L58.3846 1L60.0486 4.29227L63.7692 4.81878L61.0731 7.3813L61.7089 11L58.3884 9.29148Z" stroke="white" stroke-opacity="0.2" stroke-width="1.5" stroke-linecap="round" stroke-linejoin="round"/>
<path fill-rule="evenodd" clip-rule="evenodd" d="M32.5423 9.29148L29.2142 11L29.85 7.3813L27.1539 4.81878L30.8745 4.29227L32.5385 1L34.2025 4.29227L37.9231 4.81878L35.227 7.3813L35.8628 11L32.5423 9.29148Z" fill="#00936C"/>
<path fill-rule="evenodd" clip-rule="evenodd" d="M32.5423 9.29148L29.2142 11L29.85 7.3813L27.1539 4.81878L30.8745 4.29227L32.5385 1L34.2025 4.29227L37.9231 4.81878L35.227 7.3813L35.8628 11L32.5423 9.29148Z" stroke="#00936C" stroke-width="1.5" stroke-linecap="round" stroke-linejoin="round"/>
<path fill-rule="evenodd" clip-rule="evenodd" d="M32.5423 9.29148L29.2142 11L29.85 7.3813L27.1539 4.81878L30.8745 4.29227L32.5385 1L34.2025 4.29227L37.9231 4.81878L35.227 7.3813L35.8628 11L32.5423 9.29148Z" stroke="white" stroke-opacity="0.2" stroke-width="1.5" stroke-linecap="round" stroke-linejoin="round"/>
<path fill-rule="evenodd" clip-rule="evenodd" d="M19.4653 9.29148L16.1373 11L16.773 7.3813L14.0769 4.81878L17.7975 4.29227L19.4615 1L21.1255 4.29227L24.8461 4.81878L22.1501 7.3813L22.7858 11L19.4653 9.29148Z" fill="#00936C"/>
<path fill-rule="evenodd" clip-rule="evenodd" d="M19.4653 9.29148L16.1373 11L16.773 7.3813L14.0769 4.81878L17.7975 4.29227L19.4615 1L21.1255 4.29227L24.8461 4.81878L22.1501 7.3813L22.7858 11L19.4653 9.29148Z" stroke="#00936C" stroke-width="1.5" stroke-linecap="round" stroke-linejoin="round"/>
<path fill-rule="evenodd" clip-rule="evenodd" d="M19.4653 9.29148L16.1373 11L16.773 7.3813L14.0769 4.81878L17.7975 4.29227L19.4615 1L21.1255 4.29227L24.8461 4.81878L22.1501 7.3813L22.7858 11L19.4653 9.29148Z" stroke="white" stroke-opacity="0.2" stroke-width="1.5" stroke-linecap="round" stroke-linejoin="round"/>
<path fill-rule="evenodd" clip-rule="evenodd" d="M6.38839 9.29148L3.06035 11L3.69608 7.3813L1 4.81878L4.72059 4.29227L6.38462 1L8.04864 4.29227L11.7692 4.81878L9.07315 7.3813L9.70889 11L6.38839 9.29148Z" fill="#00936C"/>
<path fill-rule="evenodd" clip-rule="evenodd" d="M6.38839 9.29148L3.06035 11L3.69608 7.3813L1 4.81878L4.72059 4.29227L6.38462 1L8.04864 4.29227L11.7692 4.81878L9.07315 7.3813L9.70889 11L6.38839 9.29148Z" stroke="#00936C" stroke-width="1.5" stroke-linecap="round" stroke-linejoin="round"/>
<path fill-rule="evenodd" clip-rule="evenodd" d="M6.38839 9.29148L3.06035 11L3.69608 7.3813L1 4.81878L4.72059 4.29227L6.38462 1L8.04864 4.29227L11.7692 4.81878L9.07315 7.3813L9.70889 11L6.38839 9.29148Z" stroke="white" stroke-opacity="0.2" stroke-width="1.5" stroke-linecap="round" stroke-linejoin="round"/>
</svg>
