<svg width="26" height="22" viewBox="0 0 26 22" fill="none" xmlns="http://www.w3.org/2000/svg">
<path d="M25.5074 9.39934L22.5651 0.344649C22.4799 0.082799 22.1986 -0.060518 21.9366 0.0245047L0.344672 7.04104C0.0827725 7.12617 -0.0605443 7.40752 0.0245282 7.66946L1.4173 11.9555C1.41691 11.9638 1.41606 11.9721 1.41606 11.9805V21.5013C1.41606 21.7767 1.63936 22 1.91472 22H24.6182C24.8935 22 25.1168 21.7767 25.1168 21.5013V11.9805C25.1168 11.7052 24.8935 11.4819 24.6182 11.4819H20.7126L25.1874 10.0278C25.4492 9.94264 25.5925 9.66129 25.5074 9.39934ZM24.1195 12.4792V21.0027H2.41334V12.4792H5.17556V18.0348C5.17556 18.3101 5.39886 18.5334 5.67422 18.5334C5.94959 18.5334 6.17289 18.3101 6.17289 18.0348V12.4792H17.5645H24.1195ZM17.4855 11.4819H2.31206L1.12713 7.83547L3.75565 6.9813L4.76106 10.0369C4.83013 10.2468 5.02516 10.3799 5.23465 10.3799C5.28631 10.3799 5.33887 10.3718 5.39063 10.3547C5.65223 10.2686 5.79455 9.98682 5.70843 9.72517L4.70417 6.67303L21.7706 1.12711L24.4048 9.23333L17.4855 11.4819Z" fill="#00936C"/>
<path d="M21.0138 3.31289C20.9286 3.05104 20.6473 2.90777 20.3854 2.99275L7.38373 7.2178C7.12183 7.30292 6.97852 7.58427 7.06359 7.84622C7.13211 8.05696 7.32754 8.1909 7.53777 8.1909C7.58884 8.1909 7.6408 8.18297 7.69201 8.16636L20.6936 3.94131C20.9555 3.85619 21.0989 3.57484 21.0138 3.31289Z" fill="#00936C"/>
<path d="M18.8209 6.55159L21.2819 5.75188C21.5438 5.66676 21.6872 5.38541 21.6021 5.12346C21.5169 4.86156 21.2356 4.7183 20.9737 4.80332L18.5126 5.60303C18.2507 5.68815 18.1074 5.9695 18.1925 6.23145C18.261 6.44219 18.4564 6.57613 18.6667 6.57613C18.7177 6.57613 18.7698 6.5682 18.8209 6.55159Z" fill="#00936C"/>
<path d="M20.9015 8.84206C20.97 9.05279 21.1654 9.18674 21.3757 9.18674C21.4267 9.18674 21.4787 9.17881 21.5299 9.1622L22.3087 8.90913C22.5706 8.82401 22.714 8.54266 22.6288 8.28071C22.5437 8.01881 22.2624 7.87549 22.0004 7.96056L21.2216 8.21364C20.9597 8.29876 20.8164 8.58011 20.9015 8.84206Z" fill="#00936C"/>
<path d="M19.4819 8.77939L18.7031 9.03247C18.4412 9.11759 18.2978 9.39894 18.3829 9.66088C18.4514 9.87162 18.6469 10.0056 18.8571 10.0056C18.9081 10.0056 18.9601 9.99764 19.0114 9.98103L19.7902 9.72796C20.0521 9.64283 20.1954 9.36149 20.1103 9.09954C20.0253 8.83764 19.7442 8.69437 19.4819 8.77939Z" fill="#00936C"/>
<path d="M12.5232 7.54941L7.97262 9.02816C7.71072 9.11328 7.56735 9.39463 7.65248 9.65658C7.72099 9.86731 7.91642 10.0013 8.12666 10.0013C8.17767 10.0013 8.22968 9.99333 8.2809 9.97672L12.8315 8.49798C13.0934 8.41285 13.2367 8.13151 13.1516 7.86956C13.0664 7.60766 12.7851 7.46439 12.5232 7.54941Z" fill="#00936C"/>
<path d="M5.67445 19.1963C5.39908 19.1963 5.17578 19.4196 5.17578 19.695V19.8902C5.17578 20.1656 5.39908 20.3889 5.67445 20.3889C5.94981 20.3889 6.17311 20.1656 6.17311 19.8902V19.695C6.17311 19.4196 5.94981 19.1963 5.67445 19.1963Z" fill="#00936C"/>
<path d="M8.05566 14.3244C8.05566 14.5997 8.27897 14.823 8.55433 14.823H22.2252C22.5005 14.823 22.7238 14.5997 22.7238 14.3244C22.7238 14.049 22.5005 13.8257 22.2252 13.8257H8.55433C8.27897 13.8257 8.05566 14.0489 8.05566 14.3244Z" fill="#00936C"/>
<path d="M22.2251 15.729H19.6373C19.362 15.729 19.1387 15.9523 19.1387 16.2277C19.1387 16.503 19.362 16.7263 19.6373 16.7263H22.2251C22.5004 16.7263 22.7237 16.503 22.7237 16.2277C22.7237 15.9523 22.5004 15.729 22.2251 15.729Z" fill="#00936C"/>
<path d="M22.2258 19.0493H21.4069C21.1315 19.0493 20.9082 19.2726 20.9082 19.548C20.9082 19.8233 21.1315 20.0466 21.4069 20.0466H22.2258C22.5011 20.0466 22.7244 19.8233 22.7244 19.548C22.7244 19.2726 22.5011 19.0493 22.2258 19.0493Z" fill="#00936C"/>
<path d="M19.5783 19.0493H18.7594C18.484 19.0493 18.2607 19.2726 18.2607 19.548C18.2607 19.8233 18.484 20.0466 18.7594 20.0466H19.5783C19.8536 20.0466 20.0769 19.8233 20.0769 19.548C20.0769 19.2726 19.8537 19.0493 19.5783 19.0493Z" fill="#00936C"/>
<path d="M13.3391 15.729H8.55433C8.27897 15.729 8.05566 15.9523 8.05566 16.2277C8.05566 16.503 8.27897 16.7263 8.55433 16.7263H13.3391C13.6145 16.7263 13.8378 16.503 13.8378 16.2277C13.8378 15.9523 13.6145 15.729 13.3391 15.729Z" fill="#00936C"/>
</svg>
