<svg width="22" height="16" viewBox="0 0 22 16" fill="none" xmlns="http://www.w3.org/2000/svg">
<ellipse cx="5.05786" cy="13.1714" rx="2.02856" ry="2.02856" stroke="#4B465C" stroke-opacity="0.8" stroke-width="1.2" stroke-linecap="round" stroke-linejoin="round"/>
<ellipse cx="17.2278" cy="13.1714" rx="2.02856" ry="2.02856" stroke="#4B465C" stroke-opacity="0.8" stroke-width="1.2" stroke-linecap="round" stroke-linejoin="round"/>
<path d="M3.02856 13.7714C3.35994 13.7714 3.62856 13.5028 3.62856 13.1714C3.62856 12.84 3.35994 12.5714 3.02856 12.5714V13.7714ZM1 13.1714H0.4C0.4 13.5028 0.668629 13.7714 1 13.7714L1 13.1714ZM21.2856 13.1714V13.7714C21.617 13.7714 21.8856 13.5028 21.8856 13.1714H21.2856ZM19.2571 12.5714C18.9257 12.5714 18.6571 12.84 18.6571 13.1714C18.6571 13.5028 18.9257 13.7714 19.2571 13.7714V12.5714ZM15.201 13.7714C15.5324 13.7714 15.801 13.5027 15.801 13.1714C15.801 12.84 15.5324 12.5714 15.201 12.5714V13.7714ZM7.08675 12.5714C6.75538 12.5714 6.48675 12.84 6.48675 13.1714C6.48675 13.5027 6.75538 13.7714 7.08675 13.7714V12.5714ZM3.02856 12.5714H1V13.7714H3.02856V12.5714ZM1.6 13.1714V2.01428H0.4V13.1714H1.6ZM1.6 2.01428C1.6 1.78548 1.78548 1.6 2.01428 1.6V0.4C1.12274 0.4 0.4 1.12274 0.4 2.01428H1.6ZM2.01428 1.6H16.2142V0.4H2.01428V1.6ZM16.2142 1.6C17.3706 1.6 18.4741 2.25518 19.312 3.42828C20.1491 4.60022 20.6856 6.25001 20.6856 8.09998H21.8856C21.8856 6.02874 21.2869 4.12853 20.2885 2.73079C19.2909 1.33421 17.8587 0.4 16.2142 0.4V1.6ZM20.6856 8.09998V13.1714H21.8856V8.09998H20.6856ZM21.2856 12.5714H19.2571V13.7714H21.2856V12.5714ZM15.201 12.5714H7.08675V13.7714H15.201V12.5714Z" fill="#4B465C" fill-opacity="0.8"/>
<path d="M15.1992 1L16.7206 8.09998H21.2849" stroke="#4B465C" stroke-opacity="0.8" stroke-width="1.2" stroke-linecap="round" stroke-linejoin="round"/>
<path d="M1 6.07147H16.2142" stroke="#4B465C" stroke-opacity="0.8" stroke-width="1.2" stroke-linecap="round" stroke-linejoin="round"/>
<path d="M6.07159 1V6.07141" stroke="#4B465C" stroke-opacity="0.8" stroke-width="1.2" stroke-linecap="round" stroke-linejoin="round"/>
<path d="M11.1429 1V6.07141" stroke="#4B465C" stroke-opacity="0.8" stroke-width="1.2" stroke-linecap="round" stroke-linejoin="round"/>
</svg>
