<svg width="203" height="35" viewBox="0 0 203 35" fill="none" xmlns="http://www.w3.org/2000/svg">
<rect x="0.25" y="0.25" width="202.5" height="34.5" rx="2.75" fill="white" stroke="#00936C" stroke-width="0.5"/>
<path d="M11.008 24V13.696H12.8L16.064 20.368L19.312 13.696H21.104V24H19.376V16.528L16.592 22.224H15.536L12.736 16.528V24H11.008ZM26.9574 24.16C25.6347 24.16 24.6107 23.8347 23.8854 23.184C23.16 22.5333 22.7974 21.536 22.7974 20.192C22.7974 18.976 23.1067 18.016 23.7254 17.312C24.344 16.608 25.2827 16.256 26.5414 16.256C27.6934 16.256 28.5574 16.56 29.1334 17.168C29.72 17.7653 30.0134 18.5387 30.0134 19.488V20.896H24.4614C24.5467 21.632 24.8134 22.1387 25.2614 22.416C25.7094 22.6933 26.392 22.832 27.3094 22.832C27.6934 22.832 28.088 22.7947 28.4934 22.72C28.8987 22.6453 29.2507 22.5493 29.5494 22.432V23.712C29.208 23.8613 28.8134 23.9733 28.3654 24.048C27.928 24.1227 27.4587 24.16 26.9574 24.16ZM24.4614 19.76H28.4774V19.232C28.4774 18.7093 28.3334 18.304 28.0454 18.016C27.7574 17.7173 27.272 17.568 26.5894 17.568C25.7787 17.568 25.2187 17.744 24.9094 18.096C24.6107 18.448 24.4614 19.0027 24.4614 19.76ZM35.4391 24.16C34.1058 24.16 33.0978 23.824 32.4151 23.152C31.7325 22.4693 31.3911 21.488 31.3911 20.208C31.3911 18.8747 31.7645 17.8827 32.5111 17.232C33.2685 16.5813 34.2765 16.256 35.5351 16.256C36.0578 16.256 36.4951 16.2933 36.8471 16.368C37.2098 16.4427 37.5565 16.56 37.8871 16.72V18.016C37.3325 17.7387 36.6605 17.6 35.8711 17.6C34.9965 17.6 34.3245 17.7973 33.8551 18.192C33.3858 18.576 33.1511 19.248 33.1511 20.208C33.1511 21.1147 33.3591 21.7813 33.7751 22.208C34.1911 22.624 34.8791 22.832 35.8391 22.832C36.5965 22.832 37.2845 22.688 37.9031 22.4V23.728C37.5511 23.8667 37.1725 23.9733 36.7671 24.048C36.3725 24.1227 35.9298 24.16 35.4391 24.16ZM43.0173 24.16C41.6839 24.16 40.6759 23.824 39.9933 23.152C39.3106 22.4693 38.9693 21.488 38.9693 20.208C38.9693 18.8747 39.3426 17.8827 40.0893 17.232C40.8466 16.5813 41.8546 16.256 43.1133 16.256C43.6359 16.256 44.0733 16.2933 44.4253 16.368C44.7879 16.4427 45.1346 16.56 45.4653 16.72V18.016C44.9106 17.7387 44.2386 17.6 43.4493 17.6C42.5746 17.6 41.9026 17.7973 41.4333 18.192C40.9639 18.576 40.7293 19.248 40.7293 20.208C40.7293 21.1147 40.9373 21.7813 41.3533 22.208C41.7693 22.624 42.4573 22.832 43.4173 22.832C44.1746 22.832 44.8626 22.688 45.4813 22.4V23.728C45.1293 23.8667 44.7506 23.9733 44.3453 24.048C43.9506 24.1227 43.5079 24.16 43.0173 24.16ZM49.2354 24.16C48.7554 24.16 48.3074 24.0747 47.8914 23.904C47.486 23.7333 47.1607 23.4773 46.9154 23.136C46.67 22.784 46.5474 22.352 46.5474 21.84C46.5474 21.1147 46.7927 20.5333 47.2834 20.096C47.7847 19.648 48.5527 19.424 49.5874 19.424H52.0194V19.088C52.0194 18.7253 51.9607 18.4373 51.8434 18.224C51.7367 18.0107 51.534 17.856 51.2354 17.76C50.9474 17.664 50.5207 17.616 49.9554 17.616C49.0594 17.616 48.222 17.7493 47.4434 18.016V16.72C47.7847 16.5813 48.2007 16.4693 48.6914 16.384C49.182 16.2987 49.71 16.256 50.2754 16.256C51.3847 16.256 52.2274 16.48 52.8034 16.928C53.39 17.376 53.6834 18.1067 53.6834 19.12V24H52.1954L52.0834 23.232C51.774 23.5307 51.39 23.76 50.9314 23.92C50.4834 24.08 49.918 24.16 49.2354 24.16ZM49.6994 22.912C50.222 22.912 50.6754 22.8267 51.0594 22.656C51.454 22.4747 51.774 22.2347 52.0194 21.936V20.608H49.6194C49.1074 20.608 48.734 20.7093 48.4994 20.912C48.2754 21.104 48.1634 21.4027 48.1634 21.808C48.1634 22.2027 48.2967 22.4853 48.5634 22.656C48.83 22.8267 49.2087 22.912 49.6994 22.912ZM62.6649 24.16C61.5555 24.16 60.6649 23.92 59.9929 23.44C59.3209 22.9493 58.9849 22.2987 58.9849 21.488C58.9849 20.7627 59.1982 20.1493 59.6249 19.648C60.0622 19.1467 60.6542 18.6933 61.4009 18.288C60.9849 17.9147 60.6489 17.5467 60.3929 17.184C60.1475 16.8213 60.0249 16.3947 60.0249 15.904C60.0249 15.232 60.2649 14.672 60.7449 14.224C61.2249 13.7653 61.8862 13.536 62.7289 13.536C63.5609 13.536 64.2115 13.7547 64.6809 14.192C65.1609 14.6187 65.4009 15.1893 65.4009 15.904C65.4009 16.4587 65.2675 16.9333 65.0009 17.328C64.7342 17.7227 64.3075 18.112 63.7209 18.496L66.0889 20.912C66.2595 20.5493 66.3449 20.1227 66.3449 19.632V19.36H67.6729V19.664C67.6729 20.0693 67.6195 20.4693 67.5129 20.864C67.4062 21.248 67.2622 21.584 67.0809 21.872L68.3769 23.184L67.3209 24.144L66.1689 22.992C65.7742 23.3973 65.2782 23.696 64.6809 23.888C64.0835 24.0693 63.4115 24.16 62.6649 24.16ZM62.6329 17.744C63.0915 17.4453 63.4329 17.1787 63.6569 16.944C63.8809 16.7093 63.9929 16.3893 63.9929 15.984C63.9929 15.6107 63.8915 15.3173 63.6889 15.104C63.4969 14.88 63.1769 14.768 62.7289 14.768C62.2702 14.768 61.9395 14.8853 61.7369 15.12C61.5342 15.3547 61.4329 15.6427 61.4329 15.984C61.4329 16.3147 61.5289 16.6133 61.7209 16.88C61.9235 17.136 62.2275 17.424 62.6329 17.744ZM62.6649 22.944C63.7315 22.944 64.5475 22.64 65.1129 22.032L62.4409 19.328C61.8435 19.5733 61.3955 19.8667 61.0969 20.208C60.8089 20.5387 60.6649 20.9547 60.6649 21.456C60.6649 21.9467 60.8515 22.32 61.2249 22.576C61.5982 22.8213 62.0782 22.944 62.6649 22.944ZM73.6799 24V13.696H75.4719L78.7359 20.368L81.9839 13.696H83.7759V24H82.0479V16.528L79.2639 22.224H78.2079L75.4079 16.528V24H73.6799ZM88.1573 24.16C87.6773 24.16 87.2293 24.0747 86.8133 23.904C86.4079 23.7333 86.0826 23.4773 85.8372 23.136C85.5919 22.784 85.4693 22.352 85.4693 21.84C85.4693 21.1147 85.7146 20.5333 86.2053 20.096C86.7066 19.648 87.4746 19.424 88.5093 19.424H90.9413V19.088C90.9413 18.7253 90.8826 18.4373 90.7653 18.224C90.6586 18.0107 90.4559 17.856 90.1573 17.76C89.8693 17.664 89.4426 17.616 88.8773 17.616C87.9813 17.616 87.1439 17.7493 86.3653 18.016V16.72C86.7066 16.5813 87.1226 16.4693 87.6133 16.384C88.1039 16.2987 88.6319 16.256 89.1973 16.256C90.3066 16.256 91.1493 16.48 91.7253 16.928C92.3119 17.376 92.6053 18.1067 92.6053 19.12V24H91.1173L91.0053 23.232C90.6959 23.5307 90.3119 23.76 89.8533 23.92C89.4053 24.08 88.8399 24.16 88.1573 24.16ZM88.6213 22.912C89.1439 22.912 89.5973 22.8267 89.9813 22.656C90.3759 22.4747 90.6959 22.2347 90.9413 21.936V20.608H88.5413C88.0293 20.608 87.6559 20.7093 87.4213 20.912C87.1973 21.104 87.0853 21.4027 87.0853 21.808C87.0853 22.2027 87.2186 22.4853 87.4853 22.656C87.7519 22.8267 88.1306 22.912 88.6213 22.912ZM97.6753 24.16C96.9926 24.16 96.3899 24.0427 95.8673 23.808C95.3446 23.5733 94.9393 23.184 94.6513 22.64C94.3633 22.096 94.2193 21.3653 94.2193 20.448C94.2193 19.5413 94.3739 18.7787 94.6833 18.16C94.9926 17.5307 95.4193 17.056 95.9633 16.736C96.5179 16.416 97.1419 16.256 97.8353 16.256C98.2939 16.256 98.6993 16.3093 99.0513 16.416C99.4139 16.5227 99.7606 16.688 100.091 16.912V13.216H101.835V24H100.347L100.235 23.248C99.8939 23.5573 99.5206 23.7867 99.1153 23.936C98.7099 24.0853 98.2299 24.16 97.6753 24.16ZM98.1393 22.848C98.9179 22.848 99.5686 22.5813 100.091 22.048V18.256C99.5899 17.808 98.9606 17.584 98.2033 17.584C97.4673 17.584 96.9126 17.8293 96.5393 18.32C96.1659 18.8107 95.9793 19.5253 95.9793 20.464C95.9793 21.3707 96.1499 21.9947 96.4913 22.336C96.8433 22.6773 97.3926 22.848 98.1393 22.848ZM104.492 14.832V13.392H106.396V14.832H104.492ZM104.636 24V17.744H103.484L103.644 16.416H106.38V24H104.636ZM108.414 24V16.416H110.014L110.094 17.216C110.436 16.9493 110.841 16.7253 111.31 16.544C111.79 16.352 112.318 16.256 112.894 16.256C113.876 16.256 114.59 16.4853 115.038 16.944C115.486 17.4027 115.71 18.1173 115.71 19.088V24H113.982V19.168C113.982 18.5813 113.86 18.1707 113.614 17.936C113.38 17.7013 112.932 17.584 112.27 17.584C111.876 17.584 111.486 17.664 111.102 17.824C110.729 17.984 110.414 18.192 110.158 18.448V24H108.414ZM119.798 24.16C119.318 24.16 118.87 24.0747 118.454 23.904C118.049 23.7333 117.723 23.4773 117.478 23.136C117.233 22.784 117.11 22.352 117.11 21.84C117.11 21.1147 117.355 20.5333 117.846 20.096C118.347 19.648 119.115 19.424 120.15 19.424H122.582V19.088C122.582 18.7253 122.523 18.4373 122.406 18.224C122.299 18.0107 122.097 17.856 121.798 17.76C121.51 17.664 121.083 17.616 120.518 17.616C119.622 17.616 118.785 17.7493 118.006 18.016V16.72C118.347 16.5813 118.763 16.4693 119.254 16.384C119.745 16.2987 120.273 16.256 120.838 16.256C121.947 16.256 122.79 16.48 123.366 16.928C123.953 17.376 124.246 18.1067 124.246 19.12V24H122.758L122.646 23.232C122.337 23.5307 121.953 23.76 121.494 23.92C121.046 24.08 120.481 24.16 119.798 24.16ZM120.262 22.912C120.785 22.912 121.238 22.8267 121.622 22.656C122.017 22.4747 122.337 22.2347 122.582 21.936V20.608H120.182C119.67 20.608 119.297 20.7093 119.062 20.912C118.838 21.104 118.726 21.4027 118.726 21.808C118.726 22.2027 118.859 22.4853 119.126 22.656C119.393 22.8267 119.771 22.912 120.262 22.912ZM126.18 24V13.216H127.924V17.152C128.255 16.8853 128.649 16.672 129.108 16.512C129.567 16.3413 130.084 16.256 130.66 16.256C131.62 16.256 132.329 16.4853 132.788 16.944C133.247 17.4027 133.476 18.1173 133.476 19.088V24H131.748V19.168C131.748 18.5813 131.62 18.1707 131.364 17.936C131.119 17.7013 130.687 17.584 130.068 17.584C129.684 17.584 129.295 17.6693 128.9 17.84C128.505 18 128.18 18.2133 127.924 18.48V24H126.18ZM138.797 24V23.072L144.333 15.12H139.069V13.696H146.573V14.768L141.085 22.656H146.653V24H138.797ZM148.648 14.832V13.392H150.552V14.832H148.648ZM148.792 24V17.744H147.64L147.8 16.416H150.536V24H148.792ZM154.283 26.816C153.707 26.816 153.216 26.7413 152.811 26.592V25.296C152.992 25.36 153.157 25.4027 153.307 25.424C153.467 25.4453 153.627 25.456 153.787 25.456C154.117 25.456 154.384 25.4027 154.587 25.296C154.789 25.1893 154.965 25.0187 155.115 24.784C155.275 24.56 155.445 24.2667 155.627 23.904L152.251 16.416H154.059L156.491 22.048L158.955 16.416H160.747L157.659 23.568C157.392 24.208 157.104 24.768 156.795 25.248C156.496 25.7387 156.144 26.1227 155.739 26.4C155.344 26.6773 154.859 26.816 154.283 26.816ZM163.454 24.16C162.974 24.16 162.526 24.0747 162.11 23.904C161.705 23.7333 161.379 23.4773 161.134 23.136C160.889 22.784 160.766 22.352 160.766 21.84C160.766 21.1147 161.011 20.5333 161.502 20.096C162.003 19.648 162.771 19.424 163.806 19.424H166.238V19.088C166.238 18.7253 166.179 18.4373 166.062 18.224C165.955 18.0107 165.753 17.856 165.454 17.76C165.166 17.664 164.739 17.616 164.174 17.616C163.278 17.616 162.441 17.7493 161.662 18.016V16.72C162.003 16.5813 162.419 16.4693 162.91 16.384C163.401 16.2987 163.929 16.256 164.494 16.256C165.603 16.256 166.446 16.48 167.022 16.928C167.609 17.376 167.902 18.1067 167.902 19.12V24H166.414L166.302 23.232C165.993 23.5307 165.609 23.76 165.15 23.92C164.702 24.08 164.137 24.16 163.454 24.16ZM163.918 22.912C164.441 22.912 164.894 22.8267 165.278 22.656C165.673 22.4747 165.993 22.2347 166.238 21.936V20.608H163.838C163.326 20.608 162.953 20.7093 162.718 20.912C162.494 21.104 162.382 21.4027 162.382 21.808C162.382 22.2027 162.515 22.4853 162.782 22.656C163.049 22.8267 163.427 22.912 163.918 22.912ZM169.836 24V16.416H171.436L171.532 17.296C171.895 17.0613 172.327 16.848 172.828 16.656C173.329 16.464 173.825 16.3307 174.316 16.256V17.584C174.017 17.6373 173.692 17.7173 173.34 17.824C172.999 17.92 172.673 18.032 172.364 18.16C172.055 18.2773 171.793 18.4 171.58 18.528V24H169.836ZM177.47 24.16C176.99 24.16 176.542 24.0747 176.126 23.904C175.72 23.7333 175.395 23.4773 175.15 23.136C174.904 22.784 174.782 22.352 174.782 21.84C174.782 21.1147 175.027 20.5333 175.518 20.096C176.019 19.648 176.787 19.424 177.822 19.424H180.254V19.088C180.254 18.7253 180.195 18.4373 180.078 18.224C179.971 18.0107 179.768 17.856 179.47 17.76C179.182 17.664 178.755 17.616 178.19 17.616C177.294 17.616 176.456 17.7493 175.678 18.016V16.72C176.019 16.5813 176.435 16.4693 176.926 16.384C177.416 16.2987 177.944 16.256 178.51 16.256C179.619 16.256 180.462 16.48 181.038 16.928C181.624 17.376 181.918 18.1067 181.918 19.12V24H180.43L180.318 23.232C180.008 23.5307 179.624 23.76 179.166 23.92C178.718 24.08 178.152 24.16 177.47 24.16ZM177.934 22.912C178.456 22.912 178.91 22.8267 179.294 22.656C179.688 22.4747 180.008 22.2347 180.254 21.936V20.608H177.854C177.342 20.608 176.968 20.7093 176.734 20.912C176.51 21.104 176.398 21.4027 176.398 21.808C176.398 22.2027 176.531 22.4853 176.798 22.656C177.064 22.8267 177.443 22.912 177.934 22.912ZM183.852 24V13.216H185.596V17.152C185.926 16.8853 186.321 16.672 186.78 16.512C187.238 16.3413 187.756 16.256 188.332 16.256C189.292 16.256 190.001 16.4853 190.46 16.944C190.918 17.4027 191.148 18.1173 191.148 19.088V24H189.42V19.168C189.42 18.5813 189.292 18.1707 189.036 17.936C188.79 17.7013 188.358 17.584 187.74 17.584C187.356 17.584 186.966 17.6693 186.572 17.84C186.177 18 185.852 18.2133 185.596 18.48V24H183.852Z" fill="#4B465C"/>
</svg>
