<svg width="35" height="35" viewBox="0 0 35 35" fill="none" xmlns="http://www.w3.org/2000/svg">
<circle cx="17.5" cy="17.5" r="17.5" fill="#F2F2F2"/>
<path d="M7.00046 20.9389C7.20878 20.5845 7.68866 20.4508 8.1558 20.6232C8.27589 20.6673 8.39142 20.7269 8.50241 20.791C12.5484 23.1245 16.5939 25.4583 20.6367 27.7977C20.8036 27.8946 20.9251 27.9046 21.0984 27.8032C23.2344 26.5527 25.3764 25.3132 27.5147 24.0674C27.8626 23.865 28.2179 23.7977 28.6022 23.9441C28.7628 24.0051 28.9074 24.086 28.9288 24.2753C28.9511 24.4745 28.8051 24.5645 28.6591 24.6492C26.5508 25.8755 24.4421 27.1013 22.3338 28.3276C22.1173 28.4536 21.899 28.576 21.6852 28.7061C21.1521 29.0299 20.6231 29.0267 20.0836 28.7147C15.8357 26.2589 11.5859 23.8063 7.33887 21.3491C7.21379 21.2768 7.11326 21.1626 7.00091 21.068C7.00046 21.0248 7.00046 20.9816 7.00046 20.9389Z" fill="#931A00"/>
<path d="M7.00046 16.3827C7.25973 16.0457 7.71595 15.9283 8.15762 16.0939C8.28407 16.1412 8.40507 16.2062 8.52242 16.274C12.5752 18.612 16.6276 20.9504 20.6777 23.2939C20.8196 23.3757 20.9192 23.3785 21.0625 23.2948C23.2121 22.0389 25.3664 20.7908 27.5187 19.539C27.8667 19.3366 28.2242 19.277 28.6072 19.4253C28.7682 19.4876 28.9124 19.5676 28.9288 19.7596C28.9452 19.9484 28.8046 20.0371 28.6664 20.1176C27.4173 20.8449 26.1678 21.5704 24.9183 22.2968C23.8298 22.9295 22.7404 23.5613 21.6533 24.1963C21.1371 24.4979 20.6253 24.4997 20.1077 24.2008C15.8457 21.7382 11.5832 19.2779 7.32341 16.8116C7.19923 16.7398 7.10735 16.6129 7.00046 16.5119C7.00046 16.4687 7.00046 16.4255 7.00046 16.3827Z" fill="#931A00"/>
<path d="M7.00045 14.1051C7.22334 13.7384 7.79419 13.7011 8.14488 13.8371C8.26406 13.8835 8.3805 13.9408 8.49149 14.005C12.5379 16.3389 16.5839 18.6728 20.6263 21.013C20.7973 21.1122 20.9174 21.1122 21.087 21.0126C23.2235 19.7631 25.3654 18.5227 27.5042 17.2768C27.8371 17.083 28.1797 17.0116 28.5513 17.1431C28.7246 17.2045 28.8961 17.2782 28.9179 17.4888C28.9393 17.698 28.771 17.784 28.6227 17.8704C27.2072 18.6946 25.7903 19.517 24.3738 20.3398C23.4769 20.8611 22.5762 21.3755 21.6847 21.9055C21.1402 22.2293 20.6117 22.2352 20.064 21.9186C15.8152 19.4642 11.5641 17.013 7.31613 14.5563C7.19695 14.4871 7.10507 14.3711 7 14.277C7.00045 14.2197 7.00045 14.1624 7.00045 14.1051Z" fill="#931A00"/>
<path d="M7.00045 18.6178C7.33842 18.2362 7.87834 18.1802 8.40552 18.4818C9.19425 18.9326 9.97979 19.3893 10.7667 19.8437C14.0626 21.7473 17.359 23.649 20.6513 25.5585C20.8123 25.6518 20.9187 25.6409 21.072 25.5513C23.2149 24.2977 25.3623 23.0523 27.5069 21.8018C27.8476 21.6031 28.1997 21.5444 28.5745 21.6781C28.74 21.7373 28.9006 21.8159 28.9188 22.0184C28.9365 22.2176 28.7823 22.304 28.6391 22.3872C27.4892 23.0568 26.3384 23.725 25.188 24.3936C24.0004 25.0841 22.8132 25.7746 21.626 26.4651C21.1257 26.7562 20.6212 26.7635 20.1204 26.4746C15.8498 24.0125 11.5809 21.5485 7.31294 19.0822C7.19877 19.0163 7.10371 18.9167 7 18.833C7.00045 18.7611 7.00045 18.6897 7.00045 18.6178Z" fill="#931A00"/>
<path d="M15.2439 7.00055C15.7311 6.99054 16.1914 7.1179 16.6244 7.36807C20.5326 9.62828 24.4425 11.8853 28.3516 14.1446C28.469 14.2124 28.5868 14.2838 28.6909 14.3697C29.1026 14.7095 29.103 15.1826 28.6923 15.5237C28.5936 15.6056 28.4835 15.6752 28.3725 15.7398C26.3134 16.9383 24.2565 18.141 22.1919 19.33C21.2808 19.8549 20.3447 19.8549 19.4345 19.3318C15.5141 17.0784 11.5996 14.8155 7.68366 12.5535C7.54811 12.4752 7.41347 12.387 7.30158 12.2792C6.94133 11.9326 6.96089 11.5041 7.3457 11.1848C7.44986 11.0984 7.56676 11.0261 7.68412 10.9578C9.74236 9.75791 11.8024 8.56026 13.8602 7.35943C14.286 7.11199 14.7426 6.99509 15.2439 7.00055ZM9.9525 12.6163C9.9898 12.6426 10.0116 12.6608 10.0362 12.6749C13.0587 14.4211 16.0808 16.1678 19.1066 17.9086C19.1675 17.9436 19.2812 17.9358 19.349 17.9035C20.281 17.4569 21.1944 17.4373 22.0795 18.0159C22.1901 18.0882 22.2569 18.0559 22.3461 18.0041C23.44 17.3664 24.5349 16.7305 25.6293 16.0941C25.7648 16.0154 25.8995 15.9354 26.055 15.8439C25.6447 15.6479 25.2094 15.4655 25.1958 14.9615C25.1817 14.4393 25.6274 14.2528 26.0427 14.0477C25.2754 13.6042 24.5331 13.1753 23.7912 12.7463C21.4932 11.4195 19.1948 10.0927 16.8969 8.76541C16.7982 8.70809 16.7231 8.66079 16.5898 8.7372C15.6988 9.24665 14.794 9.24437 13.8961 8.75312C13.782 8.69081 13.7115 8.69445 13.6082 8.75449C12.441 9.43632 11.2711 10.1145 10.1026 10.7941C10.053 10.8227 10.008 10.8596 9.9516 10.8987C10.9441 11.4591 10.9432 11.9476 9.9525 12.6163Z" fill="#931A00"/>
<path d="M17.8821 11.1094C19.047 11.1271 20.044 11.3059 20.9351 11.8799C21.0666 11.9645 21.1921 12.0632 21.3067 12.1697C22.1291 12.9329 22.0964 13.9163 21.2262 14.6273C20.634 15.1112 19.9417 15.3705 19.1976 15.4933C17.989 15.693 16.7995 15.6325 15.6651 15.1276C15.3681 14.9952 15.0811 14.8183 14.8273 14.615C13.9062 13.8772 13.9203 12.7992 14.8423 12.0609C15.4759 11.5538 16.2173 11.3086 17.0042 11.1876C17.3358 11.1371 17.6738 11.1271 17.8821 11.1094ZM20.0986 12.3921C19.9062 12.2861 19.7625 12.0741 19.5487 12.2106C19.3013 12.368 19.0684 12.3275 18.8109 12.2806C18.3993 12.2051 17.9967 12.2429 17.6365 12.4831C17.3817 12.6527 17.3331 12.8597 17.4841 13.1285C17.5541 13.2527 17.6506 13.3623 17.7165 13.4883C17.7629 13.577 17.8316 13.7203 17.7952 13.7712C17.7356 13.8545 17.6014 13.9186 17.4936 13.9272C17.1511 13.9554 16.8678 13.7908 16.6854 13.5238C16.5234 13.2872 16.362 13.2604 16.1327 13.3746C16.0945 13.3937 16.0513 13.4019 16.0113 13.4164C15.8088 13.4901 15.7929 13.532 15.9435 13.6975C16.0472 13.8112 16.1755 13.9031 16.3042 14.0146C16.1532 14.126 16.0467 14.2042 15.913 14.3029C16.1282 14.4112 16.286 14.6295 16.5171 14.4744C16.7509 14.318 16.971 14.3366 17.2276 14.3898C17.6633 14.4803 18.0991 14.4581 18.488 14.202C18.7904 14.0023 18.8414 13.758 18.6544 13.4496C18.573 13.3154 18.4734 13.1913 18.3979 13.0544C18.3097 12.8947 18.3542 12.7905 18.5303 12.7528C18.6235 12.7332 18.7445 12.7246 18.8214 12.7678C19.0229 12.8815 19.2076 13.0257 19.3986 13.1581C19.4605 13.2008 19.531 13.2891 19.5815 13.2791C19.778 13.2395 19.9676 13.1681 20.2069 13.0944C20.04 12.9134 19.9167 12.7792 19.7848 12.6359C19.8867 12.5563 19.979 12.4849 20.0986 12.3921Z" fill="#931A00"/>
<path d="M14.0249 11.6599C13.7115 11.6571 13.4131 11.5994 13.1588 11.4029C12.875 11.1841 12.8768 10.893 13.1579 10.6687C13.5836 10.3294 14.4693 10.3339 14.8918 10.6774C15.1579 10.8934 15.1602 11.1886 14.8905 11.401C14.6371 11.6007 14.3383 11.658 14.0249 11.6599Z" fill="#931A00"/>
<path d="M22.0063 15.0459C22.3324 15.0473 22.6249 15.1032 22.8769 15.2902C23.1739 15.5103 23.1757 15.8164 22.886 16.0402C22.4512 16.3759 21.5965 16.3718 21.1662 16.032C20.8964 15.8192 20.8901 15.523 21.1589 15.3074C21.4109 15.105 21.7115 15.0495 22.0063 15.0459Z" fill="#931A00"/>
</svg>
