<svg width="20" height="22" viewBox="0 0 20 22" fill="none" xmlns="http://www.w3.org/2000/svg">
<path d="M4 10C4 7.17157 4 5.75736 4.87868 4.87868C5.75736 4 7.17157 4 10 4H13C15.8284 4 17.2426 4 18.1213 4.87868C19 5.75736 19 7.17157 19 10V15C19 17.8284 19 19.2426 18.1213 20.1213C17.2426 21 15.8284 21 13 21H10C7.17157 21 5.75736 21 4.87868 20.1213C4 19.2426 4 17.8284 4 15V10Z" stroke="#B2AAAA" stroke-width="1.5"/>
<path d="M4 18C2.34315 18 1 16.6569 1 15V9C1 5.22876 1 3.34315 2.17157 2.17157C3.34315 1 5.22876 1 9 1H13C14.6569 1 16 2.34315 16 4" stroke="#B2AAAA" stroke-width="1.5"/>
</svg>
