<svg width="18" height="18" viewBox="0 0 18 18" fill="none" xmlns="http://www.w3.org/2000/svg">
<path d="M0.0251065 17.6629C0.110957 17.9209 0.400701 18.0606 0.658252 17.9746L5.77707 16.2438C5.79853 16.2331 5.82 16.2331 5.84146 16.2223C5.84146 16.2223 5.84146 16.2223 5.85219 16.2223C5.87365 16.2116 5.90585 16.2008 5.92731 16.1901C5.93804 16.1901 5.93804 16.1793 5.94877 16.1793C5.97023 16.1578 5.9917 16.1471 6.02389 16.1256L15.6177 6.51473L17.1522 4.97742C17.721 4.40765 18 3.66588 18 2.91335C18 2.16083 17.721 1.41905 17.1522 0.84928C16.5835 0.27951 15.843 0 15.0918 0C14.3514 0 13.6002 0.27951 13.0314 0.84928L11.4968 2.38658L1.91381 11.9867C1.91381 11.9867 1.91381 11.9867 1.91381 11.9974C1.89235 12.0189 1.87089 12.0404 1.86016 12.0727C1.84942 12.0942 1.82796 12.1264 1.81723 12.1479C1.81723 12.1587 1.81723 12.1587 1.8065 12.1694C1.8065 12.1802 1.79577 12.1802 1.79577 12.1909L0.0680315 17.3189C-0.00708741 17.4156 -0.0178186 17.5339 0.0251065 17.6629ZM2.94401 12.3414L11.8295 3.44012L14.5338 6.14922L5.6483 15.0505L2.94401 12.3414ZM16.4225 4.25715L15.2421 5.43969L12.5378 2.7306L13.7182 1.54805C14.0938 1.17179 14.5767 0.989035 15.0704 0.989035C15.564 0.989035 16.0469 1.17179 16.4225 1.54805C16.7981 1.92432 16.9805 2.40808 16.9805 2.9026C16.9805 3.38637 16.7981 3.88089 16.4225 4.25715ZM1.2914 16.7061L2.45038 13.2552L4.72541 15.5343L1.2914 16.7061Z" fill="#00936D"/>
</svg>
