<svg width="26" height="22" viewBox="0 0 26 22" fill="none" xmlns="http://www.w3.org/2000/svg">
<path d="M13.65 15.8889H2.11343L9.49619 8.60078L12.381 10.7922L15.2657 8.59956L17.2504 10.5588C17.6469 10.3515 18.0633 10.1836 18.4934 10.0577L16.255 7.84789L23.5238 2.32222V10.5356C23.9638 10.7515 24.3789 11.0138 24.7619 11.3178V1.83333C24.7606 1.3475 24.5645 0.881934 24.2165 0.538396C23.8685 0.194859 23.3969 0.0012904 22.9048 0H1.85714C1.365 0.0012904 0.893387 0.194859 0.545388 0.538396C0.197389 0.881934 0.00130716 1.3475 0 1.83333V15.2778C0 15.764 0.195663 16.2303 0.543945 16.5741C0.892226 16.918 1.3646 17.1111 1.85714 17.1111H13.65C13.6314 16.9094 13.619 16.7066 13.619 16.5C13.619 16.2934 13.6314 16.0906 13.65 15.8889ZM1.2381 15.0248V2.32344L8.50695 7.84789L1.2381 15.0248ZM22.9048 1.22222C22.9159 1.22222 22.9246 1.22833 22.9357 1.22833L12.381 9.25222L1.82619 1.22833C1.83733 1.22833 1.846 1.22222 1.85714 1.22222H22.9048ZM20.4286 11C18.9514 11.0016 17.5353 11.5816 16.4908 12.6127C15.4463 13.6438 14.8588 15.0418 14.8571 16.5C14.866 16.7047 14.8866 16.9087 14.919 17.1111C15.0682 18.452 15.7124 19.6918 16.7287 20.5936C17.7449 21.4954 19.0621 21.996 20.4286 22H21.0476V20.7778H20.4286C19.3892 20.7749 18.3856 20.4028 17.6013 19.7296C16.817 19.0563 16.3043 18.1268 16.1571 17.1111C16.1215 16.9092 16.1008 16.7049 16.0952 16.5C16.0947 15.6578 16.3461 14.8341 16.818 14.1324C17.2899 13.4308 17.9612 12.8823 18.7478 12.5559C19.5343 12.2295 20.4009 12.1397 21.2389 12.2978C22.0769 12.4559 22.849 12.8548 23.4582 13.4444H22.2857V14.0714C21.753 13.6672 21.1005 13.4469 20.4286 13.4444C19.9212 13.443 19.4213 13.5647 18.9728 13.7989C18.5243 14.033 18.141 14.3724 17.8566 14.7872C17.5722 15.2019 17.3954 15.6793 17.3418 16.1774C17.2883 16.6754 17.3596 17.1789 17.5494 17.6433C17.7392 18.1078 18.0418 18.5191 18.4305 18.8409C18.8192 19.1628 19.2821 19.3855 19.7785 19.4892C20.2748 19.593 20.7894 19.5747 21.2769 19.4361C21.7644 19.2974 22.2099 19.0425 22.5742 18.6939C22.7874 19.0312 23.1062 19.2908 23.4823 19.4334C23.8584 19.5759 24.2712 19.5936 24.6584 19.4838C25.0455 19.374 25.3859 19.1426 25.628 18.8248C25.8701 18.5069 26.0007 18.1199 26 17.7222V16.5C25.9823 15.0467 25.3897 13.6579 24.3486 12.6302C23.3076 11.6025 21.9007 11.0174 20.4286 11ZM20.4286 18.3333C20.0458 18.3321 19.6727 18.214 19.3606 17.9952C19.0485 17.7763 18.8126 17.4675 18.6853 17.1111C18.612 16.9154 18.5735 16.7087 18.5714 16.5C18.5714 16.0138 18.7671 15.5475 19.1154 15.2036C19.4637 14.8598 19.936 14.6667 20.4286 14.6667C20.9211 14.6667 21.3935 14.8598 21.7418 15.2036C22.09 15.5475 22.2857 16.0138 22.2857 16.5C22.2837 16.7087 22.2451 16.9154 22.1718 17.1111C22.0445 17.4675 21.8087 17.7763 21.4966 17.9952C21.1844 18.214 20.8114 18.3321 20.4286 18.3333ZM24.7619 17.7222C24.7619 17.8843 24.6967 18.0397 24.5806 18.1543C24.4645 18.2689 24.307 18.3333 24.1429 18.3333C23.9787 18.3333 23.8212 18.2689 23.7051 18.1543C23.589 18.0397 23.5238 17.8843 23.5238 17.7222V13.5092C24.3017 14.3177 24.7436 15.3851 24.7619 16.5V17.7222Z" fill="#515151"/>
</svg>
