<svg width="154" height="196" viewBox="0 0 154 196" fill="none" xmlns="http://www.w3.org/2000/svg">
<path d="M2.80276 184.766C1.53607 185.706 0.389903 186.835 0.478448 188.635C0.667836 192.462 7.23987 193.382 9.9282 193.749C14.69 194.398 19.4591 194.297 24.2455 194.479C41.6225 195.136 59.0192 195.237 76.406 194.851C85.3343 194.651 94.2577 194.324 103.179 193.877C111.015 193.485 119.742 193.987 127.165 190.959C131.619 189.144 135.896 186.884 140.073 184.459C143.531 182.449 148.015 180.533 150.063 176.777C153.654 170.193 141.066 168.892 137.603 168.169C123.982 165.323 109.935 164.816 96.0803 164.393C81.9819 163.963 67.8417 164.229 53.8024 165.712C36.2015 167.571 17.3808 173.526 3.00199 184.621C2.93558 184.67 2.86917 184.719 2.80276 184.766Z" fill="#E5E5E5"/>
<path d="M139.96 108.947H39.1064V178.081H139.96V108.947Z" fill="#E5E5E5"/>
<path d="M139.96 108.947H39.1064L52.4546 93.5157C53.0745 92.7999 53.9747 92.3867 54.9216 92.3867H152.432C153.158 92.3867 153.546 93.2377 153.072 93.7862L139.96 108.947Z" fill="white"/>
<path d="M140.009 108.506C136.679 108.506 133.348 108.506 130.018 108.506C121.978 108.506 113.935 108.506 105.894 108.506C96.2011 108.506 86.5079 108.506 76.8146 108.506C68.3979 108.506 59.9812 108.506 51.5645 108.506C48.8024 108.506 46.0402 108.506 43.2781 108.506C42.4173 108.506 41.5539 108.506 40.6931 108.506C40.3241 108.506 39.6846 108.379 39.3329 108.506C39.2862 108.524 39.2075 108.506 39.1558 108.506C39.3059 108.716 39.4534 108.922 39.6035 109.129C42.8846 105.336 46.1632 101.546 49.4443 97.7531C50.6077 96.4077 51.717 94.9812 52.9492 93.6997C53.8494 92.7626 54.8234 92.829 55.9548 92.829C64.2879 92.829 72.6235 92.829 80.9566 92.829C94.1056 92.829 107.252 92.829 120.401 92.829C130.045 92.829 139.689 92.829 149.333 92.829C150.197 92.829 151.171 92.7036 152.026 92.829C153.256 93.011 152.117 94.1326 151.648 94.6762C147.894 99.0149 144.141 103.354 140.39 107.69C140.08 108.046 139.773 108.406 139.463 108.762C138.971 109.33 140.1 109.539 140.459 109.124C143.836 105.22 147.213 101.315 150.59 97.4112C151.37 96.511 152.147 95.6108 152.927 94.7106C153.315 94.2629 153.908 93.7514 153.874 93.107C153.81 91.8722 152.558 91.9411 151.667 91.9411C143.243 91.9411 134.822 91.9411 126.398 91.9411C112.865 91.9411 99.3297 91.9411 85.7971 91.9411C76.276 91.9411 66.7574 91.9411 57.2363 91.9411C56.5156 91.9411 55.79 91.9165 55.0718 91.9411C53.2542 92.0051 52.2163 93.0282 51.1242 94.2925C47.2872 98.7296 43.4478 103.164 39.6109 107.601C39.2764 107.987 38.9419 108.374 38.6073 108.762C38.2925 109.126 38.718 109.385 39.055 109.385C42.3853 109.385 45.7156 109.385 49.0458 109.385C57.0862 109.385 65.1291 109.385 73.1695 109.385C82.8628 109.385 92.556 109.385 102.249 109.385C110.666 109.385 119.083 109.385 127.499 109.385C130.262 109.385 133.024 109.385 135.786 109.385C137.084 109.385 138.435 109.493 139.731 109.385C139.79 109.38 139.849 109.385 139.908 109.385C140.592 109.389 140.816 108.506 140.009 108.506Z" fill="#00936C"/>
<path d="M39.254 108.946L14.4785 118.593V187.725L39.254 178.437V108.946Z" fill="#F7F7F7"/>
<path d="M39.0449 108.792C31.8161 111.605 24.5899 114.419 17.3611 117.233C16.3306 117.634 15.3 118.035 14.2694 118.436C13.4873 118.741 14.2202 118.935 14.6925 118.75C21.9212 115.937 29.1475 113.123 36.3762 110.309C37.4068 109.908 38.4374 109.507 39.4679 109.106C40.2501 108.801 39.5171 108.607 39.0449 108.792Z" fill="#00936C"/>
<path d="M39.8491 178.277C39.8491 170.793 39.8491 163.306 39.8491 155.821C39.8491 143.981 39.8491 132.14 39.8491 120.3C39.8491 117.56 39.8491 114.817 39.8491 112.078C39.8491 111.755 38.6611 111.964 38.6611 112.395C38.6611 119.879 38.6611 127.366 38.6611 134.851C38.6611 146.691 38.6611 158.532 38.6611 170.372C38.6611 173.112 38.6611 175.855 38.6611 178.595C38.6611 178.919 39.8491 178.71 39.8491 178.277Z" fill="#00936C"/>
<path d="M39.2543 108.946L14.4789 118.593L2.60395 107.03C1.46516 105.921 1.86607 104.005 3.35413 103.447L23.6605 95.8343C24.4377 95.544 25.3109 95.7211 25.9135 96.2918L39.2543 108.946Z" fill="#F2F2F2"/>
<path d="M38.6143 109.197L14.4784 118.593L4.38911 108.582C3.25032 107.473 3.65124 105.557 5.13929 104.999C7.48082 104.13 9.81989 103.262 12.1614 102.392C15.595 101.117 19.7443 98.5029 23.5321 99.3121C26.2549 99.8951 38.3315 108.937 38.6143 109.197Z" fill="white"/>
<path d="M39.0032 108.642C31.7744 111.455 24.5482 114.269 17.3194 117.083C16.2888 117.484 15.2583 117.885 14.2277 118.286C14.4933 118.305 14.759 118.323 15.0271 118.342C11.9919 115.388 8.95927 112.434 5.92413 109.48C5.21823 108.792 4.50987 108.103 3.80397 107.414C3.32927 106.952 2.78815 106.519 2.6086 105.85C2.06503 103.826 4.73123 103.329 6.08401 102.822C10.8974 101.017 15.7108 99.214 20.5243 97.4086C21.6311 96.993 23.7144 95.7189 24.9245 96.2674C25.4164 96.4888 25.7976 96.9462 26.1838 97.3127C26.8774 97.9719 27.571 98.6286 28.2646 99.2878C31.7449 102.591 35.2277 105.894 38.708 109.197C39.0597 109.53 40.1838 109.06 39.8025 108.698C36.5264 105.589 33.2502 102.48 29.974 99.3714C28.8131 98.2695 27.6915 97.0766 26.4666 96.0436C24.9515 94.767 23.3799 95.5394 21.8008 96.1321C16.7291 98.0334 11.6574 99.9346 6.5833 101.836C5.32399 102.308 3.85807 102.657 2.68977 103.344C1.32223 104.145 0.918862 105.924 1.95435 107.163C2.27656 107.55 2.67747 107.882 3.03657 108.233C6.66938 111.77 10.3022 115.307 13.9326 118.844C14.1465 119.053 14.4761 118.999 14.7319 118.901C21.9607 116.087 29.1869 113.273 36.4157 110.459C37.4463 110.058 38.4768 109.657 39.5074 109.256C40.2699 108.956 39.5886 108.415 39.0032 108.642Z" fill="#00936C"/>
<path d="M115.182 118.593H14.0166V187.727H115.182V118.593Z" fill="#F2F2F2"/>
<path d="M115.185 120.025C111.941 124.863 108.202 131.369 105.878 135.523C104.471 138.039 101.817 139.598 98.9369 139.603L14.0195 139.79V187.723H115.185V120.025Z" fill="white"/>
<path d="M139.959 108.947L115.184 118.593V187.725L139.959 178.438V108.947Z" fill="#E5E5E5"/>
<path d="M139.959 131.866L131.732 135.169C128.903 136.303 125.666 135.4 123.834 132.965L115.184 121.459V187.728L139.959 178.44V131.866Z" fill="#F2F2F2"/>
<path d="M114.589 121.704C114.589 128.877 114.589 136.049 114.589 143.221C114.589 154.641 114.589 166.063 114.589 177.483C114.589 180.09 114.589 182.695 114.589 185.302C114.589 185.558 115.777 185.368 115.777 184.985C115.777 177.813 115.777 170.64 115.777 163.468C115.777 152.048 115.777 140.626 115.777 129.206C115.777 126.599 115.777 123.994 115.777 121.387C115.777 121.131 114.589 121.321 114.589 121.704Z" fill="#00936C"/>
<path d="M13.7735 118.883C18.9657 118.883 24.1578 118.883 29.35 118.883C40.8142 118.883 52.2783 118.883 63.74 118.883C75.2731 118.883 86.8061 118.883 98.3391 118.883C102.242 118.883 106.148 118.883 110.052 118.883C111.643 118.883 113.325 119.041 114.914 118.883C115.802 118.795 116.725 118.271 117.544 117.951C119.942 117.017 122.342 116.084 124.74 115.15C129.576 113.268 134.411 111.384 139.247 109.503C139.557 109.382 139.867 109.262 140.179 109.141C140.959 108.838 140.238 108.563 139.739 108.757C136.027 110.201 132.316 111.647 128.604 113.091C124.182 114.813 119.624 116.348 115.288 118.276C114.7 118.537 115.342 118.291 115.364 118.303C115.261 118.244 114.939 118.303 114.823 118.303C113.95 118.303 113.077 118.303 112.204 118.303C108.743 118.303 105.28 118.303 101.819 118.303C90.6824 118.303 79.5454 118.303 68.4083 118.303C56.6933 118.303 44.9807 118.303 33.2657 118.303C27.0356 118.303 20.771 118.121 14.5433 118.303C14.4498 118.305 14.3564 118.303 14.2604 118.303C13.8743 118.303 12.9815 118.883 13.7735 118.883Z" fill="#00936C"/>
<path d="M139.357 130.478C139.357 135.899 139.357 141.32 139.357 146.74C139.357 155.337 139.357 163.931 139.357 172.527C139.357 174.512 139.357 176.497 139.357 178.482C139.47 178.349 139.583 178.216 139.694 178.083C135.945 179.487 132.2 180.892 128.451 182.299C124.044 183.952 119.523 185.432 115.189 187.27C114.677 187.486 115.317 187.309 115.155 187.287C114.97 187.262 114.768 187.287 114.584 187.287C113.694 187.287 112.803 187.287 111.913 187.287C108.425 187.287 104.937 187.287 101.45 187.287C90.2881 187.287 79.1289 187.287 67.9673 187.287C56.3015 187.287 44.6381 187.287 32.9723 187.287C28.8008 187.287 24.6293 187.287 20.4579 187.287C19.1371 187.287 17.8163 187.287 16.4955 187.287C15.824 187.287 15.0099 187.161 14.3458 187.287C14.2597 187.304 14.1539 187.287 14.0629 187.287C14.2474 187.417 14.4294 187.55 14.6139 187.68C14.6139 181.996 14.6139 176.312 14.6139 170.626C14.6139 161.56 14.6139 152.496 14.6139 143.43C14.6139 141.342 14.6139 139.256 14.6139 137.168C14.6139 136.543 13.4111 136.718 13.4111 137.256C13.4111 142.94 13.4111 148.625 13.4111 154.311C13.4111 163.377 13.4111 172.441 13.4111 181.507C13.4111 183.595 13.4111 185.681 13.4111 187.769C13.4111 188.079 13.6989 188.162 13.9621 188.162C19.1543 188.162 24.3465 188.162 29.5387 188.162C40.9192 188.162 52.3022 188.162 63.6827 188.162C75.2354 188.162 86.7881 188.162 98.3408 188.162C102.269 188.162 106.199 188.162 110.127 188.162C111.726 188.162 113.499 188.379 115.088 188.162C115.912 188.049 116.771 187.58 117.54 187.292C119.911 186.404 122.28 185.513 124.651 184.626C129.526 182.798 134.401 180.971 139.276 179.143C139.591 179.025 139.903 178.907 140.218 178.789C140.36 178.735 140.555 178.558 140.555 178.391C140.555 172.97 140.555 167.549 140.555 162.128C140.555 153.531 140.555 144.938 140.555 136.341C140.555 134.356 140.555 132.372 140.555 130.387C140.562 129.764 139.357 129.939 139.357 130.478Z" fill="#00936C"/>
<path d="M115.184 118.593H14.0164L0.678032 134.015C0.291876 134.46 0.609162 135.154 1.19946 135.154H100.545C100.744 135.154 100.936 135.068 101.066 134.915L115.184 118.593Z" fill="#F2F2F2"/>
<path d="M115.185 118.593H15.0156C13.4734 121.572 11.9928 124.59 10.3645 127.522C9.36346 129.324 9.17161 132.264 12.0961 132.264H97.9997C99.6354 132.264 101.21 131.644 102.402 130.527L115.185 118.593Z" fill="white"/>
<path d="M115.401 118.207C110.57 118.207 105.74 118.207 100.909 118.207C90.0672 118.207 79.2229 118.207 68.381 118.207C56.998 118.207 45.615 118.207 34.232 118.207C27.783 118.207 21.3315 118.207 14.8824 118.207C14.393 118.207 13.9207 118.148 13.5124 118.475C13.141 118.77 12.8336 119.259 12.5262 119.616C11.8325 120.418 11.1389 121.222 10.4429 122.024C7.13965 125.844 3.83642 129.661 0.533185 133.481C-0.172717 134.295 -0.34981 135.436 1.08413 135.54C1.63262 135.579 2.19833 135.54 2.74928 135.54C5.64422 135.54 8.54162 135.54 11.4366 135.54C21.6931 135.54 31.9471 135.54 42.2036 135.54C53.8178 135.54 65.4295 135.54 77.0437 135.54C84.3044 135.54 91.5676 135.54 98.8283 135.54C99.3104 135.54 99.8023 135.569 100.284 135.54C101.453 135.466 101.984 134.553 102.687 133.739C106.155 129.73 109.623 125.718 113.091 121.709C113.95 120.716 114.811 119.722 115.669 118.728C116.144 118.18 115.003 118.101 114.695 118.455C111.404 122.26 108.111 126.068 104.82 129.873C103.438 131.471 102.1 133.129 100.661 134.681C100.471 134.885 100.946 134.716 100.555 134.77C100.279 134.809 99.9695 134.77 99.6941 134.77C91.2454 134.77 82.7942 134.77 74.3455 134.77C60.958 134.77 47.5679 134.77 34.1804 134.77C24.3199 134.77 14.4594 134.77 4.59889 134.77C3.71098 134.77 2.71484 134.898 1.83431 134.77C1.73347 134.755 1.50964 134.821 1.41864 134.77C0.648787 134.32 1.81463 133.397 2.07781 133.095C5.88525 128.692 9.6927 124.292 13.4977 119.889C13.8322 119.503 14.1667 119.117 14.5012 118.731C14.2651 118.814 14.0314 118.895 13.7953 118.979C17.1526 118.979 20.5075 118.979 23.8649 118.979C31.9249 118.979 39.9826 118.979 48.0426 118.979C57.7507 118.979 67.4586 118.979 77.1667 118.979C85.6006 118.979 94.0345 118.979 102.468 118.979C106.551 118.979 110.708 119.205 114.786 118.979C114.845 118.977 114.904 118.979 114.963 118.979C115.475 118.977 116.203 118.207 115.401 118.207Z" fill="#00936C"/>
<path d="M139.96 108.947L115.185 118.593L129.015 131.959C129.315 132.249 129.758 132.34 130.149 132.195L152.698 123.741C153.439 123.463 153.643 122.511 153.082 121.956L139.96 108.947Z" fill="#F2F2F2"/>
<path d="M139.153 109.262L115.484 118.711L127.927 131.282C128.198 131.555 128.594 131.642 128.948 131.504C132.06 130.284 135.171 129.064 138.285 127.844C140.169 127.106 142.05 126.368 143.934 125.63C145.779 124.907 148.359 124.034 148.135 121.542C148.032 120.411 147.262 119.496 146.517 118.699C145.673 117.804 139.566 109.69 139.153 109.262Z" fill="white"/>
<path d="M139.692 108.575C132.463 111.389 125.237 114.203 118.008 117.017C116.977 117.418 115.947 117.818 114.916 118.219C114.592 118.345 114.481 118.706 114.729 118.945C118.136 122.236 121.542 125.529 124.949 128.82C126.125 129.954 127.259 131.317 128.56 132.31C129.767 133.233 131.632 132.111 132.854 131.651C138.253 129.627 143.652 127.603 149.051 125.578C150.332 125.099 151.746 124.723 152.971 124.11C155.332 122.927 153.033 121.095 151.985 120.057C148.158 116.264 144.331 112.471 140.506 108.679C140.107 108.283 138.986 108.782 139.421 109.215C142.592 112.358 145.762 115.502 148.932 118.642C149.774 119.476 150.615 120.31 151.456 121.144C151.781 121.466 152.29 121.818 152.531 122.209C153.397 123.608 150.302 124.167 149.454 124.484C144.267 126.429 139.082 128.373 133.895 130.318C132.975 130.662 132.055 131.009 131.135 131.354C130.827 131.469 130.242 131.833 129.905 131.814C129.507 131.791 129.039 131.181 128.781 130.933C128.06 130.237 127.34 129.541 126.619 128.845C122.962 125.31 119.302 121.773 115.644 118.239C115.583 118.48 115.521 118.724 115.457 118.965C122.686 116.151 129.912 113.337 137.141 110.523C138.172 110.122 139.202 109.721 140.233 109.321C140.983 109.025 140.319 108.332 139.692 108.575Z" fill="#00936C"/>
<path d="M107.425 136.77C107.425 140.685 107.425 144.601 107.425 148.517C107.425 149.159 108.63 148.999 108.63 148.438C108.63 144.522 108.63 140.607 108.63 136.694C108.63 136.049 107.425 136.209 107.425 136.77Z" fill="#00936C"/>
<path d="M107.432 151.03C107.432 151.648 107.432 152.265 107.432 152.882C107.432 153.379 108.62 153.131 108.62 152.735C108.62 152.117 108.62 151.5 108.62 150.883C108.62 150.386 107.432 150.634 107.432 151.03Z" fill="#00936C"/>
<path d="M107.427 155.018C107.427 156.626 107.427 158.235 107.427 159.843C107.427 160.446 108.627 160.257 108.627 159.745C108.627 158.136 108.627 156.528 108.627 154.919C108.627 154.314 107.427 154.504 107.427 155.018Z" fill="#00936C"/>
<path d="M120.58 172.906C124.154 171.752 127.731 170.596 131.304 169.443C132.018 169.211 131.818 168.412 131.09 168.648C127.517 169.802 123.94 170.958 120.366 172.111C119.656 172.34 119.855 173.139 120.58 172.906Z" fill="#D1D1D1"/>
<path d="M120.558 168.652C124.117 167.487 127.674 166.323 131.233 165.157C131.929 164.931 131.779 164.294 131.066 164.528C127.507 165.694 123.95 166.857 120.391 168.023C119.695 168.252 119.845 168.886 120.558 168.652Z" fill="#D1D1D1"/>
<path d="M120.549 164.528C124.091 163.352 127.633 162.177 131.175 161.003C131.861 160.777 131.733 160.216 131.027 160.45C127.485 161.626 123.943 162.801 120.402 163.974C119.715 164.203 119.843 164.764 120.549 164.528Z" fill="#D1D1D1"/>
<path d="M120.593 176.125C121.383 175.872 122.172 175.621 122.962 175.367C123.208 175.289 123.52 175.072 123.439 174.77C123.363 174.484 122.972 174.413 122.728 174.492C121.938 174.745 121.149 174.996 120.359 175.249C120.113 175.328 119.801 175.545 119.882 175.847C119.958 176.13 120.35 176.201 120.593 176.125Z" fill="#D1D1D1"/>
<path d="M124.703 174.624C125.5 174.371 126.297 174.115 127.092 173.862C127.246 173.813 127.677 173.672 127.613 173.436C127.551 173.21 127.087 173.284 126.946 173.328C126.149 173.581 125.353 173.837 124.558 174.091C124.403 174.14 123.973 174.28 124.037 174.516C124.098 174.742 124.563 174.669 124.703 174.624Z" fill="#D1D1D1"/>
<path d="M128.914 173.343C129.718 173.087 130.52 172.829 131.324 172.573C131.511 172.514 131.902 172.352 131.831 172.089C131.764 171.838 131.326 171.865 131.149 171.921C130.345 172.177 129.543 172.435 128.739 172.691C128.552 172.75 128.161 172.913 128.232 173.176C128.301 173.429 128.736 173.4 128.914 173.343Z" fill="#D1D1D1"/>
<path d="M51.4294 170.259C54.5925 166.58 59.8142 164.445 64.5661 164.246C68.1743 164.093 71.8121 164.939 74.9923 166.649C76.2172 167.306 77.8701 168.42 78.6694 169.222C79.063 169.615 80.1845 169.118 79.7541 168.688C77.233 166.164 73.6051 164.566 70.174 163.813C64.3915 162.544 58.3409 163.806 53.5103 167.2C52.4084 167.975 51.3089 168.855 50.4259 169.883C49.9365 170.456 51.063 170.687 51.4294 170.259Z" fill="#00936C"/>
<path d="M55.5 155.209C55.7287 156.218 55.1827 157.246 54.2775 157.502C53.3724 157.758 52.4525 157.148 52.2238 156.139C51.9926 155.131 52.5411 154.103 53.4462 153.847C54.3489 153.589 55.2688 154.199 55.5 155.209Z" fill="#00936C"/>
<path d="M77.2601 158.198C78.1933 158.198 78.9498 157.353 78.9498 156.311C78.9498 155.269 78.1933 154.425 77.2601 154.425C76.3268 154.425 75.5703 155.269 75.5703 156.311C75.5703 157.353 76.3268 158.198 77.2601 158.198Z" fill="#00936C"/>
<path d="M88.0595 111.879C82.6164 112.533 76.7577 113.249 71.5753 110.986C67.271 109.107 63.6923 105.157 63.9678 100.22C64.2556 95.0895 67.9942 91.0754 72.5198 89.0684C77.5079 86.8572 83.2756 86.6162 88.5711 87.7083C91.102 88.2297 94.1544 88.9774 96.2672 90.5516C98.0332 91.8674 98.7317 94.2163 97.0223 95.8667C95.7679 97.0768 93.9084 97.6229 92.2703 98.073C90.5585 98.5428 88.8195 98.9806 87.0708 99.2856C78.1498 100.838 68.0261 99.3643 61.0286 93.2325C57.5507 90.1851 55.1403 85.7062 55.128 81.0206C55.1133 76.2367 57.8164 71.8783 61.4443 68.9268C68.7074 63.0189 78.809 61.3365 87.9095 61.2947C92.4081 61.275 96.9017 61.6686 101.344 62.3745C103.715 62.7508 106.179 63.1099 108.366 64.1528C110.575 65.2055 112.815 67.4019 112.227 70.0804C111.672 72.6113 108.752 73.4156 106.583 74.0452C103.789 74.8594 100.884 75.2381 97.9815 75.3636C92.5138 75.6022 86.9552 75.1939 81.5293 74.5199C76.406 73.8854 71.2703 72.9384 66.3315 71.4159C62.7479 70.3116 59.1839 68.8555 56.1635 66.5951C53.2145 64.3889 50.964 61.4128 49.9703 57.8414C48.8585 53.8446 49.166 49.4051 50.6688 45.5484C53.6474 37.9015 61.1491 33.1816 68.5599 30.5105C78.6294 26.8826 89.6976 25.6159 100.35 26.2751C105.815 26.6145 111.229 27.5245 116.522 28.9265C119.223 29.6398 121.889 30.4883 124.481 31.5287C126.643 32.397 128.842 33.3833 129.946 35.5772C132.071 39.7979 127.863 43.7972 124.506 45.6935C120.821 47.7743 116.512 49.0017 112.441 50.0839C107.008 51.5277 101.386 52.0762 95.7875 52.3738C90.4453 52.6566 85.0834 52.846 79.7338 52.7599C69.4306 52.5951 58.8617 51.2916 49.5399 46.6282C41.4429 42.5797 33.4689 34.3278 35.4931 24.4648C36.4499 19.8113 39.9253 15.7775 43.5016 12.8408C47.2131 9.79334 51.5469 7.63382 56.0479 6.01295C65.3255 2.67037 75.3139 1.50944 85.1055 0.933896C96.0409 0.291943 106.964 0.808457 117.762 2.69004C123.202 3.63699 128.579 4.91105 133.874 6.47781C134.209 6.5762 135.279 6.06706 134.829 5.93178C123.109 2.4613 110.98 0.439518 98.7587 0.0730393C87.8431 -0.254086 76.6199 0.498548 65.9158 2.7171C56.1955 4.7315 46.0276 8.32743 39.2022 15.8808C35.8522 19.5874 33.5796 24.118 34.1207 29.2118C34.6421 34.1212 37.2394 38.5878 40.8132 41.9156C48.7749 49.3313 60.4604 52.0417 70.9826 52.9665C76.6347 53.4634 82.3164 53.4708 87.9833 53.2912C94.0191 53.1018 100.092 52.8952 106.069 51.9655C111.079 51.1858 116.015 49.7937 120.765 48.0228C124.592 46.5962 128.65 44.5523 130.76 40.8752C131.835 39.0034 132.079 36.898 130.989 34.9697C129.821 32.9012 127.765 31.9223 125.654 31.0639C120.285 28.8798 114.557 27.4311 108.838 26.5235C97.2117 24.6763 85.1892 25.306 73.8111 28.3214C65.4903 30.5277 56.6702 34.2564 51.6502 41.6303C46.9524 48.5319 46.6744 58.5916 52.6094 64.8636C55.4035 67.8151 59.1347 69.7385 62.9077 71.1232C67.608 72.8474 72.5813 73.8927 77.5177 74.6601C83.5044 75.5923 89.641 76.1015 95.7015 76.0301C98.5152 75.9957 101.334 75.7768 104.096 75.216C106.497 74.729 109.155 74.0846 111.256 72.7638C112.914 71.7234 113.873 69.9279 113.391 67.9528C112.825 65.6384 110.695 64.1208 108.595 63.2821C106.305 62.3671 103.791 62.0178 101.366 61.6514C98.9752 61.2898 96.5697 61.0242 94.1568 60.8569C84.5325 60.1904 74.3547 61.0586 65.6379 65.4957C61.3975 67.6552 57.5212 70.7199 55.3986 75.0733C53.1973 79.5916 53.6449 84.7543 56.1389 89.0561C61.0901 97.5983 72.0033 100.756 81.3129 100.449C84.6308 100.338 103.137 98.4567 98.6259 91.4075C97.2633 89.2799 94.2675 88.4412 91.9875 87.7673C89.4393 87.0171 86.81 86.5744 84.1561 86.4711C79.0673 86.2768 73.6316 87.3073 69.3027 90.1039C65.3354 92.6668 62.3617 97.0621 62.8093 101.949C63.2521 106.8 67.2907 110.361 71.6491 111.93C76.8438 113.8 82.5328 113.113 87.8849 112.471C88.4334 112.412 88.8859 111.778 88.0595 111.879Z" fill="#00936C"/>
</svg>
