<svg width="24" height="22" viewBox="0 0 24 22" fill="none" xmlns="http://www.w3.org/2000/svg">
<path d="M9.38346 20.9323H2.34586C1.08271 20.9323 2.46711e-08 19.8496 0 18.5865V2.34586C0 1.08271 1.08271 0 2.34586 0H15.8797C17.1429 0 18.2256 1.08271 18.2256 2.34586V7.7594C18.2256 8.1203 17.8647 8.4812 17.5038 8.4812C17.1429 8.4812 16.9624 7.7594 16.9624 7.3985V1.98496C16.9624 1.44361 16.4211 0.902256 15.8797 0.902256H2.34586C1.80451 0.902256 1.26316 1.44361 1.26316 1.98496V18.2256C1.26316 18.7669 1.80451 19.3083 2.34586 19.3083H9.38346C9.74436 19.3083 10.1053 19.6692 10.1053 20.0301C10.1053 20.391 9.74436 20.9323 9.38346 20.9323Z" fill="#00936C"/>
<path d="M14.9775 5.05298H3.24817C2.88727 5.05298 2.52637 4.69208 2.52637 4.33118C2.52637 3.97028 2.88727 3.60938 3.24817 3.60938H14.9775C15.3384 3.60938 15.6993 3.97028 15.6993 4.33118C15.6993 4.69208 15.3384 5.05298 14.9775 5.05298ZM10.1053 11.7297H3.24817C2.88727 11.7297 2.52637 11.3688 2.52637 11.0079C2.52637 10.647 2.88727 10.2861 3.24817 10.2861H10.1053C10.4662 10.2861 10.8271 10.647 10.8271 11.0079C10.8271 11.3688 10.4662 11.7297 10.1053 11.7297ZM10.1053 15.6996H3.24817C2.88727 15.6996 2.52637 15.3387 2.52637 14.9778C2.52637 14.6169 2.88727 14.256 3.24817 14.256H10.1053C10.4662 14.256 10.8271 14.6169 10.8271 14.9778C10.8271 15.3387 10.4662 15.6996 10.1053 15.6996ZM14.9775 8.12065H3.24817C2.88727 8.12065 2.52637 7.9402 2.52637 7.5793C2.52637 7.2184 2.88727 6.85749 3.24817 6.85749H14.9775C15.3384 6.85749 15.6993 7.2184 15.6993 7.5793C15.6993 7.9402 15.3384 8.12065 14.9775 8.12065Z" fill="#00936C"/>
<path d="M17.6843 13.8949C16.2407 13.8949 14.9775 12.8122 14.9775 11.3686C14.9775 9.92499 16.0602 8.84229 17.5039 8.84229C18.9475 8.84229 20.0302 9.92499 20.0302 11.3686C20.2106 12.8122 19.1279 13.8949 17.6843 13.8949ZM17.6843 10.1054C16.9625 10.1054 16.4211 10.6468 16.4211 11.3686C16.4211 12.0904 16.9625 12.6318 17.6843 12.6318C18.4061 12.6318 18.767 12.0904 18.767 11.3686C18.767 10.6468 18.2257 10.1054 17.6843 10.1054Z" fill="#00936C"/>
<path d="M22.5569 18.2258H12.8125L17.6847 12.6318L22.5569 18.2258ZM15.6997 16.7822H19.4892L17.6847 14.6168L15.6997 16.7822Z" fill="#00936C"/>
<path d="M22.3757 21.8346H12.9922C12.09 21.8346 11.3682 21.1128 11.3682 20.2105V18.5865C11.3682 17.6842 12.09 16.9624 12.9922 16.9624H22.3757C23.2779 16.9624 23.9997 17.6842 23.9997 18.5865V20.2105C23.9997 20.9323 23.2779 21.8346 22.3757 21.8346ZM12.9922 18.0451C12.8118 18.0451 12.6313 18.2256 12.6313 18.406V20.0301C12.6313 20.2105 12.8118 20.391 12.9922 20.391H22.3757C22.5561 20.391 22.7366 20.2105 22.7366 20.0301V18.406C22.7366 18.2256 22.5561 18.0451 22.3757 18.0451H12.9922Z" fill="#00936C"/>
</svg>
