<svg width="62" height="62" viewBox="0 0 62 62" fill="none" xmlns="http://www.w3.org/2000/svg">
<circle cx="31" cy="31" r="31" fill="#E7EEF5"/>
<g clip-path="url(#clip0_183_32110)">
<path d="M22.8335 25.1667C22.8335 26.4043 23.3252 27.5913 24.2003 28.4665C25.0755 29.3417 26.2625 29.8333 27.5002 29.8333C28.7378 29.8333 29.9248 29.3417 30.8 28.4665C31.6752 27.5913 32.1668 26.4043 32.1668 25.1667C32.1668 23.929 31.6752 22.742 30.8 21.8668C29.9248 20.9917 28.7378 20.5 27.5002 20.5C26.2625 20.5 25.0755 20.9917 24.2003 21.8668C23.3252 22.742 22.8335 23.929 22.8335 25.1667Z" stroke="#0A549C" stroke-width="1.75" stroke-linecap="round" stroke-linejoin="round"/>
<path d="M20.5 41.5V39.1667C20.5 37.929 20.9917 36.742 21.8668 35.8668C22.742 34.9917 23.929 34.5 25.1667 34.5H29.8333C31.071 34.5 32.258 34.9917 33.1332 35.8668C34.0083 36.742 34.5 37.929 34.5 39.1667V41.5" stroke="#0A549C" stroke-width="1.75" stroke-linecap="round" stroke-linejoin="round"/>
<path d="M35.6665 20.6516C36.6703 20.9086 37.56 21.4924 38.1954 22.311C38.8308 23.1295 39.1757 24.1362 39.1757 25.1724C39.1757 26.2086 38.8308 27.2154 38.1954 28.0339C37.56 28.8525 36.6703 29.4363 35.6665 29.6933" stroke="#0A549C" stroke-width="1.75" stroke-linecap="round" stroke-linejoin="round"/>
<path d="M41.5 41.5V39.1667C41.4941 38.1367 41.1476 37.1376 40.5145 36.3252C39.8814 35.5127 38.9973 34.9325 38 34.675" stroke="#0A549C" stroke-width="1.75" stroke-linecap="round" stroke-linejoin="round"/>
</g>
<defs>
<clipPath id="clip0_183_32110">
<rect width="28" height="28" fill="white" transform="translate(17 17)"/>
</clipPath>
</defs>
</svg>
