<svg width="15" height="14" viewBox="0 0 15 14" fill="none" xmlns="http://www.w3.org/2000/svg">
<path d="M6.6875 3.4375H14" stroke="#33363F" stroke-width="2" stroke-linecap="round"/>
<path d="M1 9.9375H9.125" stroke="#33363F" stroke-width="2" stroke-linecap="round"/>
<path d="M1 3.4375C1 4.78369 2.09131 5.875 3.4375 5.875C4.78369 5.875 5.875 4.78369 5.875 3.4375C5.875 2.09131 4.78369 1 3.4375 1C2.09131 1 1 2.09131 1 3.4375Z" stroke="#33363F" stroke-width="2" stroke-linecap="round"/>
<path d="M9.125 9.9375C9.125 11.2837 10.2163 12.375 11.5625 12.375C12.9087 12.375 14 11.2837 14 9.9375C14 8.59131 12.9087 7.5 11.5625 7.5C10.2163 7.5 9.125 8.59131 9.125 9.9375Z" stroke="#33363F" stroke-width="2" stroke-linecap="round"/>
</svg>
