<svg width="22" height="27" viewBox="0 0 22 27" fill="none" xmlns="http://www.w3.org/2000/svg">
<path d="M16.3409 1V3.08333H17.963L15.8019 5.28437C14.7986 4.55729 13.5755 4.125 12.25 4.125C9.97443 4.125 8.00466 5.39479 6.94511 7.26875C5.43864 7.31562 3.94545 7.90937 2.79591 9.08021C1.5983 10.301 1 11.9 1 13.499C1 15.099 1.5983 16.6979 2.79693 17.9188C3.73477 18.874 4.89864 19.449 6.11364 19.6573V21.9906L4.96614 20.8229L3.52 22.2958L7.13534 26L10.7517 22.2948L9.30557 20.8219L8.15909 21.9906V19.6573C9.37205 19.45 10.538 18.874 11.4748 17.9198C11.8655 17.5229 12.1794 17.0812 12.4392 16.6156C15.7395 16.5125 18.3864 13.7615 18.3864 10.375C18.3864 9.025 17.9619 7.77917 17.2481 6.75729L19.4091 4.55625V6.20833H21.4545V1L16.3409 1ZM12.25 14.5417C10.2495 14.5417 8.58966 13.0375 8.23682 11.1562C7.90341 10.9917 7.53216 10.8958 7.13636 10.8958C6.78864 10.8958 6.46034 10.9729 6.15864 11.101C6.4317 13.4969 8.03739 15.4667 10.1964 16.25C8.64591 18.0688 5.89989 18.1333 4.24307 16.4458C2.64761 14.8208 2.64761 12.1781 4.24205 10.5531C6.55443 8.19896 10.5073 9.43854 11.1424 12.6781C11.4778 12.8552 11.845 12.9792 12.25 12.9792C12.5906 12.9792 12.9076 12.8948 13.2032 12.7698C12.9342 10.4344 11.4932 8.46979 9.20432 7.63437C9.94886 6.76667 11.0299 6.20833 12.25 6.20833C14.5061 6.20833 16.3409 8.07708 16.3409 10.375C16.3409 12.6729 14.5061 14.5417 12.25 14.5417Z" fill="#515151" stroke="white" stroke-width="0.5"/>
</svg>
