<svg width="57" height="57" viewBox="0 0 57 57" fill="none" xmlns="http://www.w3.org/2000/svg">
<g filter="url(#filter0_d_1146_1091)">
<circle cx="28.5" cy="24.5" r="10.5" fill="white"/>
<circle cx="28.5" cy="24.5" r="10" stroke="#E3E1E1"/>
</g>
<path d="M32.8267 25.2801C33.0229 25.0858 33.0245 24.7692 32.8301 24.573C32.6358 24.3768 32.3193 24.3753 32.1231 24.5696L32.8267 25.2801ZM28.1718 29.1867L27.8199 29.5419C28.0148 29.7349 28.3288 29.7349 28.5236 29.5419L28.1718 29.1867ZM24.2205 24.5696C24.0243 24.3753 23.7077 24.3768 23.5134 24.573C23.3191 24.7692 23.3206 25.0858 23.5168 25.2801L24.2205 24.5696ZM23.5195 25.2831C23.7174 25.4757 24.0339 25.4714 24.2265 25.2735C24.4191 25.0756 24.4148 24.759 24.2169 24.5665L23.5195 25.2831ZM28.1713 21.1576L27.77 21.4558C27.864 21.5824 28.0122 21.6571 28.1699 21.6576C28.3275 21.658 28.4762 21.5841 28.5709 21.4581L28.1713 21.1576ZM32.124 24.5715C31.927 24.765 31.9242 25.0816 32.1177 25.2786C32.3112 25.4756 32.6278 25.4785 32.8248 25.285L32.124 24.5715ZM32.1231 24.5696L27.8199 28.8314L28.5236 29.5419L32.8267 25.2801L32.1231 24.5696ZM28.5236 28.8314L24.2205 24.5696L23.5168 25.2801L27.8199 29.5419L28.5236 28.8314ZM24.2169 24.5665C23.5779 23.9447 23.3422 23.0169 23.6069 22.1655L22.652 21.8686C22.2755 23.0793 22.6108 24.3989 23.5195 25.2831L24.2169 24.5665ZM23.6069 22.1655C23.8716 21.3142 24.5919 20.6836 25.4708 20.5338L25.3027 19.548C24.0528 19.7611 23.0285 20.6579 22.652 21.8686L23.6069 22.1655ZM25.4708 20.5338C26.3496 20.3839 27.2382 20.7403 27.77 21.4558L28.5726 20.8593C27.8163 19.8417 26.5526 19.3349 25.3027 19.548L25.4708 20.5338ZM28.5709 21.4581C29.105 20.7478 29.9916 20.3962 30.8673 20.5474L31.0375 19.562C29.7921 19.3469 28.5312 19.847 27.7717 20.8571L28.5709 21.4581ZM30.8673 20.5474C31.7429 20.6986 32.4603 21.3273 32.7252 22.1755L33.6798 21.8774C33.303 20.6711 32.2828 19.7771 31.0375 19.562L30.8673 20.5474ZM32.7252 22.1755C32.9901 23.0237 32.758 23.9488 32.124 24.5715L32.8248 25.285C33.7264 24.3994 34.0565 23.0837 33.6798 21.8774L32.7252 22.1755Z" fill="#00936C"/>
<defs>
<filter id="filter0_d_1146_1091" x="0" y="0" width="57" height="57" filterUnits="userSpaceOnUse" color-interpolation-filters="sRGB">
<feFlood flood-opacity="0" result="BackgroundImageFix"/>
<feColorMatrix in="SourceAlpha" type="matrix" values="0 0 0 0 0 0 0 0 0 0 0 0 0 0 0 0 0 0 127 0" result="hardAlpha"/>
<feOffset dy="4"/>
<feGaussianBlur stdDeviation="9"/>
<feComposite in2="hardAlpha" operator="out"/>
<feColorMatrix type="matrix" values="0 0 0 0 0.294118 0 0 0 0 0.27451 0 0 0 0 0.360784 0 0 0 0.1 0"/>
<feBlend mode="normal" in2="BackgroundImageFix" result="effect1_dropShadow_1146_1091"/>
<feBlend mode="normal" in="SourceGraphic" in2="effect1_dropShadow_1146_1091" result="shape"/>
</filter>
</defs>
</svg>
