<svg width="20" height="17" viewBox="0 0 20 17" fill="none" xmlns="http://www.w3.org/2000/svg">
<path d="M10.0035 17L9.8257 16.8908C9.47511 16.6762 1.23345 11.5814 0.278702 7.3789C0.0965166 6.84349 0 6.25612 0 5.66538C0 3.60454 1.14826 1.70341 2.99671 0.703782C3.85445 0.243413 4.82102 0 5.79202 0C7.39279 0 8.9064 0.639803 10.0025 1.76788C11.0931 0.639803 12.6038 0 14.2045 0C15.1819 0 16.1495 0.243413 17.0028 0.703782C18.8508 1.70678 20 3.60839 20 5.66586C20 6.25708 19.9035 6.84397 19.7129 7.41065C18.7626 11.5819 10.5308 16.6762 10.1807 16.8913L10.0035 17Z" fill="#00936C"/>
</svg>
