<svg width="25" height="27" viewBox="0 0 25 27" fill="none" xmlns="http://www.w3.org/2000/svg">
<path d="M23.3785 11.1992L13.4851 1.372C12.9734 0.863021 12.1263 0.878228 11.5941 1.406L1.13082 11.8451C0.956392 12.0186 0.956392 12.3022 1.13082 12.4775C1.30526 12.6519 1.58882 12.6519 1.76325 12.4775L12.2256 2.03932C12.409 1.85773 12.6916 1.84252 12.8544 2.00622L22.7496 11.8343C22.9446 12.0276 22.8758 12.2467 22.8498 12.3093C22.823 12.3737 22.7148 12.5822 22.4339 12.5822H4.97727C4.2375 12.5822 3.63549 13.1842 3.63549 13.9239V24.6833C3.63549 25.4096 4.28759 26 5.08909 26L9.44362 25.9937C9.4472 25.9937 9.45078 25.9937 9.45346 25.9937C9.80859 25.9937 10.1431 25.8569 10.3954 25.6055C10.6512 25.3515 10.7917 25.0133 10.7917 24.652L10.789 20.6329C10.789 19.6462 11.5923 18.8438 12.5798 18.8438C13.5674 18.8438 14.3698 19.6462 14.3698 20.6329V24.6582C14.3698 25.398 14.9718 26 15.7115 26H20.1681C20.9168 26 21.5259 25.4302 21.5259 24.7298V15.713C21.5259 15.4661 21.3256 15.2657 21.0787 15.2657C20.8318 15.2657 20.6314 15.4661 20.6314 15.713V24.7298C20.6314 24.9364 20.4239 25.1055 20.1681 25.1055H15.7115C15.4655 25.1055 15.2643 24.9042 15.2643 24.6582V20.6329C15.2643 19.1533 14.0594 17.9493 12.5798 17.9493C11.0994 17.9493 9.89446 19.1533 9.89446 20.6338L9.89714 24.652C9.89714 24.7736 9.84973 24.8863 9.76565 24.9704C9.68156 25.0536 9.57154 25.0992 9.44988 25.0992C9.44988 25.0992 9.44809 25.0992 9.44631 25.0992L5.08819 25.1055C4.78584 25.1055 4.53001 24.9123 4.53001 24.6833V13.9239C4.53001 13.678 4.73128 13.4767 4.97727 13.4767H22.4339C22.9903 13.4767 23.4671 13.16 23.6773 12.6501C23.8848 12.1438 23.7712 11.5875 23.3785 11.1992Z" fill="#00936C" stroke="#00936C"/>
<path d="M23.3785 11.1992L13.4851 1.372C12.9734 0.863021 12.1263 0.878228 11.5941 1.406L1.13082 11.8451C0.956392 12.0186 0.956392 12.3022 1.13082 12.4775C1.30526 12.6519 1.58882 12.6519 1.76325 12.4775L12.2256 2.03932C12.409 1.85773 12.6916 1.84252 12.8544 2.00622L22.7496 11.8343C22.9446 12.0276 22.8758 12.2467 22.8498 12.3093C22.823 12.3737 22.7148 12.5822 22.4339 12.5822H4.97727C4.2375 12.5822 3.63549 13.1842 3.63549 13.9239V24.6833C3.63549 25.4096 4.28759 26 5.08909 26L9.44362 25.9937C9.4472 25.9937 9.45078 25.9937 9.45346 25.9937C9.80859 25.9937 10.1431 25.8569 10.3954 25.6055C10.6512 25.3515 10.7917 25.0133 10.7917 24.652L10.789 20.6329C10.789 19.6462 11.5923 18.8438 12.5798 18.8438C13.5674 18.8438 14.3698 19.6462 14.3698 20.6329V24.6582C14.3698 25.398 14.9718 26 15.7115 26H20.1681C20.9168 26 21.5259 25.4302 21.5259 24.7298V15.713C21.5259 15.4661 21.3256 15.2657 21.0787 15.2657C20.8318 15.2657 20.6314 15.4661 20.6314 15.713V24.7298C20.6314 24.9364 20.4239 25.1055 20.1681 25.1055H15.7115C15.4655 25.1055 15.2643 24.9042 15.2643 24.6582V20.6329C15.2643 19.1533 14.0594 17.9493 12.5798 17.9493C11.0994 17.9493 9.89446 19.1533 9.89446 20.6338L9.89714 24.652C9.89714 24.7736 9.84973 24.8863 9.76565 24.9704C9.68156 25.0536 9.57154 25.0992 9.44988 25.0992C9.44988 25.0992 9.44809 25.0992 9.44631 25.0992L5.08819 25.1055C4.78584 25.1055 4.53001 24.9123 4.53001 24.6833V13.9239C4.53001 13.678 4.73128 13.4767 4.97727 13.4767H22.4339C22.9903 13.4767 23.4671 13.16 23.6773 12.6501C23.8848 12.1438 23.7712 11.5875 23.3785 11.1992Z" fill="#00936C" stroke="#00936C"/>
</svg>
