<svg width="28" height="22" viewBox="0 0 28 22" fill="none" xmlns="http://www.w3.org/2000/svg">
<path d="M25.8659 21.484H2.13408C0.958726 21.476 0.00805652 20.5253 0 19.3509V6.03252C0.00805652 4.85716 0.958726 3.90649 2.13319 3.89844H25.8659C27.0413 3.90649 27.9919 4.85716 28 6.03163V19.3526C28 20.5298 27.0458 21.484 25.8686 21.484H25.8659ZM2.13408 5.32176C2.13229 5.32176 2.12961 5.32176 2.12782 5.32176C1.73842 5.32176 1.42332 5.63686 1.42332 6.02625V6.03342V19.3535V19.3598C1.42332 19.7492 1.73842 20.0643 2.12782 20.0643H2.13498H25.8668H25.8731C26.2625 20.0643 26.5776 19.7492 26.5776 19.3598C26.5776 19.3571 26.5776 19.3553 26.5776 19.3526V6.03252C26.5776 6.03073 26.5776 6.02805 26.5776 6.02625C26.5776 5.63686 26.2625 5.32176 25.8731 5.32176C25.8704 5.32176 25.8686 5.32176 25.8659 5.32176H2.13408Z" fill="#00936C"/>
<path d="M20.2891 1.70702V1.7106C20.2891 2.13312 19.9463 2.47508 19.5246 2.47508C19.5238 2.47508 19.522 2.47508 19.5211 2.47508H8.48095C8.48005 2.47508 8.47826 2.47508 8.47737 2.47508C8.05485 2.47508 7.71289 2.13223 7.71289 1.7106C7.71289 1.70971 7.71289 1.70792 7.71289 1.70702C7.71289 1.70612 7.71289 1.70433 7.71289 1.70344C7.71289 1.28092 8.05574 0.938965 8.47737 0.938965H8.48095H19.5211C19.9382 0.957763 20.2712 1.29166 20.2891 1.70702Z" fill="#00936C"/>
<path d="M22.9637 2.27642V2.28895C22.9637 2.92631 22.4472 3.44282 21.8098 3.44282C21.8053 3.44282 21.8008 3.44282 21.7964 3.44282C21.7928 3.44282 21.7892 3.44282 21.7847 3.44282C21.1474 3.44282 20.6309 2.92631 20.6309 2.28895C20.6309 2.28447 20.6309 2.28 20.6309 2.27552V1.16641C20.6309 1.16282 20.6309 1.15835 20.6309 1.15387C20.6309 0.516513 21.1474 0 21.7847 0H21.7982H21.8098C22.4472 0 22.9637 0.516513 22.9637 1.15387V1.1673V1.16641V2.27642Z" fill="#00936C"/>
<path d="M7.36992 2.27642V2.28895C7.36992 2.92631 6.85341 3.44282 6.21605 3.44282C6.21157 3.44282 6.2071 3.44282 6.20262 3.44282C6.19904 3.44282 6.19546 3.44282 6.19098 3.44282C5.55362 3.44282 5.03711 2.92631 5.03711 2.28895C5.03711 2.28447 5.03711 2.28 5.03711 2.27552V1.16641C5.03711 1.16282 5.03711 1.15835 5.03711 1.15387C5.03711 0.516513 5.55362 0 6.19098 0H6.20441H6.20351H6.21605C6.85341 0 7.36992 0.516513 7.36992 1.15387V1.1673V1.16641V2.27642Z" fill="#00936C"/>
<path d="M26.6919 1.70702V1.7106C26.6919 2.13312 26.3491 2.47508 25.9275 2.47508C25.9266 2.47508 25.9248 2.47508 25.9239 2.47508H24.0181C24.0172 2.47508 24.0154 2.47508 24.0145 2.47508C23.592 2.47508 23.25 2.13223 23.25 1.7106C23.25 1.70971 23.25 1.70792 23.25 1.70702C23.25 1.70612 23.25 1.70433 23.25 1.70344C23.25 1.28092 23.5928 0.938965 24.0145 0.938965H24.0181H25.9239C26.341 0.957763 26.674 1.29166 26.6919 1.70702Z" fill="#00936C"/>
<path d="M4.72375 1.70702V1.7106C4.72375 2.13312 4.3809 2.47508 3.95927 2.47508H2.07763C2.07673 2.47508 2.07494 2.47508 2.07404 2.47508C1.65152 2.47508 1.30957 2.13223 1.30957 1.7106C1.30957 1.70971 1.30957 1.70792 1.30957 1.70702C1.30957 1.70612 1.30957 1.70433 1.30957 1.70344C1.30957 1.28092 1.65242 0.938965 2.07404 0.938965H2.07763H3.98344C4.39343 0.959554 4.71927 1.29435 4.72375 1.70702Z" fill="#00936C"/>
<path d="M5.06444 13.0317V14.8221H6.80017V13.0317H7.85289V17.6992H6.80017V15.7351H5.06444V17.6992H4.01172V13.0317H5.06444Z" fill="#00936C"/>
<path d="M13.0618 15.3104C13.0698 15.3803 13.0734 15.4608 13.0734 15.5423C13.0734 16.7821 12.0681 17.7874 10.8283 17.7874C10.8033 17.7874 10.7773 17.7874 10.7522 17.7865H10.7558C10.7478 17.7865 10.7388 17.7865 10.7299 17.7865C9.52765 17.7865 8.55371 16.8125 8.55371 15.6103C8.55371 15.5351 8.55729 15.4599 8.56535 15.3865L8.56445 15.3955C8.55908 15.3382 8.5564 15.2728 8.5564 15.2057C8.5564 13.9578 9.56794 12.9472 10.8149 12.9472H10.8427H10.8409C10.857 12.9472 10.8767 12.9463 10.8955 12.9463C12.0959 12.9463 13.068 13.9193 13.068 15.1189C13.068 15.186 13.0654 15.2531 13.0591 15.3185L13.06 15.3104H13.0618ZM9.704 15.3668C9.704 16.2781 10.1337 16.9316 10.8418 16.9316C11.5498 16.9316 11.9518 16.2486 11.9518 15.3382C11.9518 14.4842 11.5534 13.7734 10.814 13.7734C10.1032 13.7716 9.704 14.4555 9.704 15.365V15.3668Z" fill="#00936C"/>
<path d="M14.4839 13.9144H13.2324V13.0317H16.8185V13.9144H15.5384V17.6992H14.4857L14.4839 13.9144Z" fill="#00936C"/>
<path d="M20.1469 15.7065H18.4398V16.8165H20.3733V17.6705H17.3584V13.0317H20.2319V13.8857H18.4111V14.8534H20.1182V15.7074L20.1469 15.7065Z" fill="#00936C"/>
<path d="M21.0859 13.0317H22.1387V16.8165H23.9881V17.6992H21.0859V13.0317Z" fill="#00936C"/>
<path d="M14.0005 10.0459L12.4634 10.874L12.7499 9.16687L11.5244 7.9378L13.2315 7.68178L13.9996 6.14746L14.7676 7.68447L16.4747 7.94048L15.251 9.16418L15.5375 10.8713L14.0005 10.0459Z" fill="#00936C"/>
<path d="M19.3213 10.2432L18.1549 10.8689L18.3823 9.56019L17.4424 8.6498L18.7225 8.47972L19.3196 7.28467L19.8889 8.47972L21.1976 8.6498L20.2586 9.56108L20.4573 10.8698L19.3213 10.2432Z" fill="#00936C"/>
<path d="M22.7066 10.4713L21.9386 10.8697L22.0818 10.0157L21.4561 9.41861L22.31 9.27538L22.7084 8.50732L23.079 9.27538L23.933 9.41861L23.3359 10.0157L23.4791 10.8697L22.7066 10.4713Z" fill="#00936C"/>
<path d="M8.70725 10.2432L9.84501 10.8689L9.61764 9.56019L10.5567 8.64891L9.27658 8.47882L8.70814 7.28467L8.11107 8.47972L6.83008 8.6498L7.76911 9.56108L7.54174 10.8698L8.70725 10.2432Z" fill="#00936C"/>
<path d="M5.29287 10.4713L6.06092 10.8697L5.9177 10.0157L6.54342 9.41861L5.68943 9.27538L5.29197 8.50732L4.92137 9.27538L4.06738 9.41861L4.69311 10.0157L4.54988 10.8697L5.29287 10.4713Z" fill="#00936C"/>
</svg>
