<svg width="13" height="14" viewBox="0 0 13 14" fill="none" xmlns="http://www.w3.org/2000/svg">
<path d="M3.81596 6.12716C3.63666 5.94785 3.34528 5.94785 3.16597 6.12716C2.98667 6.30647 2.98667 6.59784 3.16597 6.77715L5.28404 8.89521C5.37369 8.98487 5.48576 9.02969 5.60903 9.02969C5.62024 9.02969 5.62024 9.02969 5.63145 9.02969C5.75472 9.01849 5.87799 8.96245 5.96765 8.86159L11.2684 2.5074C11.4253 2.31689 11.4029 2.02551 11.2124 1.85741C11.0219 1.70052 10.7305 1.72293 10.5624 1.91345L5.57541 7.88661L3.81596 6.12716Z" fill="#00936C"/>
<path d="M9.93473 0.9945C7.35719 -0.619262 4.05122 -0.238235 1.89953 1.91345C-0.633178 4.44616 -0.633178 8.58143 1.89953 11.1141C3.16589 12.3805 4.83568 13.0193 6.49427 13.0193C8.15286 13.0193 9.82266 12.3805 11.089 11.1141C13.2519 8.95125 13.6217 5.63407 11.9968 3.05653C11.8623 2.8436 11.5821 2.77636 11.3692 2.91084C11.1563 3.04532 11.089 3.32549 11.2235 3.53842C12.6243 5.75734 12.2993 8.60384 10.439 10.4641C8.26493 12.6382 4.71241 12.6382 2.53831 10.4641C0.364217 8.29005 0.364217 4.73753 2.53831 2.56344C4.39862 0.714333 7.23392 0.389339 9.45284 1.76776C9.66577 1.90224 9.94593 1.835 10.0804 1.62207C10.2149 1.40915 10.1477 1.12898 9.93473 0.9945Z" fill="#4B465C"/>
</svg>
