<svg width="197" height="63" viewBox="0 0 197 63" fill="none" xmlns="http://www.w3.org/2000/svg">
<path d="M159.179 38.2256H152.564V38.2404V42.5321V51.5002V55.7919V55.8067H156.855V55.7919H159.164H163.456V51.5002V42.5321V38.2404H159.179V38.2256ZM156.855 51.4854V42.5173H159.164V51.4854H156.855Z" fill="#6E7B6C"/>
<path d="M196.369 49.0584V38.122H195.244H192.077H189.768H186.187H185.477V51.3818H183.079V42.4137V38.122H178.788H176.39H172.099V42.4137V44.7519H169.879V38.122H165.587V55.6883H169.879V49.0584H172.099V51.3966V55.6883H176.39H178.788H183.079H185.477H189.768H196.369V51.3966H189.768V42.4285H192.077V49.0584H196.369ZM176.39 51.3966V42.4285H178.788V51.3966H176.39Z" fill="#6E7B6C"/>
<path d="M196.369 31.7441H168.946V36.0358H196.369V31.7441Z" fill="#00936C"/>
<path d="M196.221 19.1055L184.322 13.1563L172.409 19.1055V23.0864H176.375V21.5621L184.322 17.5812L192.077 21.4585V25.3506H168.443V23.264V21.2513V18.9575H152.564V19.1055V23.0864V23.264H164.151V25.3506H152.564V25.3802V27.822V29.6423V31.7437V36.0354H160.496V35.6063V33.3124V31.7437H156.855V29.6423H196.369" fill="#6E7B6C"/>
<path d="M166.845 31.7441H162.553V36.0358H166.845V31.7441Z" fill="#6E7B6C"/>
<path d="M160.999 5.57921V4.69128C160.999 4.51369 160.895 4.3657 160.747 4.2917C160.777 4.24731 160.792 4.20291 160.792 4.14371V3.59615C160.94 3.59615 161.088 3.56656 161.251 3.53696C161.769 3.38897 162.183 3.06339 162.449 2.63422C162.257 2.76742 162.05 2.87101 161.813 2.9302C160.747 3.21138 159.652 2.58983 159.371 1.5391C159.223 1.00634 159.312 0.458782 159.578 1.52588e-05C158.912 0.473581 158.587 1.31712 158.809 2.13106C158.986 2.76741 159.445 3.24098 160.022 3.46296C160.022 3.47776 160.022 3.49256 160.022 3.52216V4.14371C160.022 4.18811 160.037 4.24731 160.067 4.2917C159.919 4.3657 159.83 4.51369 159.83 4.69128V5.59401C155.938 5.97878 152.771 9.32334 152.667 13.4226V17.4628H156.959V13.4226C156.722 11.1288 158.468 9.20495 160.437 9.11615C162.508 9.02736 164.492 10.9956 164.255 13.4226V17.4628H168.546V13.4226C168.413 9.17535 165.009 5.8012 160.999 5.57921Z" fill="#00936C"/>
<path d="M1.652 35.8722C1.652 34.9762 1.96933 34.2948 2.604 33.8282C3.23867 33.3428 4.172 33.1002 5.404 33.1002V41.4442H13.776V35.8722C13.776 34.9575 14.0933 34.2668 14.728 33.8002C15.3813 33.3335 16.3147 33.1002 17.528 33.1002V50.4322C17.528 51.3282 17.2013 52.0188 16.548 52.5042C15.9133 52.9708 14.9893 53.2042 13.776 53.2042V44.6922H5.404V50.4322C5.404 51.3282 5.07733 52.0188 4.424 52.5042C3.78933 52.9708 2.86533 53.2042 1.652 53.2042V35.8722ZM25.468 53.2042C24.516 53.2042 23.6386 53.0175 22.836 52.6442C22.052 52.2708 21.4173 51.7388 20.932 51.0482C20.4653 50.3388 20.232 49.4988 20.232 48.5282C20.232 47.5575 20.484 46.7175 20.988 46.0082C21.492 45.2802 22.1733 44.7295 23.032 44.3562C23.9093 43.9642 24.8706 43.7682 25.916 43.7682C26.7746 43.7682 27.54 43.9082 28.212 44.1882C28.9026 44.4495 29.5373 44.8508 30.116 45.3922L30.256 45.2522C30.088 45.0842 29.7986 44.8322 29.388 44.4962V43.9362C29.388 43.1708 29.1173 42.5642 28.576 42.1162C28.0346 41.6682 27.2786 41.4442 26.308 41.4442C24.572 41.4442 23.2933 42.0788 22.472 43.3482C22.0613 43.2175 21.716 43.0122 21.436 42.7322C21.156 42.4335 21.016 42.1162 21.016 41.7802C21.016 41.2202 21.268 40.7068 21.772 40.2402C22.276 39.7735 22.9573 39.4002 23.816 39.1202C24.6746 38.8402 25.608 38.7002 26.616 38.7002C28.5946 38.7002 30.1253 39.1668 31.208 40.1002C32.2906 41.0148 32.832 42.2655 32.832 43.8522V50.8522C32.832 51.6735 32.5706 52.2708 32.048 52.6442C31.5253 53.0175 30.704 53.2042 29.584 53.2042V52.0562C29.9013 51.7388 30.116 51.5055 30.228 51.3562L30.116 51.2162C29.5 51.8695 28.8373 52.3642 28.128 52.7002C27.4373 53.0362 26.5506 53.2042 25.468 53.2042ZM26.364 50.6562C27.3346 50.6562 28.0906 50.4695 28.632 50.0962C29.1733 49.7228 29.444 49.1908 29.444 48.5002C29.444 47.8282 29.164 47.2962 28.604 46.9042C28.0626 46.5122 27.3253 46.3162 26.392 46.3162C25.5333 46.3162 24.852 46.5122 24.348 46.9042C23.8626 47.2775 23.62 47.8095 23.62 48.5002C23.62 49.2095 23.8626 49.7508 24.348 50.1242C24.8333 50.4788 25.5053 50.6562 26.364 50.6562ZM39.254 37.3842C38.582 37.3842 38.022 37.1882 37.574 36.7962C37.1447 36.3855 36.93 35.8628 36.93 35.2282C36.93 34.6122 37.1447 34.1082 37.574 33.7162C38.022 33.3055 38.582 33.1002 39.254 33.1002C39.926 33.1002 40.4767 33.3055 40.906 33.7162C41.354 34.1082 41.578 34.6122 41.578 35.2282C41.578 35.8628 41.354 36.3855 40.906 36.7962C40.4767 37.1882 39.926 37.3842 39.254 37.3842ZM35.95 58.8042C34.886 58.8042 34.018 58.5522 33.346 58.0482C32.6927 57.5442 32.366 56.9282 32.366 56.2002C32.366 55.5655 32.6087 55.1082 33.094 54.8282C33.654 55.4628 34.4287 55.7802 35.418 55.7802C36.1087 55.7802 36.622 55.5935 36.958 55.2202C37.3127 54.8655 37.49 54.3615 37.49 53.7082V40.8282C37.49 40.0628 37.7794 39.5215 38.358 39.2042C38.9367 38.8682 39.814 38.7002 40.99 38.7002V53.7362C40.99 54.6882 40.7754 55.5468 40.346 56.3122C39.9354 57.0775 39.3474 57.6842 38.582 58.1322C37.8167 58.5802 36.9394 58.8042 35.95 58.8042ZM49.6993 37.3842C49.0273 37.3842 48.4673 37.1882 48.0193 36.7962C47.59 36.3855 47.3753 35.8628 47.3753 35.2282C47.3753 34.6122 47.59 34.1082 48.0193 33.7162C48.4673 33.3055 49.0273 33.1002 49.6993 33.1002C50.3713 33.1002 50.922 33.3055 51.3513 33.7162C51.7993 34.1082 52.0233 34.6122 52.0233 35.2282C52.0233 35.8628 51.7993 36.3855 51.3513 36.7962C50.922 37.1882 50.3713 37.3842 49.6993 37.3842ZM46.3953 58.8042C45.3313 58.8042 44.4633 58.5522 43.7913 58.0482C43.138 57.5442 42.8113 56.9282 42.8113 56.2002C42.8113 55.5655 43.054 55.1082 43.5393 54.8282C44.0993 55.4628 44.874 55.7802 45.8633 55.7802C46.554 55.7802 47.0673 55.5935 47.4033 55.2202C47.758 54.8655 47.9353 54.3615 47.9353 53.7082V40.8282C47.9353 40.0628 48.2247 39.5215 48.8033 39.2042C49.382 38.8682 50.2593 38.7002 51.4353 38.7002V53.7362C51.4353 54.6882 51.2207 55.5468 50.7913 56.3122C50.3807 57.0775 49.7927 57.6842 49.0273 58.1322C48.262 58.5802 47.3847 58.8042 46.3953 58.8042Z" fill="#6E7B6C"/>
<path d="M63.4478 53.2042C61.8798 53.2042 60.4611 52.8868 59.1918 52.2522C57.9411 51.6175 56.9611 50.7402 56.2518 49.6202C55.5424 48.5002 55.1878 47.2308 55.1878 45.8122V35.8722C55.1878 34.9762 55.5051 34.2948 56.1398 33.8282C56.7744 33.3428 57.7078 33.1002 58.9398 33.1002V45.8122C58.9398 47.0628 59.3504 48.0615 60.1718 48.8082C60.9931 49.5548 62.0851 49.9282 63.4478 49.9282C64.8104 49.9282 65.9024 49.5548 66.7238 48.8082C67.5451 48.0615 67.9558 47.0628 67.9558 45.8122V35.8722C67.9558 34.9575 68.2731 34.2668 68.9078 33.8002C69.5424 33.3335 70.4758 33.1002 71.7078 33.1002V45.8122C71.7078 47.2308 71.3531 48.5002 70.6438 49.6202C69.9344 50.7402 68.9451 51.6175 67.6758 52.2522C66.4251 52.8868 65.0158 53.2042 63.4478 53.2042ZM74.8512 41.3882C74.8512 40.5295 75.1219 39.8668 75.6632 39.4002C76.2046 38.9335 77.0259 38.7002 78.1272 38.7002V40.3802C77.7912 40.7908 77.5672 41.0895 77.4552 41.2762L77.6512 41.3882C78.2299 40.5108 78.8459 39.8482 79.4992 39.4002C80.1526 38.9335 80.9272 38.7002 81.8232 38.7002C83.4472 38.7002 84.5672 39.4935 85.1832 41.0802C85.6499 40.3335 86.2472 39.7548 86.9752 39.3442C87.7032 38.9148 88.5246 38.7002 89.4392 38.7002C90.7086 38.7002 91.7166 39.1668 92.4632 40.1002C93.2286 41.0148 93.6112 42.1908 93.6112 43.6282V51.0762C93.6112 51.8228 93.3219 52.3642 92.7432 52.7002C92.1832 53.0362 91.3246 53.2042 90.1672 53.2042V43.9082C90.1672 43.2175 90.0086 42.6668 89.6912 42.2562C89.3926 41.8455 88.9259 41.6402 88.2912 41.6402C87.6192 41.6402 87.0499 41.8735 86.5832 42.3402C86.1352 42.7882 85.9112 43.4975 85.9112 44.4682V51.0762C85.9112 51.8228 85.6312 52.3642 85.0712 52.7002C84.5299 53.0362 83.6806 53.2042 82.5232 53.2042V43.9082C82.5232 43.1988 82.3739 42.6482 82.0752 42.2562C81.7766 41.8455 81.3099 41.6402 80.6752 41.6402C79.8912 41.6402 79.2939 41.9108 78.8832 42.4522C78.4912 42.9748 78.2952 43.6935 78.2952 44.6082V51.0762C78.2952 51.8228 78.0059 52.3642 77.4272 52.7002C76.8672 53.0362 76.0086 53.2042 74.8512 53.2042V41.3882ZM103.922 41.7242C102.821 41.7242 101.925 42.0228 101.234 42.6202C100.544 43.1988 100.198 43.9268 100.198 44.8042V51.0762C100.198 51.8228 99.9182 52.3642 99.3582 52.7002C98.7982 53.0362 97.9209 53.2042 96.7262 53.2042V41.3882C96.7262 40.5295 96.9969 39.8668 97.5382 39.4002C98.0982 38.9335 98.9382 38.7002 100.058 38.7002V40.3522C99.7782 40.6695 99.5542 40.9775 99.3862 41.2762L99.5542 41.3882C100.73 39.5962 102.205 38.7002 103.978 38.7002C104.781 38.7002 105.388 38.9148 105.798 39.3442C106.209 39.7548 106.414 40.2775 106.414 40.9122C106.414 41.3975 106.284 41.8082 106.022 42.1442C105.518 41.8642 104.818 41.7242 103.922 41.7242ZM112.202 53.2042C111.25 53.2042 110.373 53.0175 109.57 52.6442C108.786 52.2708 108.152 51.7388 107.666 51.0482C107.2 50.3388 106.966 49.4988 106.966 48.5282C106.966 47.5575 107.218 46.7175 107.722 46.0082C108.226 45.2802 108.908 44.7295 109.766 44.3562C110.644 43.9642 111.605 43.7682 112.65 43.7682C113.509 43.7682 114.274 43.9082 114.946 44.1882C115.637 44.4495 116.272 44.8508 116.85 45.3922L116.99 45.2522C116.822 45.0842 116.533 44.8322 116.122 44.4962V43.9362C116.122 43.1708 115.852 42.5642 115.31 42.1162C114.769 41.6682 114.013 41.4442 113.042 41.4442C111.306 41.4442 110.028 42.0788 109.206 43.3482C108.796 43.2175 108.45 43.0122 108.17 42.7322C107.89 42.4335 107.75 42.1162 107.75 41.7802C107.75 41.2202 108.002 40.7068 108.506 40.2402C109.01 39.7735 109.692 39.4002 110.55 39.1202C111.409 38.8402 112.342 38.7002 113.35 38.7002C115.329 38.7002 116.86 39.1668 117.942 40.1002C119.025 41.0148 119.566 42.2655 119.566 43.8522V50.8522C119.566 51.6735 119.305 52.2708 118.782 52.6442C118.26 53.0175 117.438 53.2042 116.318 53.2042V52.0562C116.636 51.7388 116.85 51.5055 116.962 51.3562L116.85 51.2162C116.234 51.8695 115.572 52.3642 114.862 52.7002C114.172 53.0362 113.285 53.2042 112.202 53.2042ZM113.098 50.6562C114.069 50.6562 114.825 50.4695 115.366 50.0962C115.908 49.7228 116.178 49.1908 116.178 48.5002C116.178 47.8282 115.898 47.2962 115.338 46.9042C114.797 46.5122 114.06 46.3162 113.126 46.3162C112.268 46.3162 111.586 46.5122 111.082 46.9042C110.597 47.2775 110.354 47.8095 110.354 48.5002C110.354 49.2095 110.597 49.7508 111.082 50.1242C111.568 50.4788 112.24 50.6562 113.098 50.6562ZM122.703 35.7882C122.703 34.9295 123.001 34.2668 123.599 33.8002C124.196 33.3335 125.055 33.1002 126.175 33.1002V40.3802C125.932 40.6415 125.708 40.9402 125.503 41.2762L125.671 41.3882C126.959 39.5962 128.601 38.7002 130.599 38.7002C131.551 38.7002 132.391 38.9148 133.119 39.3442C133.847 39.7735 134.407 40.3615 134.799 41.1082C135.209 41.8548 135.415 42.6948 135.415 43.6282V51.0762C135.415 51.8228 135.125 52.3642 134.547 52.7002C133.968 53.0362 133.091 53.2042 131.915 53.2042V44.1322C131.915 43.4228 131.7 42.8442 131.271 42.3962C130.86 41.9482 130.253 41.7242 129.451 41.7242C128.499 41.7242 127.715 42.0228 127.099 42.6202C126.483 43.1988 126.175 43.9268 126.175 44.8042V51.0762C126.175 51.8228 125.885 52.3642 125.307 52.7002C124.728 53.0362 123.86 53.2042 122.703 53.2042V35.7882Z" fill="#00936C"/>
<path d="M55.8254 25.0173V21.8393C55.8254 20.9153 55.9701 20.1733 56.2594 19.6133C56.5488 19.044 56.9781 18.6333 57.5474 18.3813C58.1168 18.12 58.8168 17.9893 59.6474 17.9893C60.4874 17.9893 61.1921 18.12 61.7614 18.3813C62.3308 18.6333 62.7601 19.044 63.0494 19.6133C63.3388 20.1733 63.4834 20.9153 63.4834 21.8393V25.0173H55.8254ZM57.7014 24.2333L56.8054 23.3933H62.5034L61.6214 24.2333V21.8813C61.6214 21.3213 61.5654 20.878 61.4534 20.5513C61.3414 20.2153 61.1408 19.9773 60.8514 19.8373C60.5714 19.688 60.1701 19.6133 59.6474 19.6133C59.1341 19.6133 58.7328 19.688 58.4434 19.8373C58.1634 19.9773 57.9674 20.2153 57.8554 20.5513C57.7528 20.878 57.7014 21.3213 57.7014 21.8813V24.2333ZM57.8554 17.1493V15.5533H59.7314V17.1493H57.8554ZM59.7734 17.1493V15.5533H61.6494V17.1493H59.7734ZM67.2908 25.0173V23.3933H69.0968V25.0173H67.2908ZM64.5748 28.4893C64.4535 28.4893 64.3228 28.4847 64.1828 28.4753C64.0428 28.466 63.8981 28.452 63.7488 28.4333L63.8188 26.8373C63.9681 26.8467 64.1081 26.856 64.2388 26.8653C64.3788 26.8747 64.4815 26.8793 64.5468 26.8793C64.9108 26.8793 65.2001 26.7347 65.4148 26.4453C65.6388 26.156 65.7508 25.75 65.7508 25.2273V17.9893H67.6268V25.2273C67.6268 25.862 67.4961 26.4267 67.2348 26.9213C66.9828 27.416 66.6281 27.7987 66.1708 28.0693C65.7135 28.3493 65.1815 28.4893 64.5748 28.4893ZM69.0968 25.0173V23.3933C69.2088 23.3933 69.2835 23.468 69.3208 23.6173C69.3581 23.7573 69.3768 23.9533 69.3768 24.2053C69.3768 24.448 69.3581 24.644 69.3208 24.7933C69.2835 24.9427 69.2088 25.0173 69.0968 25.0173ZM77.3754 25.0173V23.3933H78.8594V25.0173H77.3754ZM69.1014 25.0173V23.3933H76.3674L75.5134 24.1213V21.5453C75.5134 21.0413 75.4574 20.6493 75.3454 20.3693C75.2334 20.08 75.0374 19.8793 74.7574 19.7673C74.4867 19.646 74.1087 19.5853 73.6234 19.5853C73.2407 19.5853 72.8627 19.6133 72.4894 19.6693C72.1254 19.716 71.8407 19.7813 71.6354 19.8653L72.7974 18.7733C72.7414 18.988 72.6854 19.2587 72.6294 19.5853C72.5827 19.912 72.5407 20.262 72.5034 20.6353C72.466 20.9993 72.4474 21.3587 72.4474 21.7133C72.4474 22.04 72.4614 22.3807 72.4894 22.7353C72.5267 23.09 72.564 23.4027 72.6014 23.6733C72.648 23.944 72.6854 24.1307 72.7134 24.2333L70.9354 24.7233C70.898 24.5927 70.8514 24.378 70.7954 24.0793C70.7394 23.7807 70.688 23.426 70.6414 23.0153C70.604 22.6047 70.5854 22.1707 70.5854 21.7133C70.5854 21.2467 70.6087 20.7987 70.6554 20.3693C70.702 19.9307 70.7534 19.5387 70.8094 19.1933C70.8747 18.8387 70.9354 18.554 70.9914 18.3393C71.2154 18.2553 71.5654 18.1713 72.0414 18.0873C72.5174 18.0033 73.0447 17.9613 73.6234 17.9613C74.4634 17.9613 75.1587 18.078 75.7094 18.3113C76.2694 18.5447 76.6847 18.9227 76.9554 19.4453C77.2354 19.968 77.3754 20.6727 77.3754 21.5593V25.0173H69.1014ZM69.1014 25.0173C68.9894 25.0173 68.9147 24.9427 68.8774 24.7933C68.84 24.644 68.8214 24.448 68.8214 24.2053C68.8214 23.9533 68.84 23.7573 68.8774 23.6173C68.9147 23.468 68.9894 23.3933 69.1014 23.3933V25.0173ZM78.8594 25.0173V23.3933C78.9714 23.3933 79.046 23.468 79.0834 23.6173C79.1207 23.7573 79.1394 23.9533 79.1394 24.2053C79.1394 24.448 79.1207 24.644 79.0834 24.7933C79.046 24.9427 78.9714 25.0173 78.8594 25.0173ZM78.8631 25.0173V23.3933H81.8311C82.2324 23.3933 82.6198 23.3187 82.9931 23.1693C83.3664 23.0107 83.7071 22.8053 84.0151 22.5533C84.3324 22.292 84.6078 22.0073 84.8411 21.6993C85.0838 21.382 85.2704 21.06 85.4011 20.7333C85.5411 20.4067 85.6111 20.0987 85.6111 19.8093V18.9133L86.5071 20.3973C86.0218 20.136 85.5271 19.94 85.0231 19.8093C84.5191 19.6787 84.0384 19.6133 83.5811 19.6133C83.1331 19.6133 82.6524 19.6787 82.1391 19.8093C81.6351 19.94 81.1451 20.136 80.6691 20.3973L81.5651 18.9133V19.8093C81.5651 20.0987 81.6304 20.4067 81.7611 20.7333C81.9011 21.06 82.0878 21.382 82.3211 21.6993C82.5544 22.0073 82.8298 22.292 83.1471 22.5533C83.4644 22.8053 83.8098 23.0107 84.1831 23.1693C84.5564 23.3187 84.9391 23.3933 85.3311 23.3933H88.2151V25.0173H85.9191C85.1911 25.0173 84.5098 24.9007 83.8751 24.6673C83.2404 24.434 82.6664 24.126 82.1531 23.7433C81.6398 23.3513 81.1964 22.9267 80.8231 22.4693C80.4591 22.0027 80.1791 21.5407 79.9831 21.0833C79.7871 20.6167 79.6891 20.192 79.6891 19.8093V19.0113C80.0904 18.7873 80.5151 18.6007 80.9631 18.4513C81.4204 18.302 81.8731 18.19 82.3211 18.1153C82.7784 18.0313 83.1984 17.9893 83.5811 17.9893C83.9731 17.9893 84.3931 18.0313 84.8411 18.1153C85.2891 18.19 85.7371 18.302 86.1851 18.4513C86.6424 18.6007 87.0718 18.7873 87.4731 19.0113V19.8093C87.4731 20.192 87.3751 20.6167 87.1791 21.0833C86.9831 21.5407 86.6984 22.0027 86.3251 22.4693C85.9611 22.9267 85.5224 23.3513 85.0091 23.7433C84.4958 24.126 83.9218 24.434 83.2871 24.6673C82.6524 24.9007 81.9711 25.0173 81.2431 25.0173H78.8631ZM78.8631 25.0173C78.7511 25.0173 78.6764 24.9427 78.6391 24.7933C78.6018 24.644 78.5831 24.448 78.5831 24.2053C78.5831 23.9533 78.6018 23.7573 78.6391 23.6173C78.6764 23.468 78.7511 23.3933 78.8631 23.3933V25.0173ZM88.2151 25.0173V23.3933C88.3271 23.3933 88.4018 23.468 88.4391 23.6173C88.4764 23.7573 88.4951 23.9533 88.4951 24.2053C88.4951 24.448 88.4764 24.644 88.4391 24.7933C88.4018 24.9427 88.3271 25.0173 88.2151 25.0173ZM89.7967 25.0173V15.1193H91.6727V25.0173H89.7967ZM88.2147 25.0173V23.3933H89.7967V25.0173H88.2147ZM88.2147 25.0173C88.1027 25.0173 88.028 24.9427 87.9907 24.7933C87.9533 24.644 87.9347 24.448 87.9347 24.2053C87.9347 23.9533 87.9533 23.7573 87.9907 23.6173C88.028 23.468 88.1027 23.3933 88.2147 23.3933V25.0173ZM93.918 25.0173V15.1193H95.78V25.0173H93.918ZM100.463 28.4893C100.117 28.4893 99.7534 28.4613 99.3707 28.4053C98.9974 28.3587 98.596 28.2933 98.1667 28.2093L98.4467 26.7113C98.9134 26.7673 99.31 26.8093 99.6367 26.8373C99.9634 26.8653 100.239 26.8793 100.463 26.8793C101.135 26.8793 101.62 26.758 101.919 26.5153C102.217 26.2727 102.367 25.9087 102.367 25.4233V19.2773L102.829 19.6133H101.079C100.696 19.6133 100.388 19.66 100.155 19.7533C99.9214 19.8373 99.7487 20.0193 99.6367 20.2993C99.534 20.57 99.4827 20.9853 99.4827 21.5453C99.4827 22.0773 99.5294 22.4787 99.6227 22.7493C99.7254 23.0107 99.8934 23.1833 100.127 23.2673C100.36 23.3513 100.677 23.3933 101.079 23.3933H102.367V25.0173H101.079C100.285 25.0173 99.632 24.8913 99.1187 24.6393C98.6054 24.3873 98.2227 24.0047 97.9707 23.4913C97.728 22.978 97.6067 22.3293 97.6067 21.5453C97.6067 20.7613 97.728 20.108 97.9707 19.5853C98.2227 19.0533 98.6054 18.6567 99.1187 18.3953C99.632 18.1247 100.285 17.9893 101.079 17.9893H104.243V25.4233C104.243 26.058 104.084 26.604 103.767 27.0613C103.459 27.528 103.02 27.8827 102.451 28.1253C101.891 28.368 101.228 28.4893 100.463 28.4893ZM113.48 27.3833V26.0953H114.782V27.3833H113.48ZM115.972 25.0173V23.3933H117.442V25.0173H115.972ZM117.442 25.0173V23.3933C117.554 23.3933 117.628 23.468 117.666 23.6173C117.703 23.7573 117.722 23.9533 117.722 24.2053C117.722 24.448 117.703 24.644 117.666 24.7933C117.628 24.9427 117.554 25.0173 117.442 25.0173ZM112.584 29.5393C111.828 29.5393 111.165 29.418 110.596 29.1753C110.036 28.9327 109.597 28.578 109.28 28.1113C108.972 27.654 108.818 27.108 108.818 26.4733C108.818 25.8293 108.972 25.2787 109.28 24.8213C109.597 24.364 110.036 24.014 110.596 23.7713C111.165 23.5193 111.832 23.3933 112.598 23.3933H114.11V21.3213C114.11 20.7613 113.932 20.3367 113.578 20.0473C113.223 19.758 112.672 19.6133 111.926 19.6133C111.692 19.6133 111.38 19.632 110.988 19.6693C110.605 19.7067 110.176 19.758 109.7 19.8233L109.532 18.3533C109.942 18.2507 110.367 18.1667 110.806 18.1013C111.244 18.0267 111.669 17.9893 112.08 17.9893C112.845 17.9893 113.517 18.1247 114.096 18.3953C114.684 18.6567 115.141 19.0347 115.468 19.5293C115.804 20.024 115.972 20.6213 115.972 21.3213V25.0173H112.598C111.935 25.0173 111.45 25.1387 111.142 25.3813C110.843 25.624 110.694 25.988 110.694 26.4733C110.694 26.9587 110.843 27.3227 111.142 27.5653C111.45 27.808 111.93 27.9293 112.584 27.9293C112.705 27.9293 112.84 27.92 112.99 27.9013C113.148 27.892 113.335 27.878 113.55 27.8593L113.662 29.4413C113.503 29.4693 113.33 29.4927 113.144 29.5113C112.957 29.53 112.77 29.5393 112.584 29.5393ZM124.697 25.0173V23.3933H126.181V25.0173H124.697ZM117.445 25.0173V23.3933H123.465L122.835 23.9113V21.3213C122.835 20.7613 122.658 20.3367 122.303 20.0473C121.958 19.758 121.407 19.6133 120.651 19.6133C120.436 19.6133 120.142 19.632 119.769 19.6693C119.396 19.6973 118.99 19.744 118.551 19.8093L118.369 18.3253C118.77 18.232 119.176 18.1527 119.587 18.0873C120.007 18.022 120.418 17.9893 120.819 17.9893C121.584 17.9893 122.256 18.1247 122.835 18.3953C123.414 18.6567 123.866 19.0347 124.193 19.5293C124.529 20.024 124.697 20.6213 124.697 21.3213V25.0173H117.445ZM117.445 25.0173C117.333 25.0173 117.258 24.9427 117.221 24.7933C117.184 24.644 117.165 24.448 117.165 24.2053C117.165 23.9533 117.184 23.7573 117.221 23.6173C117.258 23.468 117.333 23.3933 117.445 23.3933V25.0173ZM126.181 25.0173V23.3933C126.284 23.3933 126.354 23.468 126.391 23.6173C126.438 23.7573 126.461 23.9533 126.461 24.2053C126.461 24.448 126.438 24.644 126.391 24.7933C126.354 24.9427 126.284 25.0173 126.181 25.0173ZM127.763 25.0173V15.1193H129.639V25.0173H127.763ZM126.181 25.0173V23.3933H127.763V25.0173H126.181ZM126.181 25.0173C126.069 25.0173 125.995 24.9427 125.957 24.7933C125.92 24.644 125.901 24.448 125.901 24.2053C125.901 23.9533 125.92 23.7573 125.957 23.6173C125.995 23.468 126.069 23.3933 126.181 23.3933V25.0173ZM131.885 25.0173V15.1193H133.747V25.0173H131.885Z" fill="#6E7B6C"/>
</svg>
