<svg width="22" height="28" viewBox="0 0 22 28" fill="none" xmlns="http://www.w3.org/2000/svg">
<path d="M18.5676 4.69949C15.1576 0.449489 8.94761 -0.240511 4.69761 3.15949C0.447614 6.56949 -0.242386 12.7695 3.16761 17.0295L10.6176 26.3295C10.6276 26.3495 10.6476 26.3695 10.6676 26.3795C10.8076 26.4895 11.0076 26.4695 11.1276 26.3295L18.5776 17.0295C21.3976 13.4995 21.5076 8.36949 18.5676 4.69949ZM10.8676 15.7195C8.36761 15.7195 6.33761 13.6895 6.33761 11.1895C6.33761 8.68949 8.36761 6.65949 10.8676 6.65949C13.3676 6.65949 15.3976 8.68949 15.3976 11.1895C15.3976 13.6895 13.3676 15.7195 10.8676 15.7195Z" stroke="#00936D" stroke-width="2" stroke-miterlimit="10"/>
</svg>
