<svg width="39" height="56" viewBox="0 0 39 56" fill="none" xmlns="http://www.w3.org/2000/svg">
<path d="M9.83809 2.60958C15.9245 -0.926879 23.4057 -0.865067 29.4349 2.77149C35.4049 6.48212 39.0333 13.1045 38.9998 20.2283C38.8606 27.3054 34.9699 33.9579 30.1065 39.1005C27.2995 42.0821 24.1594 44.7186 20.7503 46.9561C20.3992 47.1591 20.0147 47.295 19.6156 47.3571C19.2315 47.3408 18.8574 47.2273 18.5271 47.0269C13.3225 43.6649 8.75643 39.3734 5.04864 34.3589C1.94606 30.1731 0.183396 25.116 0 19.8745L0.0138902 19.1119C0.267212 12.2701 3.96907 6.01973 9.83809 2.60958ZM22.0274 14.0254C19.5531 12.9737 16.7005 13.5451 14.8014 15.4728C12.9023 17.4005 12.3314 20.3043 13.3552 22.8283C14.379 25.3523 16.7956 26.9987 19.4766 26.9987C21.233 27.0113 22.9214 26.3078 24.1655 25.0449C25.4097 23.782 26.1063 22.0646 26.1001 20.2755C26.1094 17.5445 24.5016 15.0772 22.0274 14.0254Z" fill="#00936C"/>
<path opacity="0.4" d="M19.5 55.7143C27.1925 55.7143 33.4286 54.467 33.4286 52.9285C33.4286 51.39 27.1925 50.1428 19.5 50.1428C11.8074 50.1428 5.57141 51.39 5.57141 52.9285C5.57141 54.467 11.8074 55.7143 19.5 55.7143Z" fill="black"/>
<path d="M21.233 16.3472C19.552 15.6457 17.6139 16.0268 16.3237 17.3125C15.0335 18.5983 14.6456 20.535 15.3412 22.2184C16.0367 23.9018 17.6785 24.9999 19.5 24.9999C20.6933 25.0083 21.8404 24.5391 22.6857 23.6968C23.5309 22.8544 24.0042 21.709 24 20.5157C24.0063 18.6943 22.914 17.0487 21.233 16.3472Z" fill="#00936C"/>
</svg>
