<svg xmlns="http://www.w3.org/2000/svg" enable-background="new 0 0 512 512" viewBox="0 0 512 512" id="muharram"><path d="M502.409,501.236h-19.246V201.408l13.381-22.498c0.32-0.533,0.746-1.759,0.746-2.719
			c0.053-1.333,0.053-17.113,0.053-17.113c0-7.037-5.811-12.795-12.848-12.795h-1.333v-84.02h7.197c2.932,0,5.331-2.399,5.331-5.331
			c0-2.985-2.399-5.331-5.331-5.331h-3.252c3.785-18.02-10.822-29.855-27.136-38.171V5.433c0-2.932-2.399-5.331-5.331-5.331
			c-2.985,0-5.331,2.399-5.331,5.331v7.997c-16.474,8.37-30.974,20.205-27.189,38.171h-3.199c-2.985,0-5.331,2.346-5.331,5.331
			c0,2.932,2.346,5.331,5.331,5.331h7.144v84.02h-1.333c-7.037,0-12.795,5.758-12.795,12.795c0,0.053,0,0.053,0,0.053
			c0,0.373-0.053,2.719,0,17.06c0,0.907,0.427,2.186,0.746,2.719l13.381,22.498v60.616h-22.551v-18.606
			c0-15.941-12.955-28.949-28.895-28.949H364.49c5.598-13.808,8.477-28.469,8.477-43.663c0-59.176-92.923-106.198-111.582-115.047
			V31.556c0-2.932-2.399-5.331-5.331-5.331c-2.932,0-5.331,2.399-5.331,5.331V55.76c-18.713,8.85-111.636,55.871-111.636,115.047
			c0,15.248,2.879,29.908,8.476,43.663H137.38c-15.94,0-28.895,13.008-28.895,28.949v18.606H85.934v-60.669l13.381-22.445
			c0.32-0.48,0.746-1.759,0.746-2.719v-17.113c0-7.037-5.758-12.795-12.795-12.795h-1.333v-84.02h7.197
			c2.932,0,5.331-2.399,5.331-5.331c0-2.985-2.399-5.331-5.331-5.331h-3.252c3.785-18.02-10.823-29.855-27.136-38.171V5.433
			c0-2.932-2.399-5.331-5.331-5.331c-2.985,0-5.331,2.399-5.331,5.331v7.997C35.607,21.8,21.107,33.635,24.892,51.601h-3.199
			c-2.985,0-5.331,2.346-5.331,5.331c0,2.932,2.346,5.331,5.331,5.331h7.144v84.02h-1.333c-7.037,0-12.848,5.758-12.848,12.795
			v17.113h0.053c0,0.907,0.427,2.186,0.746,2.719l13.381,22.498v299.827H9.591c-2.986,0-5.331,2.399-5.331,5.331
			s2.345,5.331,5.331,5.331h492.817c2.986,0,5.331-2.399,5.331-5.331S505.394,501.236,502.409,501.236z M57.412,22.653
			c14.394,7.357,25.59,16.1,21.485,28.948H35.874C31.556,38.273,43.125,29.903,57.412,22.653z M75.272,62.264v83.967H39.499V62.264
			H75.272z M75.272,501.236H39.499V205.3h35.772V501.236z M77.564,194.638H37.207l-7.837-13.115h56.031L77.564,194.638z
			 M392.852,501.236h-65.84V360.172c0-39.238-66-69.252-68.826-70.532c-1.386-0.64-2.985-0.64-4.371,0
			c-2.772,1.279-68.826,31.294-68.826,70.532v141.064h-65.84V243.418c0-10.076,8.157-18.286,18.233-18.286H374.62
			c10.076,0,18.233,8.21,18.233,18.286V501.236z M436.728,62.264h35.772v83.967h-35.772V62.264z M472.501,501.236h-35.772V205.3
			h35.772V501.236z M474.793,194.638h-40.357l-7.837-13.115h56.031L474.793,194.638z"></path></svg>