<svg width="24" height="23" viewBox="0 0 24 23" fill="none" xmlns="http://www.w3.org/2000/svg">
<path d="M5.8703 7.00408C5.8703 10.3839 8.61955 13.1332 11.9994 13.1332C15.3798 13.1332 18.1291 10.3839 18.1291 7.00408C18.1291 3.62423 15.3792 0.875 11.9994 0.875C8.61955 0.875 5.8703 3.62425 5.8703 7.00408ZM6.94406 7.00408C6.94406 4.21666 9.21196 1.94875 11.9994 1.94875C14.7874 1.94875 17.0553 4.21667 17.0553 7.00408C17.0553 9.79149 14.7874 12.0594 11.9994 12.0594C9.21196 12.0594 6.94406 9.7915 6.94406 7.00408Z" fill="#515151" stroke="#515151" stroke-width="0.25"/>
<path d="M0.875 22.1716V22.2966H1H22.9994H23H23.125V22.1716V19.6239C23.125 17.1485 21.1109 15.135 18.6362 15.135H5.36385C2.88845 15.135 0.875 17.1485 0.875 19.6239V22.1716ZM22.0506 21.2234H1.94815V19.6245C1.94815 17.7415 3.48025 16.2094 5.36324 16.2094H18.6355C20.5185 16.2094 22.0506 17.7415 22.0506 19.6245V21.2234Z" fill="#515151" stroke="#515151" stroke-width="0.25"/>
</svg>
