<svg width="34" height="34" viewBox="0 0 34 34" fill="none" xmlns="http://www.w3.org/2000/svg">
<rect width="34" height="34" rx="6" fill="#00936C" fill-opacity="0.08"/>
<path d="M19.7501 10.583V12.4163" stroke="#00936C" stroke-width="1.5" stroke-linecap="round" stroke-linejoin="round"/>
<path d="M19.7501 16.083V17.9163" stroke="#00936C" stroke-width="1.5" stroke-linecap="round" stroke-linejoin="round"/>
<path d="M19.7501 21.583V23.4163" stroke="#00936C" stroke-width="1.5" stroke-linecap="round" stroke-linejoin="round"/>
<path d="M10.5833 10.583H23.4167C24.4292 10.583 25.25 11.4038 25.25 12.4163V15.1663C24.2375 15.1663 23.4167 15.9872 23.4167 16.9997C23.4167 18.0122 24.2375 18.833 25.25 18.833V21.583C25.25 22.5955 24.4292 23.4163 23.4167 23.4163H10.5833C9.57081 23.4163 8.75 22.5955 8.75 21.583V18.833C9.76252 18.833 10.5833 18.0122 10.5833 16.9997C10.5833 15.9872 9.76252 15.1663 8.75 15.1663V12.4163C8.75 11.4038 9.57081 10.583 10.5833 10.583" stroke="#00936C" stroke-width="1.5" stroke-linecap="round" stroke-linejoin="round"/>
</svg>
