<svg width="62" height="62" viewBox="0 0 62 62" fill="none" xmlns="http://www.w3.org/2000/svg">
<circle cx="31" cy="31" r="31" fill="#E7EEF5"/>
<g clip-path="url(#clip0_183_32072)">
<path d="M25.1668 42.6667C24.548 42.6667 23.9545 42.4209 23.5169 41.9833C23.0793 41.5457 22.8335 40.9523 22.8335 40.3334V21.6667C22.8335 21.0479 23.0793 20.4544 23.5169 20.0168C23.9545 19.5792 24.548 19.3334 25.1668 19.3334H36.8335C37.4523 19.3334 38.0458 19.5792 38.4834 20.0168C38.921 20.4544 39.1668 21.0479 39.1668 21.6667V40.3334C39.1668 40.9523 38.921 41.5457 38.4834 41.9833C38.0458 42.4209 37.4523 42.6667 36.8335 42.6667H25.1668Z" stroke="#0A549C" stroke-width="1.75" stroke-linecap="round" stroke-linejoin="round"/>
<path d="M35.411 28.5595C35.4085 28.5661 35.4056 28.572 35.4024 28.5773C35.4009 28.5798 35.3994 28.5821 35.3979 28.5841C35.3805 28.6211 35.3565 28.6546 35.3271 28.6829C34.9087 29.3673 34.3328 29.9419 33.6474 30.3588C32.9588 30.7775 32.1798 31.0248 31.3759 31.08C31.3131 31.0885 31.2498 31.092 31.1865 31.0903M35.411 28.5595L31.1878 30.9903M35.411 28.5595C35.4236 28.5381 35.4345 28.5185 35.4449 28.4998L35.4451 28.4994C35.4575 28.477 35.4691 28.4562 35.483 28.4331L35.4913 28.4192C35.4914 28.4191 35.4914 28.419 35.4915 28.4189L35.4972 28.4093V28.4079C35.4986 28.4048 35.5 28.4015 35.5011 28.3981C35.6265 28.1621 35.7325 27.9163 35.8179 27.6631C36.0043 27.1285 36.0997 26.5664 36.1 26.0003V26.0002C36.1 25.8679 36.0899 25.7363 36.0801 25.6091L36.08 25.6084C36.08 25.6082 36.08 25.608 36.08 25.6077C36.0654 25.3809 36.035 25.1553 35.9893 24.9327L35.9893 24.9326L35.9889 24.9309C35.9404 24.715 35.8765 24.503 35.7976 24.2963C35.725 24.0828 35.6377 23.8745 35.5362 23.6731M35.411 28.5595L26.6111 28.5833M31.1865 31.0903C31.186 31.0903 31.1855 31.0903 31.185 31.0903L31.1878 30.9903M31.1865 31.0903C31.1869 31.0903 31.1873 31.0903 31.1878 31.0903V30.9903M31.1865 31.0903C31.1617 31.0904 31.134 31.0925 31.1016 31.095L31.0997 31.0951C31.0697 31.0974 31.0353 31.1001 31.0026 31.1002M31.1878 30.9903C31.1581 30.9903 31.126 30.9928 31.0939 30.9953C31.0618 30.9977 31.0297 31.0002 31 31.0002M31.0026 31.1002C31.0035 31.1002 31.0044 31.1001 31.0054 31.1001L31 31.0002M31.0026 31.1002C30.9702 31.1017 30.9378 31.099 30.9062 31.0921M31.0026 31.1002C31.0017 31.1002 31.0009 31.1002 31 31.1002V31.0002M31 31.0002L30.9062 31.0921M30.9062 31.0921C30.9141 31.0912 30.922 31.09 30.9298 31.0886L30.9111 30.9903L30.8839 31.0866C30.8913 31.0887 30.8988 31.0905 30.9062 31.0921ZM30.9062 31.0921C30.8792 31.0952 30.8518 31.0946 30.8248 31.0905M30.9062 31.0921L30.832 30.9903M30.8248 31.0905C30.8282 31.0905 30.8316 31.0904 30.8349 31.0903L30.832 30.9903M30.8248 31.0905C30.821 31.0899 30.8171 31.0893 30.8133 31.0886L30.832 30.9903M30.8248 31.0905C30.7676 31.0916 30.7104 31.0881 30.6538 31.08M30.832 30.9903C30.7759 30.992 30.7196 30.9887 30.664 30.9804M30.6538 31.08C30.6552 31.0801 30.6566 31.0802 30.658 31.0803L30.664 30.9804M30.6538 31.08C29.8446 31.0304 29.0594 30.7858 28.3652 30.3668C27.6729 29.949 27.0917 29.3702 26.671 28.6797M30.6538 31.08C30.6523 31.0798 30.6509 31.0796 30.6494 31.0794L30.664 30.9804M30.664 30.9804L26.671 28.6797M26.671 28.6797C26.6739 28.6828 26.6768 28.6859 26.6797 28.6889L26.751 28.6188L26.6655 28.6706C26.6673 28.6737 26.6692 28.6767 26.671 28.6797ZM26.671 28.6797C26.6454 28.6515 26.6251 28.6188 26.6111 28.5833M26.671 28.6797L26.6158 28.5911C26.6142 28.5885 26.6127 28.5859 26.6111 28.5833M26.6111 28.5833C26.1457 27.8021 25.9 26.9096 25.9 26.0002C25.9 25.097 26.1424 24.2106 26.6016 23.4332V23.4235L26.6155 23.4C27.3014 22.2387 28.4204 21.3973 29.7265 21.0608C31.0322 20.7245 32.418 20.9203 33.5794 21.6052M35.5362 23.6731C35.5363 23.6733 35.5364 23.6734 35.5364 23.6736L35.4466 23.7176L35.5359 23.6726C35.536 23.6728 35.5361 23.6729 35.5362 23.6731ZM35.5362 23.6731C35.4952 23.5896 35.4492 23.5086 35.3984 23.4306M35.3984 23.4306V23.4243L35.3853 23.4013C35.3694 23.3734 35.3509 23.3471 35.3302 23.3226M35.3984 23.4306V23.4508V23.4607H35.2984L35.3131 23.4508L35.3815 23.405C35.3872 23.4135 35.3928 23.422 35.3984 23.4306ZM35.3302 23.3226C35.0254 22.8204 34.6345 22.3759 34.1754 22.0093M35.3302 23.3226C35.3317 23.3251 35.3331 23.3275 35.3346 23.3299L35.249 23.3816L35.3241 23.3156C35.3261 23.3179 35.3282 23.3203 35.3302 23.3226ZM34.1754 22.0093C33.9889 21.8575 33.7895 21.7222 33.5794 21.6052M34.1754 22.0093C34.1756 22.0094 34.1757 22.0095 34.1758 22.0096L34.1127 22.0872L34.175 22.009C34.1752 22.0091 34.1753 22.0092 34.1754 22.0093ZM33.5794 21.6052C33.5798 21.6054 33.5801 21.6056 33.5805 21.6058L33.5297 21.6919L33.5783 21.6046C33.5787 21.6048 33.579 21.605 33.5794 21.6052ZM28.1629 26L28.1629 26.0004C28.1635 26.4967 28.2019 26.9923 28.2775 27.4828C27.9082 27.5614 27.546 27.6707 27.1949 27.8095C26.9231 27.2437 26.7818 26.6237 26.7818 25.9953C26.7818 25.3676 26.9228 24.7483 27.1939 24.183C27.5427 24.3295 27.9058 24.4392 28.2774 24.51C28.2022 25.0031 28.1639 25.5011 28.1629 26ZM29.0633 24.5477L29.0484 24.6465C29.0805 24.6514 29.1125 24.656 29.1446 24.6606C29.1501 24.629 29.1557 24.5974 29.1616 24.5659L29.0633 24.5477ZM29.1446 27.3401C29.1126 27.3445 29.0806 27.3491 29.0486 27.3539L29.0633 27.4528L29.1616 27.4345C29.1557 27.4031 29.1501 27.3716 29.1446 27.3401ZM30.6627 27.2243C30.6298 27.2248 30.5969 27.2253 30.564 27.2261V27.3243H30.664L30.6627 27.2243ZM30.564 24.6761V24.7746C30.597 24.7752 30.63 24.7757 30.6629 24.7761L30.664 24.6761H30.564ZM32.9751 26.0002L32.9751 26.001C32.9784 26.4469 32.9416 26.8921 32.8652 27.3313C32.7449 27.3157 32.6199 27.3 32.4951 27.2845L32.4946 27.2844L32.4946 27.2843L32.4909 27.284L32.4899 27.2839C32.2636 27.2642 32.0349 27.2443 31.7959 27.2343C31.6779 27.2265 31.5543 27.2248 31.436 27.2244V24.7736C31.85 24.7617 32.2626 24.7328 32.65 24.6867C32.7223 24.6813 32.7944 24.6732 32.8662 24.6624C32.9155 24.9392 32.9486 25.2186 32.9652 25.4992C32.9653 25.5837 32.9678 25.6679 32.9702 25.7505L32.9702 25.7512C32.9727 25.8354 32.9751 25.9179 32.9751 26.0002ZM35.1214 25.0618L35.1214 25.0618L35.1221 25.065C35.1736 25.2798 35.2058 25.4988 35.2183 25.7193L35.2183 25.7193L35.2186 25.7223C35.2265 25.8141 35.2297 25.9063 35.2281 25.9985L35.2281 26.0002C35.228 26.627 35.0867 27.2453 34.8152 27.8093C34.4644 27.6694 34.1021 27.5601 33.7324 27.4825C33.8081 26.9921 33.8465 26.4966 33.847 26.0003V26.0002V25.9981C33.847 25.8922 33.847 25.7813 33.8372 25.6697V25.437H33.8375L33.8368 25.4284C33.8099 25.114 33.7748 24.8077 33.7316 24.5093C33.8543 24.4855 33.9734 24.4601 34.093 24.4284C34.1083 24.4256 34.1228 24.4196 34.1356 24.4108C34.3689 24.3552 34.5969 24.2793 34.8169 24.184C34.8863 24.3279 34.9461 24.4763 34.9959 24.6282L34.9958 24.6282L34.9973 24.6323C35.0499 24.7719 35.0914 24.9156 35.1214 25.0618ZM33.2671 22.4375L33.2671 22.4375L33.2688 22.4386C33.4672 22.5636 33.6543 22.7056 33.8282 22.8629L33.8284 22.8631C34.0208 23.0362 34.1957 23.2275 34.3509 23.4343C34.1007 23.5277 33.8429 23.5996 33.5803 23.649L33.5803 23.6488L33.5746 23.6502C33.5644 23.6528 33.5533 23.6554 33.5416 23.658C33.4636 23.3794 33.3683 23.1058 33.2562 22.839L33.2562 22.839L33.2556 22.8374C33.167 22.636 33.0655 22.4406 32.9519 22.2525C33.06 22.3086 33.1652 22.3703 33.2671 22.4375ZM30.564 28.0977V30.0788C30.2526 29.8708 29.9842 29.6038 29.7741 29.2924C29.5498 28.9597 29.3976 28.5843 29.3266 28.1902C29.737 28.1364 30.1502 28.1056 30.564 28.0977ZM32.6781 28.1916C32.5166 28.907 32.129 29.5525 31.5713 30.0316C31.5278 30.0615 31.4826 30.0888 31.436 30.1134V28.0963H31.5809C31.8143 28.106 32.0384 28.1255 32.2649 28.1452C32.4044 28.1607 32.5437 28.1762 32.6781 28.1916ZM32.6828 23.8094C32.2691 23.86 31.8528 23.888 31.436 23.8934V21.9119C31.7492 22.1213 32.0193 22.3898 32.2308 22.7029C32.4565 23.0368 32.6103 23.4136 32.6828 23.8094ZM29.7742 22.708C29.9842 22.3966 30.2526 22.1297 30.564 21.9217V23.8935C30.1504 23.8883 29.7373 23.8603 29.3267 23.8095C29.3978 23.4156 29.5501 23.0405 29.7742 22.708ZM29.0676 29.7625C28.5147 29.4727 28.0311 29.0651 27.6515 28.5674C27.9177 28.4714 28.1899 28.3926 28.4663 28.3315C28.5987 28.8348 28.8012 29.3165 29.0676 29.7625ZM32.9481 29.7545C33.2088 29.3121 33.4091 28.8364 33.5433 28.3399C33.817 28.3964 34.0863 28.4724 34.3492 28.5674C33.9746 29.062 33.4959 29.4671 32.9481 29.7545ZM27.6603 23.4324C28.0339 22.9337 28.5158 22.5275 29.0685 22.2436C28.8035 22.6843 28.6035 23.1615 28.4752 23.6604C28.1985 23.6037 27.9262 23.5276 27.6603 23.4324Z" fill="#0A549C" stroke="#0A549C" stroke-width="0.2"/>
<path d="M35.1667 34H27" stroke="#0A549C" stroke-width="1.75" stroke-linecap="round" stroke-linejoin="round"/>
<path d="M27 38H35.1667" stroke="#0A549C" stroke-width="1.75" stroke-linecap="round" stroke-linejoin="round"/>
</g>
<defs>
<clipPath id="clip0_183_32072">
<rect width="28" height="28" fill="white" transform="translate(17 17)"/>
</clipPath>
</defs>
</svg>
