<svg width="33" height="34" viewBox="0 0 33 34" fill="none" xmlns="http://www.w3.org/2000/svg">
<g clip-path="url(#clip0_313_98675)">
<path d="M15.2178 15.5332C15.2884 16.4974 15.4641 17.3879 15.7297 18.1057C16.0648 19.0115 16.4162 19.281 16.4985 19.307C16.5808 19.281 16.9322 19.0115 17.2674 18.1057C17.5329 17.3878 17.7086 16.4973 17.7793 15.5332H15.2178Z" fill="#0A549C"/>
<path d="M11.8535 13.5921H13.2728C13.341 12.5245 13.5215 11.5198 13.8 10.6626C12.819 11.3435 12.1057 12.3839 11.8535 13.5921Z" fill="#0A549C"/>
<path d="M13.2728 15.5333H11.8535C12.1057 16.7416 12.819 17.782 13.8 18.4628C13.5215 17.6057 13.3411 16.601 13.2728 15.5333Z" fill="#0A549C"/>
<path d="M17.2693 11.0196C16.9342 10.1138 16.5828 9.84433 16.5005 9.81836C16.4182 9.84433 16.0668 10.1138 15.7316 11.0196C15.4661 11.7375 15.2904 12.628 15.2197 13.592H17.7812C17.7106 12.6279 17.5349 11.7375 17.2693 11.0196Z" fill="#0A549C"/>
<path d="M19.7255 15.5333C19.6572 16.601 19.4767 17.6057 19.1982 18.4628C20.1793 17.782 20.8926 16.7415 21.1447 15.5333H19.7255Z" fill="#0A549C"/>
<path d="M19.1982 10.6626C19.4767 11.5198 19.6572 12.5245 19.7255 13.5921H21.1447C20.8926 12.3839 20.1792 11.3435 19.1982 10.6626Z" fill="#0A549C"/>
<path d="M24.8923 0.5H5.98232C5.44626 0.5 5.01172 0.934543 5.01172 1.4706V32.5294C5.01172 33.0655 5.44626 33.5 5.98232 33.5H24.8923C26.5997 33.5 27.9887 32.1109 27.9887 30.4035V3.59646C27.9887 1.88903 26.5997 0.5 24.8923 0.5ZM21.5691 26.1239H11.4313C10.8953 26.1239 10.4607 25.6893 10.4607 25.1533C10.4607 24.6172 10.8953 24.1827 11.4313 24.1827H21.5691C22.1052 24.1827 22.5397 24.6172 22.5397 25.1533C22.5397 25.6893 22.1051 26.1239 21.5691 26.1239ZM16.5002 21.2493C12.8133 21.2493 9.81367 18.2497 9.81367 14.5627C9.81367 10.8757 12.8132 7.87614 16.5002 7.87614C20.1873 7.87614 23.1868 10.8757 23.1868 14.5627C23.1868 18.2497 20.1873 21.2493 16.5002 21.2493Z" fill="#0A549C"/>
</g>
<defs>
<clipPath id="clip0_313_98675">
<rect width="33" height="33" fill="white" transform="translate(0 0.5)"/>
</clipPath>
</defs>
</svg>
