<svg width="62" height="62" viewBox="0 0 62 62" fill="none" xmlns="http://www.w3.org/2000/svg">
<circle cx="31" cy="31" r="31" fill="#E7EEF5"/>
<g clip-path="url(#clip0_183_32086)">
<path d="M27.5 28.6667C27.5 29.595 27.8687 30.4852 28.5251 31.1416C29.1815 31.798 30.0717 32.1667 31 32.1667C31.9283 32.1667 32.8185 31.798 33.4749 31.1416C34.1313 30.4852 34.5 29.595 34.5 28.6667C34.5 27.7385 34.1313 26.8483 33.4749 26.1919C32.8185 25.5355 31.9283 25.1667 31 25.1667C30.0717 25.1667 29.1815 25.5355 28.5251 26.1919C27.8687 26.8483 27.5 27.7385 27.5 28.6667Z" stroke="#0A549C" stroke-width="1.75" stroke-linecap="round" stroke-linejoin="round"/>
<path d="M24 41.5001V40.3334C24 39.0957 24.4917 37.9088 25.3668 37.0336C26.242 36.1584 27.429 35.6667 28.6667 35.6667H33.3333C34.571 35.6667 35.758 36.1584 36.6332 37.0336C37.5083 37.9088 38 39.0957 38 40.3334V41.5001" stroke="#0A549C" stroke-width="1.75" stroke-linecap="round" stroke-linejoin="round"/>
<path d="M20.5 22.8333C20.5 22.2145 20.7458 21.621 21.1834 21.1834C21.621 20.7458 22.2145 20.5 22.8333 20.5H39.1667C39.7855 20.5 40.379 20.7458 40.8166 21.1834C41.2542 21.621 41.5 22.2145 41.5 22.8333V39.1667C41.5 39.7855 41.2542 40.379 40.8166 40.8166C40.379 41.2542 39.7855 41.5 39.1667 41.5H22.8333C22.2145 41.5 21.621 41.2542 21.1834 40.8166C20.7458 40.379 20.5 39.7855 20.5 39.1667V22.8333Z" stroke="#0A549C" stroke-width="1.75" stroke-linecap="round" stroke-linejoin="round"/>
</g>
<defs>
<clipPath id="clip0_183_32086">
<rect width="28" height="28" fill="white" transform="translate(17 17)"/>
</clipPath>
</defs>
</svg>
