<svg width="24" height="24" viewBox="0 0 24 24" fill="none" xmlns="http://www.w3.org/2000/svg">
<path d="M22.8214 10.8456H13.0714V1.12752C13.0714 0.483222 12.5893 0 11.9464 0C11.3036 0 10.8214 0.483222 10.8214 1.12752V10.8993H1.125C0.482143 10.8456 0 11.3289 0 11.9732C0 12.6175 0.482143 13.1007 1.125 13.1007H10.875V22.8725C10.875 23.5168 11.3571 24 12 24C12.6429 24 13.125 23.5168 13.125 22.8725V13.047H22.875C23.5179 13.047 24 12.5638 24 11.9195C24 11.2752 23.4107 10.8456 22.8214 10.8456Z" fill="#00936C"/>
</svg>
