<svg width="62" height="62" viewBox="0 0 62 62" fill="none" xmlns="http://www.w3.org/2000/svg">
<circle cx="31" cy="31" r="31" fill="#E7EEF5"/>
<g clip-path="url(#clip0_183_32103)">
<path d="M34.5 22.8333V25.1666" stroke="#0A549C" stroke-width="1.75" stroke-linecap="round" stroke-linejoin="round"/>
<path d="M34.5 29.8333V32.1666" stroke="#0A549C" stroke-width="1.75" stroke-linecap="round" stroke-linejoin="round"/>
<path d="M34.5 36.8333V39.1666" stroke="#0A549C" stroke-width="1.75" stroke-linecap="round" stroke-linejoin="round"/>
<path d="M22.8333 22.8333H39.1667C39.7855 22.8333 40.379 23.0791 40.8166 23.5167C41.2542 23.9543 41.5 24.5477 41.5 25.1666V28.6666C40.8812 28.6666 40.2877 28.9124 39.8501 29.35C39.4125 29.7876 39.1667 30.3811 39.1667 30.9999C39.1667 31.6188 39.4125 32.2122 39.8501 32.6498C40.2877 33.0874 40.8812 33.3333 41.5 33.3333V36.8333C41.5 37.4521 41.2542 38.0456 40.8166 38.4832C40.379 38.9208 39.7855 39.1666 39.1667 39.1666H22.8333C22.2145 39.1666 21.621 38.9208 21.1834 38.4832C20.7458 38.0456 20.5 37.4521 20.5 36.8333V33.3333C21.1188 33.3333 21.7123 33.0874 22.1499 32.6498C22.5875 32.2122 22.8333 31.6188 22.8333 30.9999C22.8333 30.3811 22.5875 29.7876 22.1499 29.35C21.7123 28.9124 21.1188 28.6666 20.5 28.6666V25.1666C20.5 24.5477 20.7458 23.9543 21.1834 23.5167C21.621 23.0791 22.2145 22.8333 22.8333 22.8333Z" stroke="#0A549C" stroke-width="1.75" stroke-linecap="round" stroke-linejoin="round"/>
</g>
<defs>
<clipPath id="clip0_183_32103">
<rect width="28" height="28" fill="white" transform="translate(17 17)"/>
</clipPath>
</defs>
</svg>
