<svg width="28" height="25" viewBox="0 0 28 25" fill="none" xmlns="http://www.w3.org/2000/svg">
<path fill-rule="evenodd" clip-rule="evenodd" d="M19.4532 16.0921L26.7588 22.804C27.0156 23.0401 27.1597 23.3602 27.1596 23.694C27.1595 24.0277 27.0151 24.3478 26.7581 24.5837C26.5011 24.8196 26.1527 24.9521 25.7894 24.952C25.4262 24.9518 25.0778 24.8191 24.821 24.5831L17.5154 17.8711C15.3315 19.4252 12.5852 20.1565 9.83522 19.9163C7.08523 19.6761 4.53813 18.4825 2.71207 16.5782C0.886009 14.6739 -0.081835 12.2019 0.00542668 9.66529C0.0926884 7.12865 1.2285 4.71782 3.1818 2.92325C5.13511 1.12867 7.75917 0.0851563 10.5202 0.0049857C13.2812 -0.0751849 15.9717 0.814011 18.0445 2.49168C20.1172 4.16935 21.4165 6.50948 21.6779 9.036C21.9394 11.5625 21.1433 14.0856 19.4518 16.0921H19.4532ZM10.8644 17.4657C13.0252 17.4657 15.0976 16.677 16.6255 15.2732C18.1535 13.8695 19.0119 11.9655 19.0119 9.98025C19.0119 7.99499 18.1535 6.09104 16.6255 4.68725C15.0976 3.28346 13.0252 2.49482 10.8644 2.49482C8.7035 2.49482 6.63115 3.28346 5.1032 4.68725C3.57524 6.09104 2.71685 7.99499 2.71685 9.98025C2.71685 11.9655 3.57524 13.8695 5.1032 15.2732C6.63115 16.677 8.7035 17.4657 10.8644 17.4657Z" fill="#484848"/>
</svg>
