<svg width="163" height="51" viewBox="0 0 163 51" fill="none" xmlns="http://www.w3.org/2000/svg">
<path d="M132.054 31.1252H126.668V31.1373V34.6318V41.9341V45.4287V45.4407H130.163V45.4287H132.042H135.537V41.9341V34.6318V31.1373H132.054V31.1252ZM130.163 41.9221V34.6198H132.042V41.9221H130.163Z" fill="#6E7B6C"/>
<path d="M162.336 39.946V31.041H161.421H158.842H156.962H154.046H153.468V41.8379H151.515V34.5355V31.041H148.021H146.069H142.574V34.5355V36.4394H140.767V31.041H137.272V45.3444H140.767V39.946H142.574V41.8499V45.3444H146.069H148.021H151.515H153.468H156.962H162.336V41.8499H156.962V34.5476H158.842V39.946H162.336ZM146.069 41.8499V34.5476H148.021V41.8499H146.069Z" fill="#6E7B6C"/>
<path d="M162.336 25.8477H140.008V29.3422H162.336V25.8477Z" fill="#00936C"/>
<path d="M162.216 15.5565L152.528 10.7124L142.827 15.5565V18.798H146.057V17.5568L152.528 14.3154L158.842 17.4725V20.6416H139.598V18.9426V17.3038V15.436H126.668V15.5565V18.798V18.9426H136.103V20.6416H126.668V20.6658V22.654V24.1362V25.8473V29.3418H133.127V28.9923V27.1246V25.8473H130.163V24.1362H162.336" fill="#6E7B6C"/>
<path d="M138.296 25.8477H134.802V29.3422H138.296V25.8477Z" fill="#6E7B6C"/>
<path d="M133.537 4.54287V3.81987C133.537 3.67527 133.452 3.55477 133.332 3.49452C133.356 3.45837 133.368 3.42222 133.368 3.37402V2.92816C133.488 2.92816 133.609 2.90406 133.741 2.87996C134.163 2.75946 134.501 2.49436 134.717 2.14491C134.561 2.25336 134.392 2.33771 134.199 2.38591C133.332 2.61486 132.44 2.10876 132.211 1.25321C132.091 0.819404 132.163 0.373552 132.38 0C131.837 0.385602 131.572 1.07246 131.753 1.73521C131.898 2.25336 132.271 2.63896 132.741 2.81971C132.741 2.83176 132.741 2.84381 132.741 2.86791V3.37402C132.741 3.41017 132.753 3.45837 132.777 3.49452C132.657 3.55477 132.585 3.67527 132.585 3.81987V4.55492C129.415 4.86822 126.837 7.59154 126.752 10.9294V14.2191H130.247V10.9294C130.054 9.06164 131.476 7.49514 133.079 7.42284C134.766 7.35053 136.38 8.95319 136.188 10.9294V14.2191H139.682V10.9294C139.574 7.47104 136.802 4.72362 133.537 4.54287Z" fill="#00936C"/>
<path d="M1.416 29.5629C1.416 28.7949 1.688 28.2109 2.232 27.8109C2.776 27.3949 3.576 27.1869 4.632 27.1869V34.3389H11.808V29.5629C11.808 28.7789 12.08 28.1869 12.624 27.7869C13.184 27.3869 13.984 27.1869 15.024 27.1869V42.0429C15.024 42.8109 14.744 43.4029 14.184 43.8189C13.64 44.2189 12.848 44.4189 11.808 44.4189V37.1229H4.632V42.0429C4.632 42.8109 4.352 43.4029 3.792 43.8189C3.248 44.2189 2.456 44.4189 1.416 44.4189V29.5629ZM21.8297 44.4189C21.0137 44.4189 20.2617 44.2589 19.5737 43.9389C18.9017 43.6189 18.3577 43.1629 17.9417 42.5709C17.5417 41.9629 17.3417 41.2429 17.3417 40.4109C17.3417 39.5789 17.5577 38.8589 17.9897 38.2509C18.4217 37.6269 19.0057 37.1549 19.7417 36.8349C20.4937 36.4989 21.3177 36.3309 22.2137 36.3309C22.9497 36.3309 23.6057 36.4509 24.1817 36.6909C24.7737 36.9149 25.3177 37.2589 25.8137 37.7229L25.9337 37.6029C25.7897 37.4589 25.5417 37.2429 25.1897 36.9549V36.4749C25.1897 35.8189 24.9577 35.2989 24.4937 34.9149C24.0297 34.5309 23.3817 34.3389 22.5497 34.3389C21.0617 34.3389 19.9657 34.8829 19.2617 35.9709C18.9097 35.8589 18.6137 35.6829 18.3737 35.4429C18.1337 35.1869 18.0137 34.9149 18.0137 34.6269C18.0137 34.1469 18.2297 33.7069 18.6617 33.3069C19.0937 32.9069 19.6777 32.5869 20.4137 32.3469C21.1497 32.1069 21.9497 31.9869 22.8137 31.9869C24.5097 31.9869 25.8217 32.3869 26.7497 33.1869C27.6777 33.9709 28.1417 35.0429 28.1417 36.4029V42.4029C28.1417 43.1069 27.9177 43.6189 27.4697 43.9389C27.0217 44.2589 26.3177 44.4189 25.3577 44.4189V43.4349C25.6297 43.1629 25.8137 42.9629 25.9097 42.8349L25.8137 42.7149C25.2857 43.2749 24.7177 43.6989 24.1097 43.9869C23.5177 44.2749 22.7577 44.4189 21.8297 44.4189ZM22.5977 42.2349C23.4297 42.2349 24.0777 42.0749 24.5417 41.7549C25.0057 41.4349 25.2377 40.9789 25.2377 40.3869C25.2377 39.8109 24.9977 39.3549 24.5177 39.0189C24.0537 38.6829 23.4217 38.5149 22.6217 38.5149C21.8857 38.5149 21.3017 38.6829 20.8697 39.0189C20.4537 39.3389 20.2457 39.7949 20.2457 40.3869C20.2457 40.9949 20.4537 41.4589 20.8697 41.7789C21.2857 42.0829 21.8617 42.2349 22.5977 42.2349ZM33.6463 30.8589C33.0703 30.8589 32.5903 30.6909 32.2063 30.3549C31.8383 30.0029 31.6543 29.5549 31.6543 29.0109C31.6543 28.4829 31.8383 28.0509 32.2063 27.7149C32.5903 27.3629 33.0703 27.1869 33.6463 27.1869C34.2223 27.1869 34.6943 27.3629 35.0623 27.7149C35.4463 28.0509 35.6383 28.4829 35.6383 29.0109C35.6383 29.5549 35.4463 30.0029 35.0623 30.3549C34.6943 30.6909 34.2223 30.8589 33.6463 30.8589ZM30.8143 49.2189C29.9023 49.2189 29.1583 49.0029 28.5823 48.5709C28.0223 48.1389 27.7423 47.6109 27.7423 46.9869C27.7423 46.4429 27.9503 46.0509 28.3663 45.8109C28.8463 46.3549 29.5103 46.6269 30.3583 46.6269C30.9503 46.6269 31.3903 46.4669 31.6783 46.1469C31.9823 45.8429 32.1343 45.4109 32.1343 44.8509V33.8109C32.1343 33.1549 32.3823 32.6909 32.8783 32.4189C33.3743 32.1309 34.1263 31.9869 35.1343 31.9869V44.8749C35.1343 45.6909 34.9503 46.4269 34.5823 47.0829C34.2303 47.7389 33.7263 48.2589 33.0703 48.6429C32.4143 49.0269 31.6623 49.2189 30.8143 49.2189ZM42.5994 30.8589C42.0234 30.8589 41.5434 30.6909 41.1594 30.3549C40.7914 30.0029 40.6074 29.5549 40.6074 29.0109C40.6074 28.4829 40.7914 28.0509 41.1594 27.7149C41.5434 27.3629 42.0234 27.1869 42.5994 27.1869C43.1754 27.1869 43.6474 27.3629 44.0154 27.7149C44.3994 28.0509 44.5914 28.4829 44.5914 29.0109C44.5914 29.5549 44.3994 30.0029 44.0154 30.3549C43.6474 30.6909 43.1754 30.8589 42.5994 30.8589ZM39.7674 49.2189C38.8554 49.2189 38.1114 49.0029 37.5354 48.5709C36.9754 48.1389 36.6954 47.6109 36.6954 46.9869C36.6954 46.4429 36.9034 46.0509 37.3194 45.8109C37.7994 46.3549 38.4634 46.6269 39.3114 46.6269C39.9034 46.6269 40.3434 46.4669 40.6314 46.1469C40.9354 45.8429 41.0874 45.4109 41.0874 44.8509V33.8109C41.0874 33.1549 41.3354 32.6909 41.8314 32.4189C42.3274 32.1309 43.0794 31.9869 44.0874 31.9869V44.8749C44.0874 45.6909 43.9034 46.4269 43.5354 47.0829C43.1834 47.7389 42.6794 48.2589 42.0234 48.6429C41.3674 49.0269 40.6154 49.2189 39.7674 49.2189Z" fill="#6E7B6C"/>
<path d="M54.3838 44.4189C53.0398 44.4189 51.8238 44.1469 50.7358 43.6029C49.6638 43.0589 48.8238 42.3069 48.2158 41.3469C47.6078 40.3869 47.3038 39.2989 47.3038 38.0829V29.5629C47.3038 28.7949 47.5758 28.2109 48.1198 27.8109C48.6638 27.3949 49.4638 27.1869 50.5198 27.1869V38.0829C50.5198 39.1549 50.8718 40.0109 51.5758 40.6509C52.2798 41.2909 53.2158 41.6109 54.3838 41.6109C55.5518 41.6109 56.4878 41.2909 57.1918 40.6509C57.8958 40.0109 58.2478 39.1549 58.2478 38.0829V29.5629C58.2478 28.7789 58.5198 28.1869 59.0638 27.7869C59.6078 27.3869 60.4078 27.1869 61.4638 27.1869V38.0829C61.4638 39.2989 61.1598 40.3869 60.5518 41.3469C59.9438 42.3069 59.0958 43.0589 58.0078 43.6029C56.9358 44.1469 55.7278 44.4189 54.3838 44.4189ZM64.1582 34.2909C64.1582 33.5549 64.3902 32.9869 64.8542 32.5869C65.3182 32.1869 66.0222 31.9869 66.9662 31.9869V33.4269C66.6782 33.7789 66.4862 34.0349 66.3902 34.1949L66.5582 34.2909C67.0542 33.5389 67.5822 32.9709 68.1422 32.5869C68.7022 32.1869 69.3662 31.9869 70.1342 31.9869C71.5262 31.9869 72.4862 32.6669 73.0142 34.0269C73.4142 33.3869 73.9262 32.8909 74.5502 32.5389C75.1742 32.1709 75.8782 31.9869 76.6622 31.9869C77.7502 31.9869 78.6142 32.3869 79.2542 33.1869C79.9102 33.9709 80.2382 34.9789 80.2382 36.2109V42.5949C80.2382 43.2349 79.9902 43.6989 79.4942 43.9869C79.0142 44.2749 78.2782 44.4189 77.2862 44.4189V36.4509C77.2862 35.8589 77.1502 35.3869 76.8782 35.0349C76.6222 34.6829 76.2222 34.5069 75.6782 34.5069C75.1022 34.5069 74.6142 34.7069 74.2142 35.1069C73.8302 35.4909 73.6382 36.0989 73.6382 36.9309V42.5949C73.6382 43.2349 73.3982 43.6989 72.9182 43.9869C72.4542 44.2749 71.7262 44.4189 70.7342 44.4189V36.4509C70.7342 35.8429 70.6062 35.3709 70.3502 35.0349C70.0942 34.6829 69.6942 34.5069 69.1502 34.5069C68.4782 34.5069 67.9662 34.7389 67.6142 35.2029C67.2782 35.6509 67.1102 36.2669 67.1102 37.0509V42.5949C67.1102 43.2349 66.8622 43.6989 66.3662 43.9869C65.8862 44.2749 65.1502 44.4189 64.1582 44.4189V34.2909ZM89.0762 34.5789C88.1322 34.5789 87.3642 34.8349 86.7722 35.3469C86.1802 35.8429 85.8842 36.4669 85.8842 37.2189V42.5949C85.8842 43.2349 85.6442 43.6989 85.1642 43.9869C84.6842 44.2749 83.9322 44.4189 82.9082 44.4189V34.2909C82.9082 33.5549 83.1402 32.9869 83.6042 32.5869C84.0842 32.1869 84.8042 31.9869 85.7642 31.9869V33.4029C85.5242 33.6749 85.3322 33.9389 85.1882 34.1949L85.3322 34.2909C86.3402 32.7549 87.6042 31.9869 89.1242 31.9869C89.8122 31.9869 90.3322 32.1709 90.6842 32.5389C91.0362 32.8909 91.2122 33.3389 91.2122 33.8829C91.2122 34.2989 91.1002 34.6509 90.8762 34.9389C90.4442 34.6989 89.8442 34.5789 89.0762 34.5789ZM96.1734 44.4189C95.3574 44.4189 94.6054 44.2589 93.9174 43.9389C93.2454 43.6189 92.7014 43.1629 92.2854 42.5709C91.8854 41.9629 91.6854 41.2429 91.6854 40.4109C91.6854 39.5789 91.9014 38.8589 92.3334 38.2509C92.7654 37.6269 93.3494 37.1549 94.0854 36.8349C94.8374 36.4989 95.6614 36.3309 96.5574 36.3309C97.2934 36.3309 97.9494 36.4509 98.5254 36.6909C99.1174 36.9149 99.6614 37.2589 100.157 37.7229L100.277 37.6029C100.133 37.4589 99.8854 37.2429 99.5334 36.9549V36.4749C99.5334 35.8189 99.3014 35.2989 98.8374 34.9149C98.3734 34.5309 97.7254 34.3389 96.8934 34.3389C95.4054 34.3389 94.3094 34.8829 93.6054 35.9709C93.2534 35.8589 92.9574 35.6829 92.7174 35.4429C92.4774 35.1869 92.3574 34.9149 92.3574 34.6269C92.3574 34.1469 92.5734 33.7069 93.0054 33.3069C93.4374 32.9069 94.0214 32.5869 94.7574 32.3469C95.4934 32.1069 96.2934 31.9869 97.1574 31.9869C98.8534 31.9869 100.165 32.3869 101.093 33.1869C102.021 33.9709 102.485 35.0429 102.485 36.4029V42.4029C102.485 43.1069 102.261 43.6189 101.813 43.9389C101.365 44.2589 100.661 44.4189 99.7014 44.4189V43.4349C99.9734 43.1629 100.157 42.9629 100.253 42.8349L100.157 42.7149C99.6294 43.2749 99.0614 43.6989 98.4534 43.9869C97.8614 44.2749 97.1014 44.4189 96.1734 44.4189ZM96.9414 42.2349C97.7734 42.2349 98.4214 42.0749 98.8854 41.7549C99.3494 41.4349 99.5814 40.9789 99.5814 40.3869C99.5814 39.8109 99.3414 39.3549 98.8614 39.0189C98.3974 38.6829 97.7654 38.5149 96.9654 38.5149C96.2294 38.5149 95.6454 38.6829 95.2134 39.0189C94.7974 39.3389 94.5894 39.7949 94.5894 40.3869C94.5894 40.9949 94.7974 41.4589 95.2134 41.7789C95.6294 42.0829 96.2054 42.2349 96.9414 42.2349ZM105.174 29.4909C105.174 28.7549 105.43 28.1869 105.942 27.7869C106.454 27.3869 107.19 27.1869 108.15 27.1869V33.4269C107.942 33.6509 107.75 33.9069 107.574 34.1949L107.718 34.2909C108.822 32.7549 110.23 31.9869 111.942 31.9869C112.758 31.9869 113.478 32.1709 114.102 32.5389C114.726 32.9069 115.206 33.4109 115.542 34.0509C115.894 34.6909 116.07 35.4109 116.07 36.2109V42.5949C116.07 43.2349 115.822 43.6989 115.326 43.9869C114.83 44.2749 114.078 44.4189 113.07 44.4189V36.6429C113.07 36.0349 112.886 35.5389 112.518 35.1549C112.166 34.7709 111.646 34.5789 110.958 34.5789C110.142 34.5789 109.47 34.8349 108.942 35.3469C108.414 35.8429 108.15 36.4669 108.15 37.2189V42.5949C108.15 43.2349 107.902 43.6989 107.406 43.9869C106.91 44.2749 106.166 44.4189 105.174 44.4189V29.4909Z" fill="#00936C"/>
<path d="M45.48 20.7139V17.9899C45.48 17.1979 45.604 16.5619 45.852 16.0819C46.1 15.5939 46.468 15.2419 46.956 15.0259C47.444 14.8019 48.044 14.6899 48.756 14.6899C49.476 14.6899 50.08 14.8019 50.568 15.0259C51.056 15.2419 51.424 15.5939 51.672 16.0819C51.92 16.5619 52.044 17.1979 52.044 17.9899V20.7139H45.48ZM47.088 20.0419L46.32 19.3219H51.204L50.448 20.0419V18.0259C50.448 17.5459 50.4 17.1659 50.304 16.8859C50.208 16.5979 50.036 16.3939 49.788 16.2739C49.548 16.1459 49.204 16.0819 48.756 16.0819C48.316 16.0819 47.972 16.1459 47.724 16.2739C47.484 16.3939 47.316 16.5979 47.22 16.8859C47.132 17.1659 47.088 17.5459 47.088 18.0259V20.0419ZM47.22 13.9699V12.6019H48.828V13.9699H47.22ZM48.864 13.9699V12.6019H50.472V13.9699H48.864ZM55.3074 20.7139V19.3219H56.8554V20.7139H55.3074ZM52.9794 23.6899C52.8754 23.6899 52.7634 23.6859 52.6434 23.6779C52.5234 23.6699 52.3994 23.6579 52.2714 23.6419L52.3314 22.2739C52.4594 22.2819 52.5794 22.2899 52.6914 22.2979C52.8114 22.3059 52.8994 22.3099 52.9554 22.3099C53.2674 22.3099 53.5154 22.1859 53.6994 21.9379C53.8914 21.6899 53.9874 21.3419 53.9874 20.8939V14.6899H55.5954V20.8939C55.5954 21.4379 55.4834 21.9219 55.2594 22.3459C55.0434 22.7699 54.7394 23.0979 54.3474 23.3299C53.9554 23.5699 53.4994 23.6899 52.9794 23.6899ZM56.8554 20.7139V19.3219C56.9514 19.3219 57.0154 19.3859 57.0474 19.5139C57.0794 19.6339 57.0954 19.8019 57.0954 20.0179C57.0954 20.2259 57.0794 20.3939 57.0474 20.5219C57.0154 20.6499 56.9514 20.7139 56.8554 20.7139ZM63.9514 20.7139V19.3219H65.2234V20.7139H63.9514ZM56.8594 20.7139V19.3219H63.0874L62.3554 19.9459V17.7379C62.3554 17.3059 62.3074 16.9699 62.2114 16.7299C62.1154 16.4819 61.9474 16.3099 61.7074 16.2139C61.4754 16.1099 61.1514 16.0579 60.7354 16.0579C60.4074 16.0579 60.0834 16.0819 59.7634 16.1299C59.4514 16.1699 59.2074 16.2259 59.0314 16.2979L60.0274 15.3619C59.9794 15.5459 59.9314 15.7779 59.8834 16.0579C59.8434 16.3379 59.8074 16.6379 59.7754 16.9579C59.7434 17.2699 59.7274 17.5779 59.7274 17.8819C59.7274 18.1619 59.7394 18.4539 59.7634 18.7579C59.7954 19.0619 59.8274 19.3299 59.8594 19.5619C59.8994 19.7939 59.9314 19.9539 59.9554 20.0419L58.4314 20.4619C58.3994 20.3499 58.3594 20.1659 58.3114 19.9099C58.2634 19.6539 58.2194 19.3499 58.1794 18.9979C58.1474 18.6459 58.1314 18.2739 58.1314 17.8819C58.1314 17.4819 58.1514 17.0979 58.1914 16.7299C58.2314 16.3539 58.2754 16.0179 58.3234 15.7219C58.3794 15.4179 58.4314 15.1739 58.4794 14.9899C58.6714 14.9179 58.9714 14.8459 59.3794 14.7739C59.7874 14.7019 60.2394 14.6659 60.7354 14.6659C61.4554 14.6659 62.0514 14.7659 62.5234 14.9659C63.0034 15.1659 63.3594 15.4899 63.5914 15.9379C63.8314 16.3859 63.9514 16.9899 63.9514 17.7499V20.7139H56.8594ZM56.8594 20.7139C56.7634 20.7139 56.6994 20.6499 56.6674 20.5219C56.6354 20.3939 56.6194 20.2259 56.6194 20.0179C56.6194 19.8019 56.6354 19.6339 56.6674 19.5139C56.6994 19.3859 56.7634 19.3219 56.8594 19.3219V20.7139ZM65.2234 20.7139V19.3219C65.3194 19.3219 65.3834 19.3859 65.4154 19.5139C65.4474 19.6339 65.4634 19.8019 65.4634 20.0179C65.4634 20.2259 65.4474 20.3939 65.4154 20.5219C65.3834 20.6499 65.3194 20.7139 65.2234 20.7139ZM65.2266 20.7139V19.3219H67.7706C68.1146 19.3219 68.4466 19.2579 68.7666 19.1299C69.0866 18.9939 69.3786 18.8179 69.6426 18.6019C69.9146 18.3779 70.1506 18.1339 70.3506 17.8699C70.5586 17.5979 70.7186 17.3219 70.8306 17.0419C70.9506 16.7619 71.0106 16.4979 71.0106 16.2499V15.4819L71.7786 16.7539C71.3626 16.5299 70.9386 16.3619 70.5066 16.2499C70.0746 16.1379 69.6626 16.0819 69.2706 16.0819C68.8866 16.0819 68.4746 16.1379 68.0346 16.2499C67.6026 16.3619 67.1826 16.5299 66.7746 16.7539L67.5426 15.4819V16.2499C67.5426 16.4979 67.5986 16.7619 67.7106 17.0419C67.8306 17.3219 67.9906 17.5979 68.1906 17.8699C68.3906 18.1339 68.6266 18.3779 68.8986 18.6019C69.1706 18.8179 69.4666 18.9939 69.7866 19.1299C70.1066 19.2579 70.4346 19.3219 70.7706 19.3219H73.2426V20.7139H71.2746C70.6506 20.7139 70.0666 20.6139 69.5226 20.4139C68.9786 20.2139 68.4866 19.9499 68.0466 19.6219C67.6066 19.2859 67.2266 18.9219 66.9066 18.5299C66.5946 18.1299 66.3546 17.7339 66.1866 17.3419C66.0186 16.9419 65.9346 16.5779 65.9346 16.2499V15.5659C66.2786 15.3739 66.6426 15.2139 67.0266 15.0859C67.4186 14.9579 67.8066 14.8619 68.1906 14.7979C68.5826 14.7259 68.9426 14.6899 69.2706 14.6899C69.6066 14.6899 69.9666 14.7259 70.3506 14.7979C70.7346 14.8619 71.1186 14.9579 71.5026 15.0859C71.8946 15.2139 72.2626 15.3739 72.6066 15.5659V16.2499C72.6066 16.5779 72.5226 16.9419 72.3546 17.3419C72.1866 17.7339 71.9426 18.1299 71.6226 18.5299C71.3106 18.9219 70.9346 19.2859 70.4946 19.6219C70.0546 19.9499 69.5626 20.2139 69.0186 20.4139C68.4746 20.6139 67.8906 20.7139 67.2666 20.7139H65.2266ZM65.2266 20.7139C65.1306 20.7139 65.0666 20.6499 65.0346 20.5219C65.0026 20.3939 64.9866 20.2259 64.9866 20.0179C64.9866 19.8019 65.0026 19.6339 65.0346 19.5139C65.0666 19.3859 65.1306 19.3219 65.2266 19.3219V20.7139ZM73.2426 20.7139V19.3219C73.3386 19.3219 73.4026 19.3859 73.4346 19.5139C73.4666 19.6339 73.4826 19.8019 73.4826 20.0179C73.4826 20.2259 73.4666 20.3939 73.4346 20.5219C73.4026 20.6499 73.3386 20.7139 73.2426 20.7139ZM74.5982 20.7139V12.2299H76.2062V20.7139H74.5982ZM73.2422 20.7139V19.3219H74.5982V20.7139H73.2422ZM73.2422 20.7139C73.1462 20.7139 73.0822 20.6499 73.0502 20.5219C73.0182 20.3939 73.0022 20.2259 73.0022 20.0179C73.0022 19.8019 73.0182 19.6339 73.0502 19.5139C73.0822 19.3859 73.1462 19.3219 73.2422 19.3219V20.7139ZM78.1308 20.7139V12.2299H79.7268V20.7139H78.1308ZM83.7405 23.6899C83.4445 23.6899 83.1325 23.6659 82.8045 23.6179C82.4845 23.5779 82.1405 23.5219 81.7725 23.4499L82.0125 22.1659C82.4125 22.2139 82.7525 22.2499 83.0325 22.2739C83.3125 22.2979 83.5485 22.3099 83.7405 22.3099C84.3165 22.3099 84.7325 22.2059 84.9885 21.9979C85.2445 21.7899 85.3725 21.4779 85.3725 21.0619V15.7939L85.7685 16.0819H84.2685C83.9405 16.0819 83.6765 16.1219 83.4765 16.2019C83.2765 16.2739 83.1285 16.4299 83.0325 16.6699C82.9445 16.9019 82.9005 17.2579 82.9005 17.7379C82.9005 18.1939 82.9405 18.5379 83.0205 18.7699C83.1085 18.9939 83.2525 19.1419 83.4525 19.2139C83.6525 19.2859 83.9245 19.3219 84.2685 19.3219H85.3725V20.7139H84.2685C83.5885 20.7139 83.0285 20.6059 82.5885 20.3899C82.1485 20.1739 81.8205 19.8459 81.6045 19.4059C81.3965 18.9659 81.2925 18.4099 81.2925 17.7379C81.2925 17.0659 81.3965 16.5059 81.6045 16.0579C81.8205 15.6019 82.1485 15.2619 82.5885 15.0379C83.0285 14.8059 83.5885 14.6899 84.2685 14.6899H86.9805V21.0619C86.9805 21.6059 86.8445 22.0739 86.5725 22.4659C86.3085 22.8659 85.9325 23.1699 85.4445 23.3779C84.9645 23.5859 84.3965 23.6899 83.7405 23.6899ZM94.8979 22.7419V21.6379H96.0139V22.7419H94.8979ZM97.0339 20.7139V19.3219H98.2939V20.7139H97.0339ZM98.2939 20.7139V19.3219C98.3899 19.3219 98.4539 19.3859 98.4859 19.5139C98.5179 19.6339 98.5339 19.8019 98.5339 20.0179C98.5339 20.2259 98.5179 20.3939 98.4859 20.5219C98.4539 20.6499 98.3899 20.7139 98.2939 20.7139ZM94.1299 24.5899C93.4819 24.5899 92.9139 24.4859 92.4259 24.2779C91.9459 24.0699 91.5699 23.7659 91.2979 23.3659C91.0339 22.9739 90.9019 22.5059 90.9019 21.9619C90.9019 21.4099 91.0339 20.9379 91.2979 20.5459C91.5699 20.1539 91.9459 19.8539 92.4259 19.6459C92.9139 19.4299 93.4859 19.3219 94.1419 19.3219H95.4379V17.5459C95.4379 17.0659 95.2859 16.7019 94.9819 16.4539C94.6779 16.2059 94.2059 16.0819 93.5659 16.0819C93.3659 16.0819 93.0979 16.0979 92.7619 16.1299C92.4339 16.1619 92.0659 16.2059 91.6579 16.2619L91.5139 15.0019C91.8659 14.9139 92.2299 14.8419 92.6059 14.7859C92.9819 14.7219 93.3459 14.6899 93.6979 14.6899C94.3539 14.6899 94.9299 14.8059 95.4259 15.0379C95.9299 15.2619 96.3219 15.5859 96.6019 16.0099C96.8899 16.4339 97.0339 16.9459 97.0339 17.5459V20.7139H94.1419C93.5739 20.7139 93.1579 20.8179 92.8939 21.0259C92.6379 21.2339 92.5099 21.5459 92.5099 21.9619C92.5099 22.3779 92.6379 22.6899 92.8939 22.8979C93.1579 23.1059 93.5699 23.2099 94.1299 23.2099C94.2339 23.2099 94.3499 23.2019 94.4779 23.1859C94.6139 23.1779 94.7739 23.1659 94.9579 23.1499L95.0539 24.5059C94.9179 24.5299 94.7699 24.5499 94.6099 24.5659C94.4499 24.5819 94.2899 24.5899 94.1299 24.5899ZM104.513 20.7139V19.3219H105.785V20.7139H104.513ZM98.2969 20.7139V19.3219H103.457L102.917 19.7659V17.5459C102.917 17.0659 102.765 16.7019 102.461 16.4539C102.165 16.2059 101.693 16.0819 101.045 16.0819C100.861 16.0819 100.609 16.0979 100.289 16.1299C99.9689 16.1539 99.6209 16.1939 99.2449 16.2499L99.0889 14.9779C99.4329 14.8979 99.7809 14.8299 100.133 14.7739C100.493 14.7179 100.845 14.6899 101.189 14.6899C101.845 14.6899 102.421 14.8059 102.917 15.0379C103.413 15.2619 103.801 15.5859 104.081 16.0099C104.369 16.4339 104.513 16.9459 104.513 17.5459V20.7139H98.2969ZM98.2969 20.7139C98.2009 20.7139 98.1369 20.6499 98.1049 20.5219C98.0729 20.3939 98.0569 20.2259 98.0569 20.0179C98.0569 19.8019 98.0729 19.6339 98.1049 19.5139C98.1369 19.3859 98.2009 19.3219 98.2969 19.3219V20.7139ZM105.785 20.7139V19.3219C105.873 19.3219 105.933 19.3859 105.965 19.5139C106.005 19.6339 106.025 19.8019 106.025 20.0179C106.025 20.2259 106.005 20.3939 105.965 20.5219C105.933 20.6499 105.873 20.7139 105.785 20.7139ZM107.141 20.7139V12.2299H108.749V20.7139H107.141ZM105.785 20.7139V19.3219H107.141V20.7139H105.785ZM105.785 20.7139C105.689 20.7139 105.625 20.6499 105.593 20.5219C105.561 20.3939 105.545 20.2259 105.545 20.0179C105.545 19.8019 105.561 19.6339 105.593 19.5139C105.625 19.3859 105.689 19.3219 105.785 19.3219V20.7139ZM110.674 20.7139V12.2299H112.27V20.7139H110.674Z" fill="#6E7B6C"/>
</svg>
