<svg width="15" height="14" viewBox="0 0 15 14" fill="none" xmlns="http://www.w3.org/2000/svg">
<path fill-rule="evenodd" clip-rule="evenodd" d="M7.24563 10.8425L3.38812 12.8706L4.125 8.575L1 5.53312L5.3125 4.90812L7.24125 1L9.17 4.90812L13.4825 5.53312L10.3575 8.575L11.0944 12.8706L7.24563 10.8425Z" fill="#00936C"/>
<path fill-rule="evenodd" clip-rule="evenodd" d="M7.24563 10.8425L3.38812 12.8706L4.125 8.575L1 5.53312L5.3125 4.90812L7.24125 1L9.17 4.90812L13.4825 5.53312L10.3575 8.575L11.0944 12.8706L7.24563 10.8425Z" stroke="#00936C" stroke-width="1.5" stroke-linecap="round" stroke-linejoin="round"/>
<path fill-rule="evenodd" clip-rule="evenodd" d="M7.24563 10.8425L3.38812 12.8706L4.125 8.575L1 5.53312L5.3125 4.90812L7.24125 1L9.17 4.90812L13.4825 5.53312L10.3575 8.575L11.0944 12.8706L7.24563 10.8425Z" stroke="white" stroke-opacity="0.2" stroke-width="1.5" stroke-linecap="round" stroke-linejoin="round"/>
</svg>
