<svg width="64" height="64" viewBox="0 0 64 64" fill="none" xmlns="http://www.w3.org/2000/svg">
<path d="M43.6854 22.0625H40.7542C40.1167 22.0625 39.5104 22.3687 39.1354 22.8937L29.3104 36.5187L24.8604 30.3438C24.4854 29.825 23.8854 29.5125 23.2416 29.5125H20.3104C19.9041 29.5125 19.6666 29.975 19.9041 30.3062L27.6916 41.1063C27.8756 41.363 28.1181 41.5722 28.3991 41.7166C28.6801 41.8609 28.9914 41.9362 29.3073 41.9362C29.6231 41.9362 29.9345 41.8609 30.2154 41.7166C30.4964 41.5722 30.7389 41.363 30.9229 41.1063L44.0854 22.8563C44.3292 22.525 44.0917 22.0625 43.6854 22.0625Z" fill="#52C41A"/>
<path d="M32 4C16.5375 4 4 16.5375 4 32C4 47.4625 16.5375 60 32 60C47.4625 60 60 47.4625 60 32C60 16.5375 47.4625 4 32 4ZM32 55.25C19.1625 55.25 8.75 44.8375 8.75 32C8.75 19.1625 19.1625 8.75 32 8.75C44.8375 8.75 55.25 19.1625 55.25 32C55.25 44.8375 44.8375 55.25 32 55.25Z" fill="#52C41A"/>
</svg>
