<svg width="40" height="41" viewBox="0 0 40 41" fill="none" xmlns="http://www.w3.org/2000/svg">
<path d="M27.8711 23.9336C27.4453 23.7149 25.3242 22.6758 24.9297 22.5352C24.5352 22.3867 24.2461 22.3164 23.9609 22.7539C23.6719 23.1875 22.8516 24.1524 22.5938 24.4453C22.3438 24.7344 22.0898 24.7695 21.6641 24.5547C19.1328 23.2891 17.4727 22.2969 15.8047 19.4336C15.3633 18.6719 16.2461 18.7266 17.0703 17.082C17.2109 16.793 17.1406 16.5469 17.0312 16.3281C16.9219 16.1094 16.0625 13.9922 15.7031 13.1289C15.3555 12.2891 14.9961 12.4062 14.7344 12.3906C14.4844 12.375 14.1992 12.375 13.9102 12.375C13.6211 12.375 13.1563 12.4844 12.7617 12.9102C12.3672 13.3438 11.2539 14.3867 11.2539 16.5039C11.2539 18.6211 12.7969 20.6719 13.0078 20.9609C13.2266 21.25 16.043 25.5938 20.3672 27.4649C23.1016 28.6445 24.1719 28.7461 25.5391 28.543C26.3711 28.418 28.0859 27.5039 28.4414 26.4922C28.7969 25.4844 28.7969 24.6211 28.6914 24.4414C28.5859 24.25 28.2969 24.1406 27.8711 23.9336Z" fill="#52C41A"/>
<path d="M36.1418 13.7188C35.259 11.6211 33.9934 9.73828 32.3801 8.12109C30.7668 6.50781 28.884 5.23828 26.7824 4.35938C24.634 3.45703 22.3528 3 20.0012 3H19.9231C17.5559 3.01172 15.2629 3.48047 13.1067 4.40234C11.0246 5.29297 9.15745 6.55859 7.55979 8.17188C5.96214 9.78516 4.70823 11.6602 3.84104 13.75C2.9426 15.9141 2.48948 18.2148 2.5012 20.582C2.51292 23.293 3.16135 25.9844 4.3762 28.3906V34.3281C4.3762 35.3203 5.18089 36.125 6.17307 36.125H12.1145C14.5207 37.3398 17.2121 37.9883 19.9231 38H20.0051C22.3449 38 24.6145 37.5469 26.7512 36.6602C28.841 35.7891 30.7199 34.5391 32.3293 32.9414C33.9426 31.3438 35.2121 29.4766 36.0989 27.3945C37.0207 25.2383 37.4895 22.9453 37.5012 20.5781C37.5129 18.1992 37.052 15.8906 36.1418 13.7188ZM30.2395 30.8281C27.5012 33.5391 23.8684 35.0312 20.0012 35.0312H19.9348C17.5793 35.0195 15.2395 34.4336 13.1731 33.332L12.8449 33.1562H7.34495V27.6562L7.16917 27.3281C6.0676 25.2617 5.48167 22.9219 5.46995 20.5664C5.45432 16.6719 6.9426 13.0156 9.67307 10.2617C12.3996 7.50781 16.0442 5.98438 19.9387 5.96875H20.0051C21.9582 5.96875 23.8528 6.34766 25.6379 7.09766C27.3801 7.82812 28.9426 8.87891 30.2864 10.2227C31.6262 11.5625 32.6809 13.1289 33.4114 14.8711C34.1692 16.6758 34.5481 18.5898 34.5403 20.5664C34.5168 24.457 32.9895 28.1016 30.2395 30.8281Z" fill="#52C41A"/>
</svg>
