<svg width="26" height="26" viewBox="0 0 26 26" fill="none" xmlns="http://www.w3.org/2000/svg">
<path d="M25 5.80005H1V25H25V5.80005Z" stroke="#00936C" stroke-width="1.5" stroke-miterlimit="10" stroke-linejoin="round"/>
<path d="M25 5.80005H1V10.6C1 12.3672 2.4328 13.8 4.2 13.8H21.8C23.5672 13.8 25 12.3672 25 10.6V5.80005Z" stroke="#00936C" stroke-width="1.5" stroke-miterlimit="10" stroke-linejoin="round"/>
<path d="M6.6001 5.8V2.6C6.6001 1.716 7.3161 1 8.2001 1H17.8001C18.6841 1 19.4001 1.716 19.4001 2.6V5.8" stroke="#00936C" stroke-width="1.5" stroke-miterlimit="10" stroke-linejoin="round"/>
<path d="M13.0001 17C12.1161 17 11.4001 16.284 11.4001 15.4V12.2C11.4001 11.316 12.1161 10.6 13.0001 10.6C13.8841 10.6 14.6001 11.316 14.6001 12.2V15.4C14.6001 16.284 13.8841 17 13.0001 17Z" stroke="#00936C" stroke-width="1.5" stroke-miterlimit="10" stroke-linejoin="round"/>
<path d="M14.6001 13.7999H11.4001" stroke="#00936C" stroke-width="1.5" stroke-miterlimit="10" stroke-linejoin="round"/>
</svg>
