<svg width="52" height="84" viewBox="0 0 52 84" fill="none" xmlns="http://www.w3.org/2000/svg">
<g opacity="0.1">
<path d="M51.41 82.66L50.75 83.37C45.2 83.01 38.41 82.83 30.4 82.83C22.58 82.83 14.35 83.01 5.7 83.37L5.05 82.72V79.09L5.76 78.5C7.78 78.26 9.75 78.06 11.65 77.9C15.06 77.62 17.24 77.29 18.2 76.89C18.87 76.57 19.45 75.84 19.93 74.69C20.68 72.83 21.06 65.29 21.06 52.08V37.26C21.06 32.82 20.98 27.18 20.82 20.36L20.7 15.9C20.7 13.92 20.28 12.92 19.45 12.92C19.09 12.92 17.92 13.38 15.94 14.29C10.5 16.79 5.84 18.99 1.96 20.9L1.25 20.48C1.01 18.22 0.6 15.7 0 12.92L0.0599995 12.44C11.01 9.35 23.25 5.2 36.78 0L38.03 0.890001C37.87 3.23 37.65 6.7 37.38 11.3C37.26 13.05 37.14 17.73 37.02 25.34L36.84 48.73C36.84 65.47 37.12 74.46 37.67 75.69C38.07 76.6 38.66 77.16 39.46 77.36C40.89 77.76 44.62 78.11 50.65 78.43L51.42 79.02V82.66H51.41Z" fill="#00936C"/>
</g>
</svg>
