<svg width="55" height="83" viewBox="0 0 55 83" fill="none" xmlns="http://www.w3.org/2000/svg">
<g opacity="0.1">
<path d="M54.27 68.7714C53.79 73.4737 53.73 77.9328 54.09 82.1588L53.38 83C42.47 82.5541 33.54 82.3413 26.6 82.3413C19.34 82.3413 10.73 82.5439 0.77 82.9392L0 82.2197V76.7269L12.14 64.1806C21.22 54.8165 27.16 47.7022 29.93 42.8276C31.56 39.9697 32.71 37.3753 33.38 35.014C34.05 32.6629 34.39 30.1597 34.39 27.5045C34.39 17.8972 30.05 13.0935 21.36 13.0935C16.52 13.0935 12.67 14.9582 9.82 18.6978C9.38 20.4308 8.61 23.4407 7.5 27.7477L6.85 28.3558H3.46L2.86 27.7477L5.06 7.60073C10.06 2.53358 17.02 0 25.95 0C33.92 0 40.07 2.10794 44.4 6.33394C48.41 10.1951 50.41 15.3231 50.41 21.7077C50.41 24.3223 50.11 26.7343 49.52 28.9436C48.29 33.4432 45.77 37.9935 41.96 42.5742C38.79 46.3949 33.99 51.4215 27.56 57.6541C25.22 59.985 21.67 63.4205 16.91 67.9708L17.03 68.7512H27.56C30.61 68.7512 33.51 68.7106 36.25 68.6295L46.54 68.3255C49.16 68.2444 51.44 68.1228 53.38 67.9607L54.27 68.7714Z" fill="#00936C"/>
</g>
</svg>
