<svg width="16" height="11" viewBox="0 0 16 11" fill="none" xmlns="http://www.w3.org/2000/svg">
<path d="M14.8567 4.40015H3.89283L6.52234 1.88364C6.73762 1.67671 6.85856 1.39605 6.85856 1.10341C6.85856 0.810767 6.73762 0.53011 6.52234 0.323181C6.30706 0.116251 6.01507 0 5.71062 0C5.40617 0 5.11418 0.116251 4.8989 0.323181L0.325846 4.71883C0.221762 4.82334 0.140173 4.94658 0.0857603 5.08147C-0.0285868 5.34902 -0.0285868 5.64911 0.0857603 5.91665C0.140173 6.05154 0.221762 6.17478 0.325846 6.27929L4.8989 10.6749C5.00519 10.7779 5.13163 10.8597 5.27095 10.9155C5.41027 10.9713 5.5597 11 5.71062 11C5.86155 11 6.01098 10.9713 6.15029 10.9155C6.28961 10.8597 6.41606 10.7779 6.52234 10.6749C6.6295 10.5728 6.71455 10.4512 6.77259 10.3173C6.83063 10.1834 6.86051 10.0398 6.86051 9.89471C6.86051 9.74965 6.83063 9.60601 6.77259 9.4721C6.71455 9.33819 6.6295 9.21665 6.52234 9.11449L3.89283 6.59798H14.8567C15.1599 6.59798 15.4507 6.4822 15.6651 6.27611C15.8796 6.07003 16 5.79051 16 5.49906C16 5.20761 15.8796 4.9281 15.6651 4.72201C15.4507 4.51593 15.1599 4.40015 14.8567 4.40015Z" fill="black"/>
</svg>
