<svg width="170" height="170" viewBox="0 0 170 170" fill="none" xmlns="http://www.w3.org/2000/svg">
<circle cx="85" cy="85" r="85" fill="white"/>
<path d="M32 61.3199V65.4399H137.69V61.3199L84.85 34.6299L32 61.3199Z" fill="#E0E0E0"/>
<path d="M84.85 34.6299L32 61.3199V63.6899L84.85 36.9999L137.69 63.6899V61.3199L84.85 34.6299Z" fill="#E9E8E8"/>
<path d="M84.85 31L32 57.7V61.32L84.85 34.63L137.69 61.32V57.7L84.85 31Z" fill="#E0E0E0"/>
<path d="M125.73 60.4298H43.97L84.85 39.7798L125.73 60.4298Z" fill="#E9E8E8"/>
<path d="M48.79 59.2801L84.85 41.0601L120.9 59.2801H48.79Z" fill="#EAE6DE"/>
<path d="M131.03 65.4399H38.93V70.7199H131.03V65.4399Z" fill="#EAE6DE"/>
<path d="M131.03 66.7002H38.93V68.0802H131.03V66.7002Z" fill="#DFDFDE"/>
<path d="M131.95 65.4399H38.02V66.6999H131.95V65.4399Z" fill="#DBD7CC"/>
<path d="M131.95 69.46H38.02V70.72H131.95V69.46Z" fill="#DBD7CC"/>
<path d="M131.95 118.63H38.02V122.08H131.95V118.63Z" fill="#E0E0E0"/>
<path d="M133.81 122.08H36.15V125.53H133.81V122.08Z" fill="#E0E0E0"/>
<path d="M135.82 125.52H34.14V128.97H135.82V125.52Z" fill="#E0E0E0"/>
<path d="M131.95 121.04H38.02V122.07H131.95V121.04Z" fill="#E9E8E8"/>
<path d="M133.81 124.49H36.15V125.52H133.81V124.49Z" fill="#E9E8E8"/>
<path d="M135.82 127.94H34.14V128.97H135.82V127.94Z" fill="#E9E8E8"/>
<path d="M122.76 70.7202H47.21V118.63H122.76V70.7202Z" fill="#7B7672"/>
<path d="M122.76 70.7202H47.21V85.1802H122.76V70.7202Z" fill="#D2D2D2"/>
<path d="M122.76 70.7202H47.21V73.7602H122.76V70.7202Z" fill="#D2D2D2"/>
<path d="M135.82 128.97H34.14V130.84H135.82V128.97Z" fill="#00936C"/>
<path d="M73.06 50.9399H75.13C75.48 50.9399 75.78 50.9799 76.05 51.0599C76.32 51.1399 76.55 51.2499 76.74 51.3899C76.93 51.5299 77.07 51.6999 77.17 51.8999C77.27 52.0999 77.32 52.3199 77.32 52.5599C77.32 52.7299 77.3 52.8899 77.25 53.0299C77.2 53.1699 77.14 53.2899 77.08 53.3999C77.01 53.5099 76.94 53.5999 76.85 53.6799C76.77 53.7599 76.69 53.8299 76.61 53.8799C76.97 53.9799 77.25 54.1499 77.44 54.3799C77.64 54.6199 77.74 54.9099 77.74 55.2699C77.74 55.5199 77.69 55.7599 77.58 55.9699C77.47 56.1799 77.32 56.3599 77.12 56.5099C76.92 56.6599 76.68 56.7699 76.39 56.8599C76.11 56.9399 75.79 56.9799 75.43 56.9799H73.05V50.9399H73.06ZM74.39 51.9599V53.4399H75.76C75.82 53.3599 75.87 53.2499 75.92 53.1199C75.97 52.9899 76 52.8399 76 52.6699C76 52.4299 75.92 52.2499 75.76 52.1299C75.6 52.0099 75.37 51.9499 75.06 51.9499H74.39V51.9599ZM74.39 54.3599V55.9499H75.35C75.52 55.9499 75.67 55.9299 75.8 55.8999C75.94 55.8699 76.05 55.8199 76.15 55.7599C76.25 55.6999 76.32 55.6199 76.37 55.5199C76.42 55.4199 76.45 55.3099 76.45 55.1699C76.45 54.8999 76.37 54.6999 76.2 54.5599C76.04 54.4199 75.79 54.3499 75.47 54.3499H74.39V54.3599Z" fill="#00936C"/>
<path d="M82.29 55.7097H80.12L79.71 56.9697H78.41L80.49 50.9497H81.93L84.01 56.9697H82.71L82.29 55.7097ZM80.43 54.7297H81.98L81.21 52.3597L80.43 54.7297Z" fill="#00936C"/>
<path d="M84.89 50.9399H86.21C86.22 50.9399 88.79 54.9999 88.79 54.9999V50.9399H90.11V56.9599H88.79L86.21 52.8899V56.9599H84.89V50.9399Z" fill="#00936C"/>
<path d="M93.43 54.4597H92.74V56.9697H91.42V50.9497H92.74V53.4797H93.43L94.73 50.9497H96.1L94.55 53.9397L96.43 56.9797H94.97L93.43 54.4597Z" fill="#00936C"/>
<path d="M84.99 95.3198C80.7 95.3198 77.22 98.7998 77.22 103.09V118.63H92.76V103.09C92.76 98.7998 89.28 95.3198 84.99 95.3198Z" fill="#AEAEAE"/>
<path d="M77.56 70.7202H67.22V118.63H77.56V70.7202Z" fill="#E0E0E0"/>
<path d="M71.36 70.7202H69.29V118.63H71.36V70.7202Z" fill="#E9E8E8"/>
<path d="M75.5 70.7202H73.43V118.63H75.5V70.7202Z" fill="#E9E8E8"/>
<path d="M67.22 70.7202V78.0902C69.17 78.0902 70.82 76.7702 71.32 74.9802H73.46C73.96 76.7702 75.61 78.0902 77.56 78.0902V70.7202H67.22Z" fill="#E9E8E8"/>
<path d="M77.56 70.7202H67.22V73.8302H77.56V70.7202Z" fill="#DBD7CC"/>
<path d="M77.56 111.4H67.22C66.66 111.4 66.21 111.85 66.21 112.41V118.63H78.56V112.41C78.57 111.86 78.12 111.4 77.56 111.4Z" fill="#DBD7CC"/>
<path d="M78.57 115.95H66.22C64.74 115.95 63.54 117.15 63.54 118.63H81.25C81.25 117.15 80.05 115.95 78.57 115.95Z" fill="#DBD7CC"/>
<path d="M71.19 111.4H69.34C69.01 111.4 68.75 111.85 68.75 112.41V115.95H70.95V112.41C70.96 111.86 71.06 111.4 71.19 111.4Z" fill="#E9E8E8"/>
<path d="M75.44 111.4H73.6C73.73 111.4 73.83 111.85 73.83 112.41V115.95H76.03V112.41C76.03 111.86 75.77 111.4 75.44 111.4Z" fill="#E9E8E8"/>
<path d="M70.96 115.95H68.76C67.89 115.95 67.18 117.15 67.18 118.63H70.34C70.34 117.15 70.62 115.95 70.96 115.95Z" fill="#E9E8E8"/>
<path d="M76.03 115.95H73.83C74.17 115.95 74.45 117.15 74.45 118.63H77.61C77.61 117.15 76.9 115.95 76.03 115.95Z" fill="#E9E8E8"/>
<path d="M77.56 110.52H67.22V111.41H77.56V110.52Z" fill="#E9E8E8"/>
<path d="M78.57 115.02H66.22V115.95H78.57V115.02Z" fill="#E9E8E8"/>
<path d="M80.68 73.8302C80.68 72.1102 79.29 70.7202 77.57 70.7202C75.85 70.7202 74.46 72.1102 74.46 73.8302C74.46 75.5502 75.85 76.9402 77.57 76.9402C79.28 76.9402 80.68 75.5502 80.68 73.8302Z" fill="#DBD7CC"/>
<path d="M77.37 75.4101C78.24 75.4101 78.95 74.7001 78.95 73.8301H75.79C75.79 74.7001 76.5 75.4101 77.37 75.4101Z" fill="#E9E8E8"/>
<path d="M76.7 71.5801C75.46 71.5801 74.45 72.5901 74.45 73.8301H78.95C78.95 72.5901 77.94 71.5801 76.7 71.5801Z" fill="#E9E8E8"/>
<path d="M76.87 72.77C76.27 72.77 75.79 73.25 75.79 73.85H77.95C77.95 73.26 77.47 72.77 76.87 72.77Z" fill="#E9E8E8"/>
<path d="M64.11 73.8302C64.11 72.1102 65.5 70.7202 67.22 70.7202C68.94 70.7202 70.33 72.1102 70.33 73.8302C70.33 75.5502 68.94 76.9402 67.22 76.9402C65.5 76.9402 64.11 75.5502 64.11 73.8302Z" fill="#DBD7CC"/>
<path d="M67.42 75.4101C66.55 75.4101 65.84 74.7001 65.84 73.8301H69C69 74.7001 68.29 75.4101 67.42 75.4101Z" fill="#E9E8E8"/>
<path d="M68.09 71.5801C69.33 71.5801 70.34 72.5901 70.34 73.8301H65.84C65.84 72.5901 66.84 71.5801 68.09 71.5801Z" fill="#E9E8E8"/>
<path d="M67.92 72.77C68.52 72.77 69 73.25 69 73.85H66.84C66.84 73.26 67.32 72.77 67.92 72.77Z" fill="#E9E8E8"/>
<path d="M102.75 70.7202H92.41V118.63H102.75V70.7202Z" fill="#E0E0E0"/>
<path d="M96.54 70.7202H94.47V118.63H96.54V70.7202Z" fill="#E9E8E8"/>
<path d="M100.68 70.7202H98.61V118.63H100.68V70.7202Z" fill="#E9E8E8"/>
<path d="M92.41 70.7202V78.0902C94.36 78.0902 96.01 76.7702 96.51 74.9802H98.64C99.14 76.7702 100.79 78.0902 102.74 78.0902V70.7202H92.41Z" fill="#E9E8E8"/>
<path d="M102.75 70.7202H92.41V73.8302H102.75V70.7202Z" fill="#DBD7CC"/>
<path d="M102.75 111.41H92.41C91.86 111.41 91.4 111.86 91.4 112.41V118.63H103.75V112.41C103.75 111.86 103.3 111.41 102.75 111.41Z" fill="#DBD7CC"/>
<path d="M103.75 115.95H91.4C89.92 115.95 88.72 117.15 88.72 118.63H106.43C106.43 117.15 105.23 115.95 103.75 115.95Z" fill="#DBD7CC"/>
<path d="M96.37 111.41H94.53C94.2 111.41 93.94 111.86 93.94 112.41V115.95H96.14V112.41C96.14 111.86 96.25 111.41 96.37 111.41Z" fill="#E9E8E8"/>
<path d="M100.62 111.41H98.77C98.9 111.41 99 111.86 99 112.41V115.95H101.21V112.41C101.21 111.86 100.95 111.41 100.62 111.41Z" fill="#E9E8E8"/>
<path d="M96.14 115.95H93.94C93.07 115.95 92.36 117.15 92.36 118.63H95.52C95.52 117.15 95.8 115.95 96.14 115.95Z" fill="#E9E8E8"/>
<path d="M101.21 115.95H99.0099C99.3499 115.95 99.6299 117.15 99.6299 118.63H102.79C102.79 117.15 102.09 115.95 101.21 115.95Z" fill="#E9E8E8"/>
<path d="M102.75 110.52H92.41V111.41H102.75V110.52Z" fill="#E9E8E8"/>
<path d="M103.75 115.02H91.4V115.95H103.75V115.02Z" fill="#E9E8E8"/>
<path d="M105.86 73.8302C105.86 72.1102 104.47 70.7202 102.75 70.7202C101.03 70.7202 99.64 72.1102 99.64 73.8302C99.64 75.5502 101.03 76.9402 102.75 76.9402C104.46 76.9402 105.86 75.5502 105.86 73.8302Z" fill="#DBD7CC"/>
<path d="M102.55 75.4101C103.42 75.4101 104.13 74.7001 104.13 73.8301H100.97C100.98 74.7001 101.68 75.4101 102.55 75.4101Z" fill="#E9E8E8"/>
<path d="M101.88 71.5801C100.64 71.5801 99.6299 72.5901 99.6299 73.8301H104.13C104.13 72.5901 103.13 71.5801 101.88 71.5801Z" fill="#E9E8E8"/>
<path d="M102.05 72.77C101.45 72.77 100.97 73.25 100.97 73.85H103.13C103.13 73.26 102.65 72.77 102.05 72.77Z" fill="#E9E8E8"/>
<path d="M89.3 73.8302C89.3 72.1102 90.69 70.7202 92.41 70.7202C94.13 70.7202 95.52 72.1102 95.52 73.8302C95.52 75.5502 94.13 76.9402 92.41 76.9402C90.69 76.9402 89.3 75.5502 89.3 73.8302Z" fill="#DBD7CC"/>
<path d="M92.6 75.4101C91.73 75.4101 91.02 74.7001 91.02 73.8301H94.18C94.18 74.7001 93.47 75.4101 92.6 75.4101Z" fill="#E9E8E8"/>
<path d="M93.27 71.5801C94.51 71.5801 95.52 72.5901 95.52 73.8301H91.02C91.02 72.5901 92.03 71.5801 93.27 71.5801Z" fill="#E9E8E8"/>
<path d="M93.1 72.77C93.7 72.77 94.18 73.25 94.18 73.85H92.02C92.02 73.26 92.5 72.77 93.1 72.77Z" fill="#E9E8E8"/>
<path d="M57.24 115.95V112.41C57.24 111.85 56.79 111.4 56.23 111.4V76.9402C57.95 76.9402 59.34 75.5502 59.34 73.8302C59.34 72.1102 57.95 70.7202 56.23 70.7202H52.38V118.63H56.23H57.24H59.92C59.92 117.15 58.72 115.95 57.24 115.95Z" fill="#D2D2D2"/>
<path d="M52.38 70.7202H42.04V118.63H52.38V70.7202Z" fill="#E0E0E0"/>
<path d="M46.18 70.7202H44.11V118.63H46.18V70.7202Z" fill="#E9E8E8"/>
<path d="M50.32 70.7202H48.25V118.63H50.32V70.7202Z" fill="#E9E8E8"/>
<path d="M42.04 70.7202V78.0902C43.99 78.0902 45.64 76.7702 46.14 74.9802H48.27C48.77 76.7702 50.42 78.0902 52.37 78.0902V70.7202H42.04Z" fill="#E9E8E8"/>
<path d="M52.38 70.7202H42.04V73.8302H52.38V70.7202Z" fill="#DBD7CC"/>
<path d="M52.38 111.4H42.04C41.48 111.4 41.03 111.85 41.03 112.41V118.63H53.38V112.41C53.39 111.86 52.94 111.4 52.38 111.4Z" fill="#DBD7CC"/>
<path d="M53.39 115.95H41.04C39.56 115.95 38.36 117.15 38.36 118.63H56.07C56.07 117.15 54.87 115.95 53.39 115.95Z" fill="#DBD7CC"/>
<path d="M46.01 111.4H44.17C43.84 111.4 43.58 111.85 43.58 112.41V115.95H45.78V112.41C45.78 111.86 45.88 111.4 46.01 111.4Z" fill="#E9E8E8"/>
<path d="M50.26 111.4H48.41C48.54 111.4 48.64 111.85 48.64 112.41V115.95H50.84V112.41C50.85 111.86 50.59 111.4 50.26 111.4Z" fill="#E9E8E8"/>
<path d="M45.78 115.95H43.58C42.71 115.95 42 117.15 42 118.63H45.16C45.15 117.15 45.43 115.95 45.78 115.95Z" fill="#E9E8E8"/>
<path d="M50.85 115.95H48.65C48.99 115.95 49.27 117.15 49.27 118.63H52.43C52.43 117.15 51.72 115.95 50.85 115.95Z" fill="#E9E8E8"/>
<path d="M52.38 110.52H42.04V111.41H52.38V110.52Z" fill="#E9E8E8"/>
<path d="M53.39 115.02H41.04V115.95H53.39V115.02Z" fill="#E9E8E8"/>
<path d="M55.49 73.8302C55.49 72.1102 54.1 70.7202 52.38 70.7202C50.66 70.7202 49.27 72.1102 49.27 73.8302C49.27 75.5502 50.66 76.9402 52.38 76.9402C54.1 76.9402 55.49 75.5502 55.49 73.8302Z" fill="#DBD7CC"/>
<path d="M52.19 75.4101C53.06 75.4101 53.77 74.7001 53.77 73.8301H50.61C50.61 74.7001 51.32 75.4101 52.19 75.4101Z" fill="#E9E8E8"/>
<path d="M51.52 71.5801C50.28 71.5801 49.27 72.5901 49.27 73.8301H53.77C53.77 72.5901 52.76 71.5801 51.52 71.5801Z" fill="#E9E8E8"/>
<path d="M51.69 72.77C51.09 72.77 50.61 73.25 50.61 73.85H52.77C52.77 73.26 52.29 72.77 51.69 72.77Z" fill="#E9E8E8"/>
<path d="M38.93 73.8302C38.93 72.1102 40.32 70.7202 42.04 70.7202C43.76 70.7202 45.15 72.1102 45.15 73.8302C45.15 75.5502 43.76 76.9402 42.04 76.9402C40.32 76.9402 38.93 75.5502 38.93 73.8302Z" fill="#DBD7CC"/>
<path d="M42.23 75.4101C41.36 75.4101 40.65 74.7001 40.65 73.8301H43.81C43.82 74.7001 43.11 75.4101 42.23 75.4101Z" fill="#E9E8E8"/>
<path d="M42.9 71.5801C44.14 71.5801 45.15 72.5901 45.15 73.8301H40.65C40.65 72.5901 41.66 71.5801 42.9 71.5801Z" fill="#E9E8E8"/>
<path d="M42.73 72.77C43.33 72.77 43.81 73.25 43.81 73.85H41.65C41.65 73.26 42.14 72.77 42.73 72.77Z" fill="#E9E8E8"/>
<path d="M112.81 115.95V112.41C112.81 111.85 113.26 111.41 113.81 111.41V76.9402C112.09 76.9402 110.7 75.5502 110.7 73.8302C110.7 72.1102 112.09 70.7202 113.81 70.7202H117.66V118.63H113.81H112.81H110.13C110.13 117.15 111.33 115.95 112.81 115.95Z" fill="#D2D2D2"/>
<path d="M127.93 70.7202H117.59V118.63H127.93V70.7202Z" fill="#E0E0E0"/>
<path d="M121.73 70.7202H119.66V118.63H121.73V70.7202Z" fill="#E9E8E8"/>
<path d="M125.86 70.7202H123.79V118.63H125.86V70.7202Z" fill="#E9E8E8"/>
<path d="M117.59 70.7202V78.0902C119.54 78.0902 121.19 76.7702 121.69 74.9802H123.82C124.32 76.7702 125.97 78.0902 127.92 78.0902V70.7202H117.59Z" fill="#E9E8E8"/>
<path d="M127.93 70.7202H117.59V73.8302H127.93V70.7202Z" fill="#DBD7CC"/>
<path d="M127.93 111.41H117.59C117.04 111.41 116.59 111.86 116.59 112.41V118.63H128.94V112.41C128.93 111.86 128.48 111.41 127.93 111.41Z" fill="#DBD7CC"/>
<path d="M128.93 115.95H116.58C115.1 115.95 113.9 117.15 113.9 118.63H131.61C131.61 117.15 130.41 115.95 128.93 115.95Z" fill="#DBD7CC"/>
<path d="M121.56 111.41H119.71C119.38 111.41 119.12 111.86 119.12 112.41V115.95H121.32V112.41C121.32 111.86 121.43 111.41 121.56 111.41Z" fill="#E9E8E8"/>
<path d="M125.8 111.41H123.95C124.08 111.41 124.18 111.86 124.18 112.41V115.95H126.38V112.41C126.4 111.86 126.13 111.41 125.8 111.41Z" fill="#E9E8E8"/>
<path d="M121.32 115.95H119.12C118.25 115.95 117.54 117.15 117.54 118.63H120.7C120.7 117.15 120.98 115.95 121.32 115.95Z" fill="#E9E8E8"/>
<path d="M126.4 115.95H124.2C124.55 115.95 124.82 117.15 124.82 118.63H127.98C127.97 117.15 127.27 115.95 126.4 115.95Z" fill="#E9E8E8"/>
<path d="M127.93 110.52H117.59V111.41H127.93V110.52Z" fill="#E9E8E8"/>
<path d="M128.93 115.02H116.58V115.95H128.93V115.02Z" fill="#E9E8E8"/>
<path d="M131.04 73.8302C131.04 72.1102 129.65 70.7202 127.93 70.7202C126.21 70.7202 124.82 72.1102 124.82 73.8302C124.82 75.5502 126.21 76.9402 127.93 76.9402C129.64 76.9402 131.04 75.5502 131.04 73.8302Z" fill="#DBD7CC"/>
<path d="M127.74 75.4101C128.61 75.4101 129.32 74.7001 129.32 73.8301H126.16C126.16 74.7001 126.86 75.4101 127.74 75.4101Z" fill="#E9E8E8"/>
<path d="M127.06 71.5801C125.82 71.5801 124.81 72.5901 124.81 73.8301H129.31C129.31 72.5901 128.31 71.5801 127.06 71.5801Z" fill="#E9E8E8"/>
<path d="M127.23 72.77C126.63 72.77 126.15 73.25 126.15 73.85H128.31C128.32 73.26 127.83 72.77 127.23 72.77Z" fill="#E9E8E8"/>
<path d="M114.48 73.8302C114.48 72.1102 115.87 70.7202 117.59 70.7202C119.31 70.7202 120.7 72.1102 120.7 73.8302C120.7 75.5502 119.31 76.9402 117.59 76.9402C115.87 76.9402 114.48 75.5502 114.48 73.8302Z" fill="#DBD7CC"/>
<path d="M117.78 75.4101C116.91 75.4101 116.2 74.7001 116.2 73.8301H119.36C119.36 74.7001 118.65 75.4101 117.78 75.4101Z" fill="#E9E8E8"/>
<path d="M118.45 71.5801C119.69 71.5801 120.7 72.5901 120.7 73.8301H116.2C116.2 72.5901 117.21 71.5801 118.45 71.5801Z" fill="#E9E8E8"/>
<path d="M118.28 72.77C118.88 72.77 119.36 73.25 119.36 73.85H117.2C117.2 73.26 117.68 72.77 118.28 72.77Z" fill="#E9E8E8"/>
</svg>
