<svg width="30" height="30" viewBox="0 0 30 30" fill="none" xmlns="http://www.w3.org/2000/svg">
<circle cx="15" cy="15" r="15" fill="#FCDDDD"/>
<path d="M9 10.1111H21.4444" stroke="#E0665C" stroke-width="1.5" stroke-linecap="round" stroke-linejoin="round"/>
<path d="M9.77832 10.1113L10.5561 19.4447C10.5561 20.3038 11.2525 21.0002 12.1117 21.0002H18.3339C19.193 21.0002 19.8894 20.3038 19.8894 19.4447L20.6672 10.1113" stroke="#E0665C" stroke-width="1.5" stroke-linecap="round" stroke-linejoin="round"/>
<path d="M12.8896 10.1111V7.77778C12.8896 7.34822 13.2379 7 13.6674 7H16.7785C17.2081 7 17.5563 7.34822 17.5563 7.77778V10.1111" stroke="#E0665C" stroke-width="1.5" stroke-linecap="round" stroke-linejoin="round"/>
<path d="M14.1983 13.4692C13.9054 13.1763 13.4305 13.1763 13.1376 13.4692C12.8447 13.7621 12.8447 14.2369 13.1376 14.5298L14.1983 13.4692ZM16.2487 17.641C16.5416 17.9338 17.0165 17.9338 17.3094 17.641C17.6023 17.3481 17.6023 16.8732 17.3094 16.5803L16.2487 17.641ZM17.3094 14.5298C17.6023 14.2369 17.6023 13.7621 17.3094 13.4692C17.0165 13.1763 16.5416 13.1763 16.2487 13.4692L17.3094 14.5298ZM13.1376 16.5803C12.8447 16.8732 12.8447 17.3481 13.1376 17.641C13.4305 17.9338 13.9054 17.9338 14.1983 17.641L13.1376 16.5803ZM13.1376 14.5298L16.2487 17.641L17.3094 16.5803L14.1983 13.4692L13.1376 14.5298ZM16.2487 13.4692L13.1376 16.5803L14.1983 17.641L17.3094 14.5298L16.2487 13.4692Z" fill="#E0665C"/>
</svg>
