<svg width="13" height="13" viewBox="0 0 13 13" fill="none" xmlns="http://www.w3.org/2000/svg">
<path d="M6.5 13C10.08 13 13 10.0912 13 6.5C13 2.90878 10.08 0 6.5 0C2.91997 0 0 2.91997 0 6.5C0 10.08 2.91997 13 6.5 13ZM6.5 0.917384C9.57659 0.917384 12.0826 3.42341 12.0826 6.5C12.0826 9.57659 9.57659 12.0826 6.5 12.0826C3.42341 12.0826 0.917384 9.57659 0.917384 6.5C0.917384 3.42341 3.42341 0.917384 6.5 0.917384Z" fill="#4A4A4A"/>
<path d="M4.06113 8.87176C4.15063 8.96126 4.26251 9.00601 4.38557 9.00601C4.50864 9.00601 4.62051 8.96126 4.71001 8.87176L6.50003 7.08174L8.29005 8.87176C8.37955 8.96126 8.49142 9.00601 8.61449 9.00601C8.73755 9.00601 8.84943 8.96126 8.93893 8.87176C9.11793 8.69276 9.11793 8.40188 8.93893 8.22288L7.14891 6.43286L8.93893 4.64284C9.11793 4.46384 9.11793 4.17296 8.93893 3.99396C8.75993 3.81496 8.46905 3.81496 8.29005 3.99396L6.50003 5.78398L4.71001 3.99396C4.53101 3.81496 4.24013 3.81496 4.06113 3.99396C3.88213 4.17296 3.88213 4.46384 4.06113 4.64284L5.85115 6.43286L4.06113 8.22288C3.88213 8.40188 3.88213 8.69276 4.06113 8.87176Z" fill="#FE0000" fill-opacity="0.87"/>
</svg>
