<svg width="35" height="32" viewBox="0 0 35 32" fill="none" xmlns="http://www.w3.org/2000/svg">
<g filter="url(#filter0_d_4_18)">
<path fill-rule="evenodd" clip-rule="evenodd" d="M27.9228 12.9152L17.5117 23.2263L7.10057 12.9152M7.10046 12.9152C5.22826 11.0934 4.53756 8.37466 5.31319 5.88014C6.08882 3.38563 8.19939 1.53789 10.7746 1.0989C13.3497 0.659904 15.9533 1.70401 17.5116 3.80065C19.0764 1.71952 21.6744 0.689276 24.2402 1.13238C26.806 1.57548 28.908 3.41738 29.6842 5.90279C30.4604 8.38821 29.7803 11.099 27.9227 12.9236" fill="black" fill-opacity="0.56" shape-rendering="crispEdges"/>
<path d="M28.4506 13.448C28.7449 13.1566 28.7471 12.6817 28.4557 12.3874C28.1642 12.0931 27.6893 12.0908 27.395 12.3823L28.4506 13.448ZM17.5117 23.2263L16.9839 23.7592C17.2762 24.0487 17.7471 24.0487 18.0394 23.7592L17.5117 23.2263ZM7.62833 12.3823C7.33403 12.0908 6.85916 12.0931 6.56769 12.3874C6.27621 12.6817 6.2785 13.1566 6.5728 13.448L7.62833 12.3823ZM6.57741 13.4527C6.87427 13.7416 7.3491 13.7351 7.63797 13.4383C7.92684 13.1414 7.92037 12.6666 7.62351 12.3777L6.57741 13.4527ZM17.5116 3.80065L16.9096 4.24804C17.0507 4.43784 17.273 4.54999 17.5095 4.55065C17.746 4.55131 17.9689 4.4404 18.111 4.25138L17.5116 3.80065ZM27.3971 12.3885C27.1016 12.6787 27.0974 13.1536 27.3876 13.4491C27.6779 13.7446 28.1527 13.7489 28.4482 13.4586L27.3971 12.3885ZM27.395 12.3823L16.9839 22.6934L18.0394 23.7592L28.4506 13.448L27.395 12.3823ZM18.0394 22.6934L7.62833 12.3823L6.5728 13.448L16.9839 23.7592L18.0394 22.6934ZM7.62351 12.3777C5.95362 10.7528 5.33755 8.32779 6.02937 6.10283L4.59701 5.65746C3.73757 8.42152 4.50291 11.434 6.57741 13.4527L7.62351 12.3777ZM6.02937 6.10283C6.72119 3.87787 8.60369 2.22979 10.9006 1.83823L10.6485 0.359565C7.79509 0.845997 5.45645 2.89339 4.59701 5.65746L6.02937 6.10283ZM10.9006 1.83823C13.1975 1.44667 15.5197 2.37796 16.9096 4.24804L18.1135 3.35326C16.3868 1.03006 13.502 -0.126867 10.6485 0.359565L10.9006 1.83823ZM18.111 4.25138C19.5068 2.39514 21.824 1.47622 24.1126 1.87144L24.3678 0.393316C21.5248 -0.0976652 18.646 1.04391 16.9121 3.34992L18.111 4.25138ZM24.1126 1.87144C26.4011 2.26666 28.276 3.90953 28.9683 6.12637L30.4001 5.67921C29.54 2.92523 27.2109 0.884298 24.3678 0.393316L24.1126 1.87144ZM28.9683 6.12637C29.6607 8.34322 29.054 10.7611 27.3971 12.3885L28.4482 13.4586C30.5066 11.4369 31.2602 8.43319 30.4001 5.67921L28.9683 6.12637Z" fill="white"/>
</g>
<defs>
<filter id="filter0_d_4_18" x="0.25" y="0.249985" width="34.5" height="31.7263" filterUnits="userSpaceOnUse" color-interpolation-filters="sRGB">
<feFlood flood-opacity="0" result="BackgroundImageFix"/>
<feColorMatrix in="SourceAlpha" type="matrix" values="0 0 0 0 0 0 0 0 0 0 0 0 0 0 0 0 0 0 127 0" result="hardAlpha"/>
<feOffset dy="4"/>
<feGaussianBlur stdDeviation="2"/>
<feComposite in2="hardAlpha" operator="out"/>
<feColorMatrix type="matrix" values="0 0 0 0 0 0 0 0 0 0 0 0 0 0 0 0 0 0 0.25 0"/>
<feBlend mode="normal" in2="BackgroundImageFix" result="effect1_dropShadow_4_18"/>
<feBlend mode="normal" in="SourceGraphic" in2="effect1_dropShadow_4_18" result="shape"/>
</filter>
</defs>
</svg>
