<?xml version="1.0" encoding="iso-8859-1"?>
<!-- Uploaded to: SVG Repo, www.svgrepo.com, Generator: SVG Repo Mixer Tools -->
<svg fill="#000000" height="800px" width="800px" version="1.1" id="Layer_1" xmlns="http://www.w3.org/2000/svg" xmlns:xlink="http://www.w3.org/1999/xlink" 
	 viewBox="0 0 512 512" xml:space="preserve">
<g>
	<g>
		<path d="M437.02,74.98C388.667,26.628,324.38,0,256,0S123.333,26.628,74.98,74.98C26.628,123.333,0,187.619,0,256
			s26.628,132.667,74.98,181.02C123.333,485.372,187.62,512,256,512s132.667-26.628,181.02-74.98
			C485.372,388.667,512,324.381,512,256S485.372,123.333,437.02,74.98z M256,478.609c-122.746,0-222.609-99.862-222.609-222.609
			S133.254,33.391,256,33.391S478.609,133.254,478.609,256S378.746,478.609,256,478.609z"/>
	</g>
</g>
<g>
	<g>
		<circle cx="344.465" cy="181.493" r="35.169"/>
	</g>
</g>
<g>
	<g>
		<path d="M221.844,166.962c-27.745,12.827-54.721,12.828-82.465,0l-14.013,30.308c18.33,8.474,36.787,12.711,55.246,12.711
			c18.459,0,36.917-4.236,55.246-12.711L221.844,166.962z"/>
	</g>
</g>
<g>
	<g>
		<path d="M387.398,301.833C367.934,357.636,315.13,395.13,256,395.13s-111.934-37.494-131.398-93.298l-31.528,10.996
			c24.134,69.2,89.609,115.693,162.926,115.693s138.792-46.493,162.926-115.693L387.398,301.833z"/>
	</g>
</g>
</svg>