<svg width="12" height="11" viewBox="0 0 12 11" fill="none" xmlns="http://www.w3.org/2000/svg">
<path fill-rule="evenodd" clip-rule="evenodd" d="M9.91051 5.63184L5.86342 9.64008L1.81633 5.63184M1.81651 5.63179C1.08873 4.92359 0.820237 3.86674 1.12175 2.89705C1.42325 1.92736 2.24369 1.20909 3.24473 1.03844C4.24577 0.867795 5.25785 1.27367 5.8636 2.08869C6.47189 1.2797 7.4818 0.879213 8.47921 1.05146C9.47662 1.2237 10.2937 1.9397 10.5955 2.90585C10.8972 3.872 10.6328 4.92576 9.91069 5.63502" fill="#00936C"/>
<path d="M10.2624 5.98709C10.4586 5.79277 10.4601 5.47619 10.2658 5.27999C10.0714 5.08379 9.75487 5.08226 9.55867 5.27658L10.2624 5.98709ZM5.86342 9.64008L5.51158 9.99533C5.70644 10.1883 6.0204 10.1883 6.21526 9.99533L5.86342 9.64008ZM2.16817 5.27658C1.97197 5.08226 1.65539 5.08379 1.46107 5.27999C1.26676 5.47619 1.26828 5.79277 1.46448 5.98709L2.16817 5.27658ZM1.46781 5.99013C1.66571 6.18271 1.98227 6.17839 2.17485 5.98049C2.36743 5.78258 2.36311 5.46603 2.16521 5.27345L1.46781 5.99013ZM5.8636 2.08869L5.4623 2.38695C5.55634 2.51348 5.70456 2.58825 5.86221 2.58869C6.01986 2.58913 6.16849 2.51519 6.26323 2.38918L5.8636 2.08869ZM9.56033 5.27831C9.36332 5.47182 9.36048 5.78839 9.55398 5.98539C9.74748 6.1824 10.0641 6.18524 10.2611 5.99174L9.56033 5.27831ZM9.55867 5.27658L5.51158 9.28482L6.21526 9.99533L10.2624 5.98709L9.55867 5.27658ZM6.21526 9.28482L2.16817 5.27658L1.46448 5.98709L5.51158 9.99533L6.21526 9.28482ZM2.16521 5.27345C1.5723 4.69649 1.35356 3.83549 1.5992 3.04551L0.644294 2.74859C0.28691 3.89798 0.605161 5.15069 1.46781 5.99013L2.16521 5.27345ZM1.5992 3.04551C1.84483 2.25552 2.51323 1.67036 3.32876 1.53133L3.16071 0.545556C1.97416 0.74783 1.00168 1.5992 0.644294 2.74859L1.5992 3.04551ZM3.32876 1.53133C4.14429 1.39231 4.9688 1.72297 5.4623 2.38695L6.2649 1.79043C5.54689 0.82437 4.34726 0.343281 3.16071 0.545556L3.32876 1.53133ZM6.26323 2.38918C6.7588 1.73011 7.58155 1.40384 8.39412 1.54417L8.5643 0.558752C7.38205 0.354585 6.18499 0.829288 5.46397 1.7882L6.26323 2.38918ZM8.39412 1.54417C9.20669 1.68449 9.87237 2.2678 10.1182 3.05491L11.0727 2.7568C10.7151 1.6116 9.74654 0.762918 8.5643 0.558752L8.39412 1.54417ZM10.1182 3.05491C10.364 3.84201 10.1486 4.70049 9.56033 5.27831L10.2611 5.99174C11.117 5.15103 11.4304 3.902 11.0727 2.7568L10.1182 3.05491Z" fill="#00936C"/>
</svg>
