<svg width="106" height="140" viewBox="0 0 106 140" fill="none" xmlns="http://www.w3.org/2000/svg">
<g filter="url(#filter0_d_1_27)">
<path d="M17.4032 89.0077H2V89.0422V99.0353V119.918V129.911V129.945H11.9931V129.911H17.3688H27.3619V119.918V99.0353V89.0422H17.4032V89.0077ZM11.9931 119.883V99.0009H17.3688V119.883H11.9931Z" fill="#6E7B6C"/>
<path d="M104 114.232V88.7665H101.381H94.0064H88.6308H80.2917H78.6377V119.642H73.0553V98.7597V88.7665H63.0622H57.4798H47.4866V98.7597V104.204H42.3178V88.7665H32.3246V129.669H42.3178V114.232H47.4866V119.676V129.669H57.4798H63.0622H73.0553H78.6377H88.6308H104V119.676H88.6308V98.7941H94.0064V114.232H104ZM57.4798 119.676V98.7941H63.0622V119.676H57.4798Z" fill="#6E7B6C"/>
<path d="M103.999 73.9157H40.1465V83.9088H103.999V73.9157Z" fill="#00936C"/>
<path d="M103.654 44.4868L75.9493 30.6342L48.2097 44.4868V53.7563H57.4447V50.207L75.9493 40.9375L94.0058 49.9658V59.0285H38.9746V54.1698V49.4833V44.1422H2V44.4868V53.7563V54.1698H28.9815V59.0285H2V59.0974V64.7832V69.0217V73.9149V83.908H20.4701V82.9087V77.5675V73.9149H11.9931V69.0217H103.999" fill="#6E7B6C"/>
<path d="M35.2531 73.9157H25.2599V83.9088H35.2531V73.9157Z" fill="#6E7B6C"/>
<path d="M21.6414 12.9911V10.9235C21.6414 10.51 21.4002 10.1654 21.0556 9.99314C21.1245 9.88976 21.1589 9.78639 21.1589 9.64855V8.37356C21.5035 8.37356 21.8481 8.30465 22.2272 8.23573C23.4332 7.89114 24.3981 7.13304 25.0184 6.13372C24.5704 6.44385 24.088 6.68507 23.5366 6.82291C21.0556 7.47763 18.5056 6.03034 17.8509 3.58375C17.5063 2.34322 17.713 1.06823 18.3333 0C16.7826 1.10269 16.0245 3.06686 16.5414 4.96211C16.9549 6.44385 18.0232 7.54655 19.3671 8.06343C19.3671 8.09789 19.3671 8.13235 19.3671 8.20127V9.64855C19.3671 9.75193 19.4015 9.88976 19.4704 9.99314C19.1259 10.1654 18.9191 10.51 18.9191 10.9235V13.0255C9.85636 13.9215 2.4821 21.7092 2.24089 31.2544V40.6618H12.234V31.2544C11.6827 25.9133 15.7489 21.4336 20.3319 21.2268C25.1562 21.0201 29.7737 25.6031 29.2224 31.2544V40.6618H39.2155V31.2544C38.9054 21.3647 30.9798 13.508 21.6414 12.9911Z" fill="#00936C"/>
</g>
<defs>
<filter id="filter0_d_1_27" x="0" y="0" width="106" height="139.945" filterUnits="userSpaceOnUse" color-interpolation-filters="sRGB">
<feFlood flood-opacity="0" result="BackgroundImageFix"/>
<feColorMatrix in="SourceAlpha" type="matrix" values="0 0 0 0 0 0 0 0 0 0 0 0 0 0 0 0 0 0 127 0" result="hardAlpha"/>
<feOffset dy="8"/>
<feGaussianBlur stdDeviation="1"/>
<feColorMatrix type="matrix" values="0 0 0 0 0.130362 0 0 0 0 0.138164 0 0 0 0 0.179123 0 0 0 0.25 0"/>
<feBlend mode="normal" in2="BackgroundImageFix" result="effect1_dropShadow_1_27"/>
<feBlend mode="normal" in="SourceGraphic" in2="effect1_dropShadow_1_27" result="shape"/>
</filter>
</defs>
</svg>
