<svg xmlns="http://www.w3.org/2000/svg" viewBox="0 0 24 24" id="kaaba"><path d="M21.073,9.253v.68a.509.509,0,0,1-.159.242c-.1.056-.251.131-.428.215l-.82.409-.642.317-1.593.8-.839.419-4.471,2.236a.321.321,0,0,1-.261,0s-8.84-4.434-8.84-4.443a.269.269,0,0,1-.1-.2V9.272a.268.268,0,0,1,.1-.2l1.062.531,7.657,3.828a.593.593,0,0,0,.5,0L19.9,9.607s1.081-.55,1.09-.55C21.036,9.057,21.064,9.179,21.073,9.253ZM21.082,6.4a1.248,1.248,0,0,0-.1-.339,1.6,1.6,0,0,0-.315-.287L12.4,2.1a.988.988,0,0,0-.8,0S3.236,5.834,3.227,5.84a.686.686,0,0,0-.209.22A.3.3,0,0,0,3,6.1a.676.676,0,0,0-.081.3s.007.845.013,1.21a.274.274,0,0,0,.154.241l8.785,4.392a.29.29,0,0,0,.26,0l8.784-4.391a.273.273,0,0,0,.155-.243C21.075,7.241,21.082,6.4,21.082,6.4ZM12,15.82a.55.55,0,0,1-.25-.059l-8.411-4.2a.291.291,0,0,0-.421.26V17.4a.988.988,0,0,0,.587.9l8.211,3.65a.32.32,0,0,1,.033.007.621.621,0,0,0,.5,0,.32.32,0,0,1,.033-.007L15.8,20.393a.292.292,0,0,0,.173-.266V17.3a.467.467,0,0,1,.286-.43l1.582-.779c.28-.132.5-.007.5.324l.006,2.4a.291.291,0,0,0,.409.266l1.737-.772a.99.99,0,0,0,.588-.905V11.816a.291.291,0,0,0-.421-.26L12.25,15.761A.55.55,0,0,1,12,15.82Z"></path></svg>