<svg width="36" height="46" viewBox="0 0 36 46" fill="none" xmlns="http://www.w3.org/2000/svg">
<path d="M5.3865 31.1252H0.00012207V31.1373V34.6318V41.9341V45.4286V45.4407H3.49464V45.4286H5.37445H8.86897V41.9341V34.6318V31.1373H5.3865V31.1252ZM3.49464 41.9221V34.6197H5.37445V41.9221H3.49464Z" fill="#6E7B6C"/>
<path d="M35.6684 39.9459V31.0409H34.7526H32.1739H30.2941H27.378H26.7996V41.8378H24.8475V34.5354V31.0409H21.353H19.4009H15.9063V34.5354V36.4393H14.0988V31.0409H10.6043V45.3443H14.0988V39.9459H15.9063V41.8498V45.3443H19.4009H21.353H24.8475H26.7996H30.2941H35.6684V41.8498H30.2941V34.5475H32.1739V39.9459H35.6684ZM19.4009 41.8498V34.5475H21.353V41.8498H19.4009Z" fill="#6E7B6C"/>
<path d="M35.6684 25.8476H13.3396V29.3421H35.6684V25.8476Z" fill="#00936C"/>
<path d="M35.5478 15.5566L25.8595 10.7125L16.1593 15.5566V18.7981H19.3887V17.5569L25.8595 14.3155L32.1738 17.4726V20.6417H12.9298V18.9427V17.3039V15.4361H0.00012207V15.5566V18.7981V18.9427H9.43532V20.6417H0.00012207V20.6658V22.6541V24.1363V25.8474V29.3419H6.45895V28.9924V27.1247V25.8474H3.49464V24.1363H35.6683" fill="#6E7B6C"/>
<path d="M11.6284 25.8476H8.13391V29.3421H11.6284V25.8476Z" fill="#6E7B6C"/>
<path d="M6.86859 4.54287V3.81987C6.86859 3.67527 6.78424 3.55477 6.66374 3.49452C6.68784 3.45837 6.69989 3.42222 6.69989 3.37402V2.92816C6.82039 2.92816 6.94089 2.90406 7.07345 2.87996C7.4952 2.75946 7.8326 2.49436 8.0495 2.14491C7.89285 2.25336 7.72415 2.33771 7.53135 2.38591C6.66374 2.61486 5.77204 2.10876 5.54309 1.25321C5.42259 0.819404 5.49489 0.373552 5.71179 0C5.16954 0.385602 4.90443 1.07246 5.08519 1.73521C5.22979 2.25336 5.60334 2.63896 6.07329 2.81971C6.07329 2.83176 6.07329 2.84381 6.07329 2.86791V3.37402C6.07329 3.41017 6.08534 3.45837 6.10944 3.49452C5.98894 3.55477 5.91664 3.67527 5.91664 3.81987V4.55492C2.74748 4.86822 0.168762 7.59154 0.0844116 10.9294V14.2191H3.57893V10.9294C3.38613 9.06164 4.80803 7.49514 6.41069 7.42283C8.0977 7.35053 9.71241 8.95319 9.51961 10.9294V14.2191H13.0141V10.9294C12.9057 7.47104 10.1342 4.72362 6.86859 4.54287Z" fill="#00936C"/>
</svg>
