<svg width="28" height="18" viewBox="0 0 28 18" fill="none" xmlns="http://www.w3.org/2000/svg">
<path d="M22.0247 10.5907H0.847159C0.379454 10.5907 0 10.0346 0 9.34925C0 8.66386 0.379454 8.10779 0.847159 8.10779H22.0247C22.4924 8.10779 22.8718 8.66386 22.8718 9.34925C22.8718 10.0346 22.4924 10.5907 22.0247 10.5907Z" fill="#121212"/>
<path d="M26.3713 2.48292H5.19384C4.72613 2.48292 4.34668 1.92685 4.34668 1.24146C4.34668 0.556071 4.72613 0 5.19384 0H26.3713C26.839 0 27.2185 0.556071 27.2185 1.24146C27.2185 1.92685 26.839 2.48292 26.3713 2.48292Z" fill="#121212"/>
<path d="M26.3713 18H5.19384C4.72613 18 4.34668 17.4439 4.34668 16.7586C4.34668 16.0732 4.72613 15.5171 5.19384 15.5171H26.3713C26.839 15.5171 27.2185 16.0732 27.2185 16.7586C27.2185 17.4439 26.839 18 26.3713 18Z" fill="#121212"/>
</svg>
