<svg width="12" height="12" viewBox="0 0 12 12" fill="none" xmlns="http://www.w3.org/2000/svg">
<path d="M0.0167376 11.7752C0.0739711 11.9473 0.267134 12.0404 0.438835 11.9831L3.85138 10.8292C3.86569 10.822 3.88 10.822 3.89431 10.8149C3.89431 10.8149 3.89431 10.8149 3.90146 10.8149C3.91577 10.8077 3.93723 10.8005 3.95154 10.7934C3.95869 10.7934 3.95869 10.7862 3.96585 10.7862C3.98016 10.7719 3.99447 10.7647 4.01593 10.7504L10.4118 4.34315L11.4348 3.31828C11.814 2.93844 12 2.44392 12 1.94223C12 1.44055 11.814 0.946033 11.4348 0.566187C11.0556 0.18634 10.562 0 10.0612 0C9.56758 0 9.06678 0.18634 8.68761 0.566187L7.66456 1.59106L1.27587 7.99111C1.27587 7.99111 1.27587 7.99111 1.27587 7.99828C1.26157 8.01261 1.24726 8.02695 1.2401 8.04845C1.23295 8.06278 1.21864 8.08428 1.21149 8.09862C1.21149 8.10578 1.21149 8.10578 1.20433 8.11295C1.20433 8.12012 1.19718 8.12012 1.19718 8.12729L0.0453544 11.5459C-0.00472494 11.6104 -0.0118791 11.6892 0.0167376 11.7752ZM1.96268 8.22762L7.88634 2.29341L9.6892 4.09948L3.76553 10.0337L1.96268 8.22762ZM10.9483 2.8381L10.1614 3.62646L8.35852 1.8204L9.14548 1.03204C9.39587 0.781194 9.71781 0.659356 10.0469 0.659356C10.376 0.659356 10.6979 0.781194 10.9483 1.03204C11.1987 1.28288 11.3204 1.60539 11.3204 1.93507C11.3204 2.25758 11.1987 2.58726 10.9483 2.8381ZM0.860932 11.1374L1.63358 8.83681L3.15027 10.3562L0.860932 11.1374Z" fill="#515151"/>
</svg>
