<svg width="16" height="25" viewBox="0 0 16 25" fill="none" xmlns="http://www.w3.org/2000/svg">
<path d="M12.663 25H3.04626C1.36639 25 0 23.6343 0 21.9553V3.04475C0 1.36571 1.36639 0 3.04626 0H12.663C14.3428 0 15.7092 1.36571 15.7092 3.04475V21.9553C15.7092 23.6338 14.3428 25 12.663 25ZM3.04626 1.38798C2.13204 1.38798 1.38867 2.13098 1.38867 3.04475V21.9553C1.38867 22.869 2.13204 23.612 3.04626 23.612H12.663C13.5772 23.612 14.3206 22.869 14.3206 21.9553V3.04475C14.3206 2.13098 13.5772 1.38798 12.663 1.38798H3.04626Z" fill="#515151"/>
<path d="M15.0149 5.51469H0.694887C0.311565 5.51469 0.000549316 5.20383 0.000549316 4.8207C0.000549316 4.43757 0.311565 4.12671 0.694887 4.12671H15.0154C15.3988 4.12671 15.7098 4.43757 15.7098 4.8207C15.7093 5.20383 15.3988 5.51469 15.0149 5.51469Z" fill="#515151"/>
<path d="M15.0149 20.4554H0.694825C0.311504 20.4554 0.000488281 20.1445 0.000488281 19.7614C0.000488281 19.3782 0.311504 19.0674 0.694825 19.0674H15.0154C15.3987 19.0674 15.7097 19.3782 15.7097 19.7614C15.7092 20.145 15.3987 20.4554 15.0149 20.4554Z" fill="#515151"/>
<path d="M9.47505 3.35821H6.23465C5.96028 3.35821 5.73792 3.13595 5.73792 2.86172C5.73792 2.58749 5.96028 2.36523 6.23465 2.36523H9.47505C9.74941 2.36523 9.97178 2.58749 9.97178 2.86172C9.97178 3.13595 9.74941 3.35821 9.47505 3.35821Z" fill="#515151"/>
<path d="M8.77017 22.2316C8.98131 21.7257 8.74217 21.1445 8.23605 20.9335C7.72993 20.7225 7.14848 20.9615 6.93735 21.4673C6.72621 21.9732 6.96534 22.5544 7.47146 22.7654C7.97758 22.9764 8.55904 22.7374 8.77017 22.2316Z" fill="#515151"/>
</svg>
