<svg width="61" height="21" viewBox="0 0 61 21" fill="none" xmlns="http://www.w3.org/2000/svg">
<rect x="0.5" y="0.5" width="60" height="20" rx="5.5" stroke="#E3E1E1"/>
<path d="M24.9 15.108C24.212 15.108 23.612 15.016 23.1 14.832C22.596 14.64 22.212 14.384 21.948 14.064C21.684 13.744 21.552 13.388 21.552 12.996C21.552 12.7 21.64 12.468 21.816 12.3C21.992 12.124 22.268 12.036 22.644 12.036C22.652 12.692 22.856 13.192 23.256 13.536C23.656 13.88 24.216 14.052 24.936 14.052C25.592 14.052 26.096 13.94 26.448 13.716C26.808 13.492 26.988 13.168 26.988 12.744C26.988 12.48 26.92 12.264 26.784 12.096C26.656 11.928 26.428 11.78 26.1 11.652C25.78 11.516 25.324 11.384 24.732 11.256C23.98 11.088 23.384 10.896 22.944 10.68C22.504 10.464 22.184 10.204 21.984 9.9C21.784 9.588 21.684 9.204 21.684 8.748C21.684 8.3 21.812 7.908 22.068 7.572C22.332 7.228 22.7 6.964 23.172 6.78C23.644 6.588 24.192 6.492 24.816 6.492C25.408 6.492 25.936 6.576 26.4 6.744C26.872 6.904 27.24 7.132 27.504 7.428C27.776 7.724 27.912 8.064 27.912 8.448C27.912 8.688 27.828 8.88 27.66 9.024C27.492 9.168 27.228 9.244 26.868 9.252C26.796 8.66 26.596 8.228 26.268 7.956C25.94 7.684 25.456 7.548 24.816 7.548C24.224 7.548 23.768 7.652 23.448 7.86C23.128 8.06 22.968 8.348 22.968 8.724C22.968 8.988 23.028 9.204 23.148 9.372C23.268 9.54 23.468 9.688 23.748 9.816C24.036 9.936 24.444 10.052 24.972 10.164C25.788 10.34 26.432 10.54 26.904 10.764C27.376 10.988 27.716 11.256 27.924 11.568C28.14 11.88 28.248 12.268 28.248 12.732C28.248 13.468 27.944 14.048 27.336 14.472C26.736 14.896 25.924 15.108 24.9 15.108ZM29.5615 7.464C29.5615 7.152 29.6615 6.912 29.8615 6.744C30.0695 6.576 30.3695 6.492 30.7615 6.492V9.636C30.6735 9.724 30.5815 9.84 30.4855 9.984L30.5455 10.032C30.7935 9.688 31.1015 9.412 31.4695 9.204C31.8375 8.996 32.2415 8.892 32.6815 8.892C33.3215 8.892 33.8295 9.088 34.2055 9.48C34.5815 9.864 34.7695 10.36 34.7695 10.968V14.292C34.7695 14.572 34.6695 14.78 34.4695 14.916C34.2775 15.044 33.9815 15.108 33.5815 15.108V11.112C33.5815 10.76 33.4775 10.476 33.2695 10.26C33.0615 10.044 32.7575 9.936 32.3575 9.936C32.0775 9.936 31.8135 10 31.5655 10.128C31.3175 10.248 31.1215 10.412 30.9775 10.62C30.8335 10.828 30.7615 11.056 30.7615 11.304V14.292C30.7615 14.572 30.6615 14.78 30.4615 14.916C30.2615 15.044 29.9615 15.108 29.5615 15.108V7.464ZM38.2332 15.108C37.5692 15.108 37.0252 14.928 36.6012 14.568C36.1772 14.2 35.9652 13.712 35.9652 13.104C35.9652 12.488 36.1892 11.996 36.6372 11.628C37.0852 11.26 37.6652 11.076 38.3772 11.076C39.1292 11.076 39.7492 11.332 40.2372 11.844L40.2852 11.796C40.1812 11.684 40.0732 11.58 39.9612 11.484V11.076C39.9612 10.692 39.8372 10.396 39.5892 10.188C39.3412 9.972 38.9932 9.864 38.5452 9.864C37.7372 9.864 37.1532 10.176 36.7932 10.8C36.6412 10.736 36.5172 10.648 36.4212 10.536C36.3332 10.416 36.2892 10.296 36.2892 10.176C36.2892 9.952 36.3972 9.744 36.6132 9.552C36.8292 9.352 37.1172 9.192 37.4772 9.072C37.8372 8.952 38.2212 8.892 38.6292 8.892C39.4132 8.892 40.0292 9.084 40.4772 9.468C40.9252 9.852 41.1492 10.376 41.1492 11.04V14.232C41.1492 14.536 41.0572 14.76 40.8732 14.904C40.6892 15.04 40.4052 15.108 40.0212 15.108V14.568C40.1892 14.384 40.2812 14.28 40.2972 14.256L40.2492 14.208C39.9852 14.512 39.6892 14.74 39.3612 14.892C39.0412 15.036 38.6652 15.108 38.2332 15.108ZM38.4852 14.196C38.9572 14.196 39.3252 14.1 39.5892 13.908C39.8532 13.716 39.9852 13.448 39.9852 13.104C39.9852 12.76 39.8532 12.488 39.5892 12.288C39.3252 12.088 38.9652 11.988 38.5092 11.988C38.0852 11.988 37.7492 12.088 37.5012 12.288C37.2532 12.488 37.1292 12.76 37.1292 13.104C37.1292 13.448 37.2492 13.716 37.4892 13.908C37.7292 14.1 38.0612 14.196 38.4852 14.196ZM45.4468 9.936C44.9908 9.936 44.6148 10.068 44.3188 10.332C44.0228 10.596 43.8748 10.92 43.8748 11.304V14.292C43.8748 14.58 43.7748 14.788 43.5748 14.916C43.3828 15.044 43.0828 15.108 42.6748 15.108V9.864C42.6748 9.216 43.0588 8.892 43.8268 8.892V9.612C43.7228 9.732 43.6308 9.856 43.5508 9.984L43.6108 10.032C44.1148 9.272 44.7508 8.892 45.5188 8.892C45.8228 8.892 46.0548 8.968 46.2148 9.12C46.3828 9.272 46.4668 9.46 46.4668 9.684C46.4668 9.852 46.4228 9.996 46.3348 10.116C46.1108 9.996 45.8148 9.936 45.4468 9.936ZM49.5885 15.108C49.1005 15.108 48.6605 15.012 48.2685 14.82C47.8765 14.628 47.5685 14.364 47.3445 14.028C47.1205 13.692 47.0085 13.316 47.0085 12.9V11.184C47.0085 10.752 47.1245 10.364 47.3565 10.02C47.5965 9.668 47.9125 9.392 48.3045 9.192C48.6965 8.992 49.1245 8.892 49.5885 8.892C50.0525 8.892 50.4765 8.988 50.8605 9.18C51.2445 9.372 51.5485 9.64 51.7725 9.984C51.9965 10.32 52.1085 10.704 52.1085 11.136V11.88C52.1085 12.016 52.0525 12.136 51.9405 12.24C51.8365 12.336 51.7085 12.384 51.5565 12.384H48.1725V12.84C48.1725 13.224 48.2925 13.536 48.5325 13.776C48.7725 14.008 49.1245 14.124 49.5885 14.124C50.0525 14.124 50.4005 14.024 50.6325 13.824C50.8725 13.616 50.9925 13.344 50.9925 13.008C51.2805 12.984 51.5165 13.032 51.7005 13.152C51.8845 13.264 51.9765 13.436 51.9765 13.668C51.9765 13.916 51.8645 14.152 51.6405 14.376C51.4245 14.592 51.1325 14.768 50.7645 14.904C50.4045 15.04 50.0125 15.108 49.5885 15.108ZM51.0165 11.484V11.136C51.0165 10.76 50.8845 10.456 50.6205 10.224C50.3565 9.984 50.0125 9.864 49.5885 9.864C49.1645 9.864 48.8205 9.984 48.5565 10.224C48.3005 10.456 48.1725 10.76 48.1725 11.136V11.484H51.0165Z" fill="#00936C"/>
<path d="M14.6667 9.33333L12.4444 11.5556L15.7778 14.8889L18 6L8 9.88889L10.2222 11L11.3333 14.3333L13 12.1111" stroke="#00936C" stroke-linecap="round" stroke-linejoin="round"/>
</svg>
