<svg width="11" height="13" viewBox="0 0 11 13" fill="none" xmlns="http://www.w3.org/2000/svg">
<rect x="1" y="1.55554" width="8.07767" height="9.48148" rx="2" stroke="#FF0000" stroke-width="2" stroke-linecap="round" stroke-linejoin="round"/>
<rect x="1" y="1.55554" width="8.07767" height="9.48148" rx="2" stroke="white" stroke-opacity="0.2" stroke-width="2" stroke-linecap="round" stroke-linejoin="round"/>
<path d="M4.79026 4.46246C4.4321 4.04205 3.80095 3.99159 3.38055 4.34975C2.96014 4.70791 2.90968 5.33906 3.26784 5.75947L4.79026 4.46246ZM5.28726 8.12984C5.64542 8.55024 6.27657 8.6007 6.69698 8.24254C7.11738 7.88438 7.16784 7.25323 6.80968 6.83283L5.28726 8.12984ZM6.80968 5.75947C7.16784 5.33906 7.11738 4.70791 6.69698 4.34975C6.27657 3.99159 5.64542 4.04205 5.28726 4.46246L6.80968 5.75947ZM3.26784 6.83283C2.90968 7.25323 2.96014 7.88438 3.38055 8.24254C3.80095 8.6007 4.4321 8.55024 4.79026 8.12984L3.26784 6.83283ZM3.26784 5.75947L5.28726 8.12984L6.80968 6.83283L4.79026 4.46246L3.26784 5.75947ZM5.28726 4.46246L3.26784 6.83283L4.79026 8.12984L6.80968 5.75947L5.28726 4.46246Z" fill="#FF0000"/>
<path d="M4.79026 4.46246C4.4321 4.04205 3.80095 3.99159 3.38055 4.34975C2.96014 4.70791 2.90968 5.33906 3.26784 5.75947L4.79026 4.46246ZM5.28726 8.12984C5.64542 8.55024 6.27657 8.6007 6.69698 8.24254C7.11738 7.88438 7.16784 7.25323 6.80968 6.83283L5.28726 8.12984ZM6.80968 5.75947C7.16784 5.33906 7.11738 4.70791 6.69698 4.34975C6.27657 3.99159 5.64542 4.04205 5.28726 4.46246L6.80968 5.75947ZM3.26784 6.83283C2.90968 7.25323 2.96014 7.88438 3.38055 8.24254C3.80095 8.6007 4.4321 8.55024 4.79026 8.12984L3.26784 6.83283ZM3.26784 5.75947L5.28726 8.12984L6.80968 6.83283L4.79026 4.46246L3.26784 5.75947ZM5.28726 4.46246L3.26784 6.83283L4.79026 8.12984L6.80968 5.75947L5.28726 4.46246Z" fill="white" fill-opacity="0.2"/>
</svg>
