<svg width="29" height="19" viewBox="0 0 29 19" fill="none" xmlns="http://www.w3.org/2000/svg">
<path d="M5.08724 1.95351C4.61461 2.14171 4.16925 2.39416 3.76348 2.70381C3.5141 2.89417 3.46621 3.25063 3.65657 3.50001C3.76836 3.64651 3.93748 3.72348 4.10858 3.72348C4.22872 3.72348 4.34989 3.68554 4.45283 3.60698C4.77628 3.36015 5.13115 3.15894 5.50755 3.00909C5.79902 2.89303 5.94121 2.56265 5.82515 2.27117C5.7091 1.97964 5.37866 1.83751 5.08724 1.95351Z" fill="#00936C"/>
<path d="M3.2914 3.88779C3.03083 3.71305 2.67795 3.78275 2.50322 4.04332C2.10875 4.63173 1.83307 5.28011 1.68384 5.9706C1.61755 6.27724 1.81245 6.57956 2.11909 6.64585C2.15954 6.6546 2.19987 6.6588 2.23963 6.6588C2.50134 6.6588 2.7368 6.47685 2.79435 6.2106C2.91313 5.661 3.13269 5.14469 3.44688 4.67598C3.62162 4.41535 3.55198 4.06247 3.2914 3.88779Z" fill="#00936C"/>
<path d="M23.7028 10.3393H26.1948C26.5085 10.3393 26.7628 10.0849 26.7628 9.77119C26.7628 9.45745 26.5085 9.20312 26.1948 9.20312H23.7028C23.3891 9.20312 23.1348 9.45745 23.1348 9.77119C23.1348 10.0849 23.3891 10.3393 23.7028 10.3393Z" fill="#00936C"/>
<path d="M9.0915 10.3393H21.0978C21.4116 10.3393 21.6659 10.0849 21.6659 9.77119C21.6659 9.45745 21.4116 9.20312 21.0978 9.20312H9.0915C8.77776 9.20312 8.52344 9.45745 8.52344 9.77119C8.52344 10.0849 8.77776 10.3393 9.0915 10.3393Z" fill="#00936C"/>
<path d="M4.33456 9.48633H3.71162C3.39788 9.48633 3.14355 9.74065 3.14355 10.0544C3.14355 10.3681 3.39788 10.6225 3.71162 10.6225H4.33456C4.6483 10.6225 4.90262 10.3681 4.90262 10.0544C4.90262 9.74065 4.6483 9.48633 4.33456 9.48633Z" fill="#00936C"/>
<path d="M7.48378 14.1299C7.43328 14.1299 7.3846 14.1371 7.33802 14.1495C7.09505 14.2139 6.91572 14.4347 6.91572 14.6979C6.91572 14.9968 6.67259 15.2399 6.37373 15.2399C6.11049 15.2399 5.88968 15.4193 5.82526 15.6622C5.81288 15.7088 5.80566 15.7575 5.80566 15.808C5.80566 16.1217 6.05999 16.3761 6.37373 16.3761C7.29905 16.3761 8.05185 15.6233 8.05185 14.6979C8.05185 14.3842 7.79752 14.1299 7.48378 14.1299Z" fill="#00936C"/>
<path d="M6.37245 14.1571C6.63569 14.1571 6.8565 13.9778 6.92092 13.7348C6.93325 13.6882 6.94052 13.6396 6.94052 13.5891C6.94052 13.2753 6.6862 13.021 6.37245 13.021C5.44713 13.021 4.69434 13.7738 4.69434 14.6991C4.69434 15.0129 4.94866 15.2672 5.2624 15.2672C5.3129 15.2672 5.36158 15.26 5.40816 15.2476C5.65113 15.1832 5.83046 14.9624 5.83046 14.6991C5.83052 14.4003 6.07365 14.1571 6.37245 14.1571Z" fill="#00936C"/>
<path d="M23.7943 14.1299C23.7438 14.1299 23.6952 14.1371 23.6486 14.1495C23.4056 14.2139 23.2263 14.4347 23.2263 14.6979C23.2263 14.9968 22.9831 15.2399 22.6843 15.2399C22.421 15.2399 22.2002 15.4193 22.1358 15.6622C22.1234 15.7088 22.1162 15.7575 22.1162 15.808C22.1162 16.1217 22.3705 16.3761 22.6843 16.3761C23.6096 16.3761 24.3624 15.6233 24.3624 14.6979C24.3624 14.3842 24.108 14.1299 23.7943 14.1299Z" fill="#00936C"/>
<path d="M22.6839 14.1571C22.9472 14.1571 23.168 13.9778 23.2324 13.7348C23.2447 13.6882 23.252 13.6396 23.252 13.5891C23.252 13.2753 22.9977 13.021 22.6839 13.021C21.7586 13.021 21.0059 13.7738 21.0059 14.6991C21.0059 15.0129 21.2602 15.2672 21.5739 15.2672C21.6244 15.2672 21.673 15.26 21.7197 15.2476C21.9626 15.1832 22.142 14.9624 22.142 14.6991C22.142 14.4003 22.3851 14.1571 22.6839 14.1571Z" fill="#00936C"/>
<path d="M28.4319 0H7.13755C3.20189 0 0 3.20189 0 7.13761V14.7265C0 15.0403 0.254322 15.2946 0.568064 15.2946H3.08425C3.3664 16.8543 4.73322 18.0414 6.37305 18.0414C8.01288 18.0414 9.37964 16.8543 9.66186 15.2946H19.3948C19.677 16.8543 21.0438 18.0414 22.6836 18.0414C24.3234 18.0414 25.6902 16.8543 25.9724 15.2946H28.4319C28.7457 15.2946 29 15.0403 29 14.7265V0.568121C28.9999 0.254322 28.7456 0 28.4319 0ZM14.6468 1.13613H20.6996V7.10756H14.6468V1.13613ZM7.56405 1.13613H13.5107V7.10756H7.56405V1.13613ZM6.42793 1.17828V7.10756H1.13653C1.15158 4.05194 3.46172 1.52934 6.42793 1.17828ZM3.07345 14.1584H1.13613V12.2647H1.95562C2.26936 12.2647 2.52368 12.0103 2.52368 11.6966C2.52368 11.3829 2.26936 11.1285 1.95562 11.1285H1.13613V10.6223H1.95562C2.26936 10.6223 2.52368 10.368 2.52368 10.0542C2.52368 9.74048 2.26936 9.48615 1.95562 9.48615H1.13613V8.24368H6.42793V11.3563C4.80542 11.3299 3.33794 12.5354 3.07345 14.1584ZM6.37299 16.9052C5.18864 16.9052 4.22026 15.9671 4.16925 14.7951C4.17771 15.7854 4.15845 13.6259 4.168 14.6528C4.19816 13.4737 5.18211 12.4912 6.37299 12.4912C7.58479 12.4912 8.59037 13.5126 8.57935 14.7221C8.56646 15.928 7.58195 16.9052 6.37299 16.9052ZM20.4774 14.7443C20.4776 14.7588 20.4778 14.7799 20.4781 14.8055C20.4779 14.7858 20.4777 14.7655 20.4774 14.7443ZM22.6835 16.9052C21.4748 16.9052 20.4904 15.9283 20.4772 14.7226C20.466 13.5129 21.4714 12.4912 22.6835 12.4912C23.8955 12.4912 24.9011 13.5125 24.8899 14.7226C24.8767 15.9283 23.8923 16.9052 22.6835 16.9052ZM27.8638 14.1584H25.9831C25.9744 14.1117 25.9657 14.0649 25.957 14.0182C25.6271 12.4281 24.1406 11.2807 22.5198 11.3592C22.421 11.364 22.3223 11.3743 22.2242 11.3874C20.8751 11.5783 19.7419 12.6083 19.4286 13.9383C19.4117 14.0113 19.3961 14.0845 19.384 14.1585H9.67259C9.42776 12.9223 8.72489 12.061 7.56405 11.5746V8.24368H27.8638V14.1584ZM27.8638 7.10756H21.8357V1.13613H27.8638V7.10756Z" fill="#00936C"/>
<path d="M12.5607 1.54297H8.65302C8.33928 1.54297 8.08496 1.79729 8.08496 2.11103C8.08496 2.42477 8.33928 2.6791 8.65302 2.6791H12.5607C12.8745 2.6791 13.1288 2.42477 13.1288 2.11103C13.1288 1.79729 12.8745 1.54297 12.5607 1.54297Z" fill="#00936C"/>
<path d="M19.6965 1.54297H15.7888C15.475 1.54297 15.2207 1.79729 15.2207 2.11103C15.2207 2.42477 15.475 2.6791 15.7888 2.6791H19.6965C20.0103 2.6791 20.2646 2.42477 20.2646 2.11103C20.2646 1.79729 20.0103 1.54297 19.6965 1.54297Z" fill="#00936C"/>
<path d="M22.9245 2.6791H26.8323C27.146 2.6791 27.4003 2.42477 27.4003 2.11103C27.4003 1.79729 27.146 1.54297 26.8323 1.54297H22.9245C22.6108 1.54297 22.3564 1.79729 22.3564 2.11103C22.3564 2.42477 22.6108 2.6791 22.9245 2.6791Z" fill="#00936C"/>
</svg>
