<svg width="26" height="23" viewBox="0 0 26 23" fill="none" xmlns="http://www.w3.org/2000/svg">
<path d="M23.1858 12.7906C23.4801 12.4991 23.4824 12.0243 23.1909 11.73C22.8994 11.4357 22.4246 11.4334 22.1303 11.7249L23.1858 12.7906ZM12.8213 22L12.2936 22.5329C12.5859 22.8224 13.0568 22.8224 13.3491 22.5329L12.8213 22ZM3.51242 11.7249C3.21812 11.4334 2.74325 11.4357 2.45178 11.73C2.1603 12.0243 2.16259 12.4991 2.45689 12.7906L3.51242 11.7249ZM2.46152 12.7953C2.75838 13.0842 3.23321 13.0777 3.52208 12.7809C3.81095 12.484 3.80448 12.0092 3.50762 11.7203L2.46152 12.7953ZM12.8213 3.64613L12.2193 4.09352C12.3604 4.28332 12.5827 4.39547 12.8192 4.39612C13.0556 4.39678 13.2786 4.28587 13.4207 4.09686L12.8213 3.64613ZM22.1324 11.7306C21.8369 12.0209 21.8326 12.4957 22.1229 12.7912C22.4131 13.0867 22.888 13.091 23.1835 12.8008L22.1324 11.7306ZM22.1303 11.7249L12.2936 21.4671L13.3491 22.5329L23.1858 12.7906L22.1303 11.7249ZM13.3491 21.4671L3.51242 11.7249L2.45689 12.7906L12.2936 22.5329L13.3491 21.4671ZM3.50762 11.7203C1.94102 10.1959 1.36307 7.9209 2.01209 5.83357L0.579732 5.3882C-0.236914 8.01463 0.490311 10.8772 2.46152 12.7953L3.50762 11.7203ZM2.01209 5.83357C2.66111 3.74624 4.42717 2.20011 6.58198 1.83278L6.32991 0.354108C3.61856 0.816319 1.39638 2.76177 0.579732 5.3882L2.01209 5.83357ZM6.58198 1.83278C8.7368 1.46544 10.9154 2.33911 12.2193 4.09352L13.4232 3.19874C11.7825 0.991219 9.04126 -0.108102 6.32991 0.354108L6.58198 1.83278ZM13.4207 4.09686C14.7301 2.35544 16.904 1.49336 19.051 1.86413L19.3063 0.386013C16.6048 -0.0805211 13.8694 1.00421 12.2218 3.19539L13.4207 4.09686ZM19.051 1.86413C21.198 2.23491 22.9569 3.77615 23.6064 5.85586L25.0382 5.4087C24.2209 2.79185 22.0078 0.852546 19.3063 0.386013L19.051 1.86413ZM23.6064 5.85586C24.2559 7.93558 23.6868 10.2039 22.1324 11.7306L23.1835 12.8008C25.1393 10.8797 25.8554 8.02555 25.0382 5.4087L23.6064 5.85586Z" fill="#484848"/>
</svg>
